<svg width="154" height="42" viewBox="0 0 154 42" fill="none" xmlns="http://www.w3.org/2000/svg">
<path d="M61.6675 27.9893C61.3724 28.1017 61.0212 28.2141 60.6278 28.2984C60.2345 28.3827 59.7989 28.4529 59.3494 28.5091C58.8998 28.5653 58.4502 28.5934 57.9866 28.5934C56.6238 28.5934 55.4297 28.3124 54.4322 27.7645C53.4347 27.2025 52.662 26.3877 52.1 25.3059C51.5521 24.2241 51.2711 22.8895 51.2711 21.3019C51.2711 20.0235 51.4538 18.9276 51.805 17.9863C52.1422 17.045 52.6339 16.2723 53.238 15.6542C53.8562 15.0501 54.5727 14.5865 55.3875 14.2774C56.2024 13.9823 57.0734 13.8278 58.0147 13.8278C58.8014 13.8278 59.4758 13.8981 60.0799 14.0385C60.684 14.165 61.1898 14.3195 61.6394 14.5162L62.4964 11.2287C62.2856 11.1163 61.9625 10.9899 61.541 10.8775C61.1195 10.7511 60.5997 10.6527 59.9675 10.5684C59.3494 10.4841 58.6329 10.442 57.818 10.442C56.6098 10.442 55.4578 10.5965 54.3619 10.8915C53.2521 11.1866 52.2405 11.6361 51.3133 12.2262C50.386 12.8163 49.5852 13.5609 48.8968 14.446C48.2084 15.3311 47.6746 16.3707 47.2953 17.5508C46.9159 18.7309 46.7192 20.0515 46.7192 21.5267C46.7192 23.0862 46.9581 24.5192 47.4217 25.7976C47.8853 27.0901 48.5597 28.186 49.4588 29.1273C50.358 30.0685 51.4538 30.771 52.7744 31.2908C54.081 31.7966 55.5842 32.0495 57.2982 32.0635C58.0849 32.0635 58.7874 32.0214 59.4337 31.9371C60.0799 31.8528 60.6559 31.7685 61.1476 31.642C61.6394 31.5297 62.0187 31.4032 62.2997 31.2627L61.6815 28.0033L61.6675 27.9893ZM77.4727 22.5663C77.4727 21.7234 77.3743 20.9226 77.1776 20.1639C76.9669 19.4053 76.6297 18.7309 76.138 18.1409C75.6463 17.5508 74.986 17.0872 74.1571 16.75C73.3141 16.4128 72.2605 16.2302 70.996 16.2302C70.1391 16.2302 69.3523 16.3004 68.6218 16.4269C67.9053 16.5533 67.259 16.7079 66.697 16.9046C66.1351 17.1012 65.6714 17.2979 65.3062 17.5087L66.1351 20.1358C66.6689 19.8268 67.2871 19.5739 67.9895 19.3912C68.692 19.2086 69.4085 19.1103 70.1672 19.0962C70.9539 19.0962 71.558 19.2227 71.9935 19.4474C72.415 19.6863 72.71 19.9954 72.8786 20.3887C73.0472 20.7962 73.1175 21.2457 73.1034 21.7515C71.7968 21.7515 70.6027 21.8639 69.5069 22.1027C68.411 22.3415 67.4697 22.6928 66.6689 23.1564C65.8681 23.6341 65.25 24.2241 64.8145 24.9547C64.3789 25.6712 64.1541 26.5282 64.1541 27.4976C64.1541 28.1157 64.2665 28.7058 64.4913 29.2537C64.7161 29.8016 65.0392 30.2933 65.4748 30.7148C65.8962 31.1363 66.4161 31.4735 67.0202 31.7123C67.6243 31.9511 68.2986 32.0776 69.0713 32.0776C69.6895 32.0776 70.2655 31.9933 70.7994 31.8528C71.3473 31.7123 71.839 31.4875 72.2745 31.2206C72.7241 30.9396 73.1034 30.6024 73.4125 30.195H73.4968L73.7637 31.7825H77.6834C77.6272 31.4735 77.5851 31.1222 77.5429 30.7289C77.5148 30.3355 77.4867 29.9281 77.4586 29.4925C77.4446 29.057 77.4446 28.6074 77.4446 28.1719V22.5944L77.4727 22.5663ZM73.2299 26.5282C73.2299 27.0058 73.1315 27.4273 72.9489 27.7645C72.7662 28.1017 72.5415 28.3686 72.2464 28.5793C71.9654 28.7901 71.6564 28.9306 71.3473 29.0289C71.0382 29.1132 70.7432 29.1694 70.4903 29.1694C70.125 29.1694 69.7878 29.0992 69.4647 28.9446C69.1556 28.8041 68.9027 28.5793 68.7201 28.2703C68.5234 27.9612 68.4251 27.5678 68.4251 27.0901C68.4251 26.5422 68.5656 26.0927 68.8465 25.7274C69.1275 25.3762 69.4787 25.0952 69.9424 24.8985C70.406 24.7018 70.9118 24.5613 71.4878 24.477C72.0497 24.3927 72.6398 24.3646 73.2299 24.3646V26.5563V26.5282ZM85.7054 9.75357H81.3502V31.7544H85.7054V9.76762V9.75357ZM94.1208 12.3527C94.1208 11.9312 94.0225 11.5519 93.8258 11.2287C93.6291 10.9056 93.3481 10.6527 92.9969 10.4701C92.6457 10.2874 92.2383 10.2031 91.7606 10.1891C91.297 10.1891 90.9036 10.2874 90.5524 10.4701C90.2152 10.6527 89.9342 10.9056 89.7375 11.2287C89.5408 11.5519 89.4425 11.9312 89.4284 12.3527C89.4284 12.7741 89.5268 13.1394 89.7235 13.4625C89.9202 13.7857 90.1871 14.0385 90.5383 14.2352C90.8895 14.4179 91.2829 14.5162 91.7606 14.5162C92.2102 14.5162 92.6176 14.4179 92.9688 14.2493C93.32 14.0666 93.601 13.8138 93.7977 13.5047C93.9944 13.1815 94.1068 12.8022 94.1068 12.3667L94.1208 12.3527ZM93.9804 16.5112H89.6251V31.7544H93.9804V16.5252V16.5112ZM120.589 22.4961C120.589 21.4003 120.463 20.4449 120.196 19.6582C119.943 18.8574 119.578 18.2111 119.128 17.7054C118.679 17.1996 118.131 16.8203 117.527 16.5674C116.908 16.3145 116.248 16.2021 115.532 16.2021C114.928 16.2021 114.337 16.2864 113.761 16.455C113.185 16.6236 112.652 16.8905 112.132 17.2698C111.612 17.6492 111.12 18.1409 110.671 18.759H110.614C110.404 18.2392 110.095 17.7896 109.687 17.4103C109.294 17.031 108.816 16.736 108.268 16.5393C107.72 16.3285 107.116 16.2302 106.442 16.2302C105.838 16.2302 105.29 16.3004 104.798 16.4409C104.306 16.5814 103.871 16.7641 103.492 16.9888C103.112 17.2136 102.775 17.4665 102.494 17.7475C102.213 18.0144 101.974 18.2954 101.792 18.5764H101.707L101.497 16.5252H97.7877C97.8158 17.1855 97.8438 17.902 97.8719 18.6466C97.886 19.3912 97.9 20.2061 97.9 21.1052V31.7685H102.171V22.5804C102.171 22.0746 102.255 21.625 102.41 21.2457C102.564 20.8523 102.775 20.5433 103.028 20.2904C103.281 20.0375 103.562 19.8408 103.871 19.7003C104.18 19.5739 104.489 19.5036 104.784 19.5036C105.346 19.5036 105.81 19.6582 106.147 19.9392C106.484 20.2201 106.737 20.6135 106.891 21.1052C107.046 21.5969 107.116 22.1449 107.116 22.749V31.7544H111.387V22.5101C111.387 21.9763 111.471 21.5267 111.612 21.1333C111.766 20.754 111.963 20.4449 112.216 20.192C112.455 19.9532 112.736 19.7706 113.045 19.6582C113.34 19.5458 113.649 19.4896 113.958 19.4896C114.534 19.4896 114.998 19.6441 115.349 19.9392C115.7 20.2342 115.953 20.6557 116.108 21.2036C116.262 21.7515 116.346 22.3837 116.332 23.1143V31.7263H120.603V22.482L120.589 22.4961ZM136.69 22.5523C136.69 21.7093 136.591 20.9085 136.395 20.1499C136.184 19.3912 135.847 18.7169 135.355 18.1268C134.863 17.5368 134.203 17.0731 133.374 16.736C132.531 16.3988 131.477 16.2161 130.213 16.2161C129.356 16.2161 128.569 16.2864 127.839 16.4128C127.122 16.5393 126.476 16.6938 125.914 16.8905C125.352 17.0872 124.888 17.2839 124.523 17.4946L125.352 20.1218C125.886 19.8127 126.504 19.5598 127.206 19.3772C127.909 19.1946 128.625 19.0962 129.384 19.0822C130.171 19.0822 130.775 19.2086 131.21 19.4334C131.632 19.6722 131.927 19.9813 132.096 20.3747C132.264 20.7821 132.334 21.2317 132.32 21.7374C131.014 21.7374 129.82 21.8498 128.724 22.0887C127.628 22.3275 126.687 22.6787 125.886 23.1423C125.085 23.62 124.467 24.2101 124.031 24.9406C123.596 25.6571 123.371 26.5141 123.357 27.4835C123.357 28.1017 123.469 28.6917 123.694 29.2397C123.919 29.7876 124.242 30.2793 124.678 30.7008C125.099 31.1222 125.619 31.4594 126.223 31.6982C126.827 31.9371 127.516 32.0635 128.274 32.0635C128.892 32.0635 129.468 31.9792 130.002 31.8387C130.55 31.6982 131.042 31.4735 131.477 31.2065C131.927 30.9255 132.306 30.5884 132.615 30.1809H132.7L132.967 31.7685H136.886C136.83 31.4594 136.788 31.1082 136.746 30.7148C136.718 30.3214 136.69 29.914 136.661 29.4785C136.647 29.043 136.647 28.5934 136.647 28.1579V22.5804L136.69 22.5523ZM132.447 26.5141C132.447 26.9918 132.348 27.4133 132.166 27.7504C131.983 28.0876 131.758 28.3546 131.463 28.5653C131.182 28.776 130.873 28.9165 130.564 29.0149C130.255 29.0992 129.96 29.1554 129.707 29.1554C129.342 29.1554 129.005 29.0851 128.682 28.9306C128.373 28.7901 128.12 28.5653 127.937 28.2562C127.74 27.9471 127.642 27.5538 127.642 27.0761C127.642 26.5282 127.782 26.0786 128.063 25.7133C128.344 25.3621 128.696 25.0811 129.159 24.8844C129.623 24.6877 130.129 24.5473 130.705 24.463C131.267 24.3787 131.857 24.3506 132.447 24.3506V26.5422V26.5141ZM149.292 16.4971L147.816 19.2367C147.606 19.6301 147.409 20.0375 147.212 20.4449C147.016 20.8523 146.819 21.2598 146.608 21.6672H146.552C146.355 21.2879 146.145 20.8945 145.948 20.5011C145.737 20.0937 145.526 19.6863 145.288 19.2648L143.728 16.4971H138.895L143.756 24.0274L138.783 31.7404H143.433L144.964 28.7901C145.175 28.3967 145.372 28.0033 145.583 27.5959C145.793 27.2025 145.99 26.7951 146.173 26.3877H146.229C146.44 26.7951 146.636 27.2025 146.833 27.5959C147.03 28.0033 147.24 28.3967 147.465 28.7901L149.081 31.7404H153.97L149.025 23.8589L153.914 16.4971H149.292Z" fill="#E30613"/>
<path fill-rule="evenodd" clip-rule="evenodd" d="M20.9392 0.00378418C32.4735 0.00378418 41.8443 9.37452 41.8443 20.9229C41.8443 32.4712 32.4876 41.842 20.9392 41.842C9.39087 41.842 0.0341797 32.4712 0.0341797 20.9229C0.0341797 9.37452 9.39087 0.00378418 20.9392 0.00378418Z" fill="#165797"/>
<path d="M24.7606 28.383C23.454 31.9375 25.9407 34.4944 28.2869 32.7242C30.2117 31.2631 29.3968 29.1557 28.3431 28.4533M9.36281 9.68372C7.55048 16.8347 33.162 10.7795 33.6677 14.9381C34.0611 18.1272 34.4404 23.6204 32.3612 23.7749C30.296 23.9295 11.8917 24.351 12.1586 23.7468C12.4115 23.1427 11.6669 17.9446 11.6669 16.8066C11.6669 15.1629 15.0667 14.1513 15.2634 16.9752C15.3337 17.9446 17.2865 32.078 14.5329 33.0192C12.9734 33.5531 12.6222 33.6655 11.8916 32.5837C10.9504 31.1929 10.8801 28.1161 12.1726 28.1442L32.5579 28.5376L9.36281 9.68372Z" stroke="white" stroke-width="1.5" stroke-linecap="round" stroke-linejoin="round"/>
</svg>
