<svg width="113" height="85" viewBox="0 0 113 85" fill="none" xmlns="http://www.w3.org/2000/svg">
<path fill-rule="evenodd" clip-rule="evenodd" d="M3.50977 63.8261H111.231V15.3686C111.231 8.70243 105.778 3.24921 99.1116 3.24921H15.6292C8.96299 3.24921 3.50977 8.70243 3.50977 15.3686V63.8261Z" fill="white" stroke="#1D1D1B" stroke-width="0.22" stroke-miterlimit="22.93"/>
<path fill-rule="evenodd" clip-rule="evenodd" d="M2.40723 63.826H111.592V73.4895C111.592 78.8024 107.241 83.1529 101.929 83.1529H12.0707C6.75778 83.1529 2.40723 78.8024 2.40723 73.4895V63.826Z" fill="#EF7D00" stroke="#1D1D1B" stroke-width="0.22" stroke-miterlimit="22.93"/>
<path d="M14.5567 2.14642H99.0717C105.758 2.14642 111.221 7.6197 111.221 14.2959V71.0034C111.221 77.6896 105.748 83.1529 99.0717 83.1529H14.5567C7.87048 83.1529 2.40723 77.6796 2.40723 71.0034V14.2959C2.40723 7.60967 7.87048 2.14642 14.5567 2.14642Z" stroke="#312783" stroke-width="2.83" stroke-miterlimit="22.93"/>
<path d="M72.4272 57.9418L76.6173 51.8069H78.7325L82.8424 57.9418H83.7947L78.9831 51.1152H76.4068L71.6353 57.9418H72.4272Z" fill="#004380"/>
<path d="M85.0576 55.7765C85.0576 56.9393 85.9498 57.9518 87.1326 57.9518H93.3978C94.5005 57.9518 95.533 57.1799 95.533 56.0271V51.1152H94.6409V55.987C94.6409 56.6286 94.1797 57.1899 93.5181 57.1899H87.1427C86.461 57.1899 85.9398 56.6085 85.9398 55.9269V51.1152H85.0676V55.7765H85.0576Z" fill="#004380"/>
<path d="M70.5125 55.8166C70.5125 55.2352 70.3421 55.0548 70.2018 55.0046L70.0614 54.9445L70.2319 54.8242C70.5426 54.6137 70.5025 54.0924 70.5025 54.0323V52.9196C70.5025 51.9272 69.6905 51.1152 68.6981 51.1152H60.1875V57.9317L61.0596 57.9117V51.837H68.4876C69.1091 51.837 69.6504 52.3181 69.6504 52.9597V54.0624C69.6504 54.3731 69.4901 54.7641 69.3196 54.8543L69.1793 54.9345L69.2996 55.0347C69.47 55.1951 69.6104 55.3655 69.6104 55.8166V57.9117H70.5025V55.8166H70.5125Z" fill="#004380"/>
<path d="M47.7268 51.1152L47.7469 57.9317H55.8465C56.879 57.9317 57.8814 57.23 57.8814 56.1474V52.9096C57.8814 51.8069 56.8489 51.1252 55.8064 51.1252H47.7168L47.7268 51.1152Z" fill="#004380"/>
<path d="M45.4321 57.9417V57.1999H36.1596V51.8469H45.4321V51.1252H35.3877V57.9417H45.4321Z" fill="#004380"/>
<path d="M11.6699 56.0171C11.6899 55.6663 11.6699 52.9296 11.6699 52.8695C11.73 52.248 11.9205 51.817 12.8527 51.817H20.8421V51.0952H12.8728C11.8503 51.0952 10.8779 51.817 10.8779 52.8795V56.0071C10.8779 57.0597 11.75 57.9117 12.8026 57.9117H20.8521V57.19H12.7926C12.131 57.1699 11.6699 56.6286 11.6699 56.0071V56.0171Z" fill="#004380"/>
<path d="M81.459 57.9418H82.4314L81.1182 56.0773H74.1513L72.8682 57.9217H73.8806L74.5422 56.799H80.6871L81.459 57.9418Z" fill="#004380"/>
<path d="M36.6001 54.3128H45.4415V53.5009H37.3519V52.9395H45.4415V52.2378H36.6001V54.3128Z" fill="#004380"/>
<path d="M36.5601 54.7439V56.7789L45.4416 56.7989V56.0471L37.352 56.0571V55.4256H45.4416V54.7439H36.5601Z" fill="#004380"/>
<path d="M12.1209 55.997C12.1409 56.4079 12.3915 56.7889 12.7825 56.8089H20.852V56.0471H12.8125V52.9195H20.842V52.2178H12.7925C12.3614 52.2178 12.1108 52.4684 12.1108 52.9195V55.9869L12.1209 55.997Z" fill="#004380"/>
<path d="M55.8067 51.8471C56.4282 51.8471 57.0497 52.2581 57.0497 52.9096V56.0372C57.0497 56.7189 56.4683 57.2201 55.8067 57.2201H48.5391V51.8471H55.8067Z" fill="white"/>
<path d="M93.398 56.0672H87.0726V51.1152H86.3208V56.0071C86.3208 56.4381 86.6316 56.819 87.0726 56.819H93.398C93.8491 56.819 94.23 56.4682 94.23 56.0271V51.1152H93.398V56.0672Z" fill="#004380"/>
<path d="M61.4204 57.9217H62.3126V55.8266H68.3873V57.9417H69.2995V55.8066C69.2995 55.3254 68.8584 55.1049 68.3873 55.1049H61.4204V57.9217Z" fill="#004380"/>
<path d="M68.4178 54.7942C68.8689 54.7942 69.29 54.5035 69.29 54.0423V53.1101C69.29 52.649 68.9191 52.258 68.4579 52.258H61.4409V54.8042H68.4178V54.7942Z" fill="#004380"/>
<path d="M55.8472 52.2478H48.9404V56.8289H55.8271C56.2482 56.8289 56.6592 56.5181 56.6592 56.0771V52.9094C56.6592 52.4783 56.2281 52.2478 55.8472 52.2478Z" fill="#004380"/>
<path d="M24.3403 54.343H31.9789V51.1252L31.2471 51.1352V53.4909H25.0721V51.1352H24.3403V54.343Z" fill="#004380"/>
<path d="M24.3403 54.7339V57.9517H25.0721V55.4055H31.2471V57.9718L31.9789 57.9517V54.7339H24.3403Z" fill="#004380"/>
<path d="M78.5723 52.2378H76.8081L74.4824 55.636H80.8479L78.5723 52.2378Z" fill="#004380"/>
<path d="M55.8169 52.9397V56.0673H49.7822V52.9397H55.8169Z" fill="white"/>
<path d="M62.3125 52.9397H68.4073L68.3872 54.0824H62.3125V52.9397Z" fill="white"/>
<path d="M79.4342 54.7943H75.9858L77.1286 52.9097H78.2313L79.4342 54.7943Z" fill="white"/>
<path d="M55.6363 38.4243L46.9854 48.7293H52.5689L60.3678 39.3967L68.4574 48.7293L73.9006 48.6892L64.979 38.4243H55.6363Z" fill="#F1872D"/>
<path d="M46.1435 34.8056L34.6055 48.6993H41.6225L53.2808 34.8056H46.1435Z" fill="#F1872D"/>
<path d="M72.457 32.6904L78.1508 44.1381H87.5937V37.2514H77.0181L74.5822 32.6804L72.457 32.6904Z" fill="#F1872D"/>
<path d="M58.1426 22.5458L65.731 31.5276H71.6954L64.1371 22.5458H58.1426Z" fill="#F1872D"/>
<path d="M58.1429 23.9392V33.2718L53.4014 37.3116H64.9794L65.0496 32.2093L58.1429 23.9392Z" fill="#F1872D"/>
<path d="M33.3724 41.4918L27.2876 48.6993H32.7508L38.9459 41.4918H33.3724Z" fill="#F1872D"/>
<path d="M33.3721 29.5328L40.8803 38.7652L43.9978 35.1966L39.3065 29.5128L33.3721 29.5328Z" fill="#F1872D"/>
<path d="M47.0356 19.729L55.025 29.5328H56.7893V24.1798L53.1104 19.709L47.0356 19.729Z" fill="#F1872D"/>
<path d="M50.3134 10.2361C48.0078 10.2361 46.1333 12.1107 46.1333 14.4163C46.1333 16.7219 48.0078 18.5964 50.3134 18.5964C52.619 18.5964 54.4936 16.7219 54.4936 14.4163C54.4936 12.1107 52.619 10.2361 50.3134 10.2361Z" fill="#F1872D"/>
<path d="M46.7349 20.9119L46.7449 33.6528H53.8922V29.6231L46.7349 20.9119Z" fill="#F1872D"/>
<path d="M61.4707 14.5565C59.546 14.5565 57.9722 16.1303 57.9722 18.055C57.9722 19.9797 59.546 21.5535 61.4707 21.5535C63.3953 21.5535 64.9691 19.9797 64.9691 18.055C64.9691 16.1303 63.3953 14.5565 61.4707 14.5565Z" fill="#F1872D"/>
<path d="M33.4727 31.1666L33.4827 40.3188L39.818 40.2988L40.3393 39.6572L33.4727 31.1666Z" fill="#F1872D"/>
<path d="M36.8808 22.2853C35.1566 22.2853 33.7432 23.6987 33.7432 25.4229C33.7432 27.1471 35.1466 28.5605 36.8808 28.5605C38.615 28.5605 40.0184 27.1571 40.0184 25.4229C40.0184 23.6887 38.615 22.2853 36.8808 22.2853Z" fill="#F1872D"/>
<path d="M78.9127 29.4124C77.399 29.4124 76.166 30.6454 76.166 32.159C76.166 33.6727 77.399 34.9057 78.9127 34.9057C80.4263 34.9057 81.6593 33.6727 81.6593 32.159C81.6593 30.6454 80.4263 29.4124 78.9127 29.4124Z" fill="#F1872D"/>
<path d="M86.0903 44.8902C85.2683 44.8902 84.5967 45.5618 84.5967 46.3838C84.5967 47.2058 85.2683 47.8774 86.0903 47.8774C86.9123 47.8774 87.5839 47.2058 87.5839 46.3838C87.5839 45.5618 86.9123 44.8902 86.0903 44.8902Z" fill="#F1872D"/>
<path d="M80.0957 44.8902C79.2737 44.8902 78.6021 45.5618 78.6021 46.3838C78.6021 47.2058 79.2737 47.8774 80.0957 47.8774C80.9177 47.8774 81.5893 47.2058 81.5893 46.3838C81.5893 45.5618 80.9177 44.8902 80.0957 44.8902Z" fill="#F1872D"/>
<path d="M70.6526 32.6904C70.001 32.6904 69.4697 33.2217 69.4697 33.8732C69.4697 34.5248 70.001 35.0561 70.6526 35.0561C71.3042 35.0561 71.8355 34.5248 71.8355 33.8732C71.8355 33.2217 71.3042 32.6904 70.6526 32.6904Z" fill="#F1872D"/>
<path d="M98.8115 51.1252V57.9317H99.6235V51.1252H98.8115Z" fill="#004380"/>
<path d="M98.3096 57.9318V51.1052H97.4575L97.4776 57.9318H98.3096Z" fill="#004380"/>
<path d="M23.9896 57.972V51.1354H23.2578V57.9519L23.9896 57.972Z" fill="#004380"/>
<path d="M32.4302 51.1252V57.9116H33.1018V51.1252H32.4302Z" fill="#004380"/>
<path d="M18.0854 0.703009H18.1057V0.713147H18.1159V0.703009H18.126V0.692871H18.1159V0.703009H18.1057V0.692871H18.0854V0.703009Z" fill="white"/>
<path d="M18.1556 0.70297V0.692871H18.1455V0.70297H18.1556V0.723166H18.1758V0.692871H18.1657V0.70297H18.1556Z" fill="white"/>
<path d="M18.0854 0.742797H18.105V0.733032H18.0854V0.742797Z" fill="white"/>
<path d="M18.166 0.753309V0.733032H18.1559V0.74317H18.1458V0.733032H18.1255V0.74317H18.1458V0.773585H18.1559V0.753309H18.166Z" fill="white"/>
<path d="M2.40723 63.826H111.231" stroke="#312783" stroke-width="2.83" stroke-miterlimit="22.93"/>
<path d="M16.649 74.407L18.7762 74.6488C18.6589 75.0922 18.4665 75.477 18.199 75.8031C17.9315 76.1256 17.5889 76.3766 17.1712 76.5562C16.7571 76.7357 16.2294 76.8255 15.5882 76.8255C14.9689 76.8255 14.4522 76.7687 14.0381 76.6551C13.6277 76.5378 13.2741 76.351 12.9773 76.0944C12.6805 75.8343 12.4478 75.5301 12.2792 75.182C12.1107 74.8339 12.0264 74.3722 12.0264 73.7969C12.0264 73.1959 12.129 72.6957 12.3342 72.2963C12.4844 72.0032 12.6896 71.7412 12.9498 71.5103C13.21 71.2758 13.4775 71.1017 13.7523 70.9881C14.1884 70.8086 14.7472 70.7188 15.4288 70.7188C16.3815 70.7188 17.107 70.8892 17.6054 71.23C18.1074 71.5708 18.4592 72.0691 18.6607 72.725L16.5556 73.0054C16.4896 72.7562 16.3687 72.5693 16.1928 72.4447C16.0206 72.3165 15.7879 72.2523 15.4947 72.2523C15.1246 72.2523 14.8241 72.3861 14.5933 72.6536C14.3661 72.9174 14.2525 73.3187 14.2525 73.8573C14.2525 74.3374 14.3661 74.702 14.5933 74.9512C14.8205 75.2003 15.11 75.3249 15.4617 75.3249C15.7549 75.3249 16.0004 75.2498 16.1983 75.0996C16.3998 74.9493 16.5501 74.7185 16.649 74.407ZM25.9547 76.6881H23.866V75.7427C23.5545 76.1311 23.2394 76.4078 22.9206 76.5727C22.6055 76.7375 22.217 76.82 21.7553 76.82C21.1397 76.82 20.656 76.6368 20.3042 76.2703C19.9561 75.9002 19.7821 75.3323 19.7821 74.5664V70.8507H22.0302V74.0607C22.0302 74.4272 22.0979 74.6873 22.2335 74.8412C22.3691 74.9951 22.5597 75.0721 22.8052 75.0721C23.0727 75.0721 23.2907 74.9695 23.4593 74.7643C23.6315 74.5591 23.7176 74.1908 23.7176 73.6595V70.8507H25.9547V76.6881ZM33.7928 74.3245H29.3076C29.3479 74.6837 29.445 74.9512 29.5989 75.1271C29.8151 75.3799 30.0973 75.5063 30.4454 75.5063C30.6653 75.5063 30.8742 75.4513 31.072 75.3414C31.193 75.2718 31.323 75.149 31.4623 74.9731L33.6664 75.1765C33.3293 75.7628 32.9225 76.1842 32.4462 76.4407C31.9698 76.6936 31.2864 76.82 30.396 76.82C29.6228 76.82 29.0145 76.7119 28.5711 76.4957C28.1277 76.2758 27.7594 75.9296 27.4663 75.4568C27.1768 74.9805 27.032 74.4217 27.032 73.7804C27.032 72.868 27.3234 72.1296 27.906 71.5653C28.4923 71.001 29.3003 70.7188 30.33 70.7188C31.1655 70.7188 31.8251 70.8452 32.3088 71.0981C32.7925 71.3509 33.1607 71.7173 33.4136 72.1974C33.6664 72.6774 33.7928 73.3022 33.7928 74.0717V74.3245ZM31.5173 73.2527C31.4733 72.8203 31.356 72.5107 31.1655 72.3238C30.9786 72.1369 30.7312 72.0435 30.4234 72.0435C30.068 72.0435 29.784 72.1845 29.5715 72.4667C29.4359 72.6426 29.3498 72.9046 29.3131 73.2527H31.5173ZM34.4249 75.0721L36.6456 74.8632C36.7372 75.1271 36.8654 75.3158 37.0303 75.4294C37.1952 75.543 37.4151 75.5998 37.6899 75.5998C37.9904 75.5998 38.2231 75.5356 38.388 75.4074C38.5162 75.3121 38.5804 75.193 38.5804 75.0501C38.5804 74.8889 38.4961 74.7643 38.3275 74.6763C38.2066 74.614 37.886 74.5371 37.3656 74.4455C36.5888 74.3099 36.0483 74.1853 35.7441 74.0717C35.4436 73.9544 35.189 73.7584 34.9801 73.4836C34.7749 73.2087 34.6723 72.8954 34.6723 72.5437C34.6723 72.1589 34.7841 71.8273 35.0076 71.5488C35.2311 71.2703 35.5389 71.0632 35.931 70.9277C36.3231 70.7884 36.8489 70.7188 37.5085 70.7188C38.2048 70.7188 38.7178 70.7719 39.0476 70.8782C39.381 70.9845 39.6577 71.1494 39.8776 71.3729C40.1011 71.5964 40.2861 71.8987 40.4327 72.2798L38.311 72.4887C38.2561 72.3018 38.1645 72.1644 38.0362 72.0764C37.8603 71.9592 37.6478 71.9006 37.3986 71.9006C37.1458 71.9006 36.9607 71.9464 36.8434 72.038C36.7298 72.1259 36.673 72.234 36.673 72.3623C36.673 72.5052 36.7463 72.6133 36.8929 72.6866C37.0395 72.7599 37.3583 72.8258 37.8493 72.8844C38.5932 72.9687 39.1465 73.086 39.5093 73.2362C39.8721 73.3865 40.1487 73.6008 40.3393 73.8793C40.5335 74.1578 40.6306 74.4638 40.6306 74.7973C40.6306 75.1344 40.528 75.4623 40.3228 75.7811C40.1212 76.0999 39.8006 76.3546 39.3609 76.5452C38.9248 76.7321 38.3293 76.8255 37.5745 76.8255C36.5081 76.8255 35.7478 76.6734 35.2934 76.3693C34.8427 76.0651 34.5532 75.6327 34.4249 75.0721ZM44.4012 68.6301V70.8507H45.6325V72.4832H44.4012V74.5554C44.4012 74.8046 44.4251 74.9695 44.4727 75.0501C44.546 75.1747 44.6742 75.237 44.8575 75.237C45.0224 75.237 45.2532 75.1893 45.55 75.0941L45.7149 76.6386C45.1616 76.7595 44.6449 76.82 44.1649 76.82C43.6079 76.82 43.1975 76.7485 42.9337 76.6056C42.6698 76.4627 42.4738 76.2465 42.3455 75.957C42.2209 75.6639 42.1586 75.1912 42.1586 74.5389V72.4832H41.3341V70.8507H42.1586V69.7789L44.4012 68.6301ZM48.7435 72.7415L46.6054 72.5162C46.686 72.1424 46.8014 71.8493 46.9517 71.6367C47.1056 71.4205 47.3254 71.2336 47.6112 71.0761C47.8164 70.9625 48.0986 70.8745 48.4577 70.8122C48.8168 70.7499 49.2053 70.7188 49.623 70.7188C50.2936 70.7188 50.8322 70.7573 51.239 70.8342C51.6457 70.9075 51.9847 71.0632 52.2559 71.3014C52.4464 71.4663 52.5966 71.7008 52.7066 72.005C52.8165 72.3055 52.8715 72.5931 52.8715 72.868V75.4459C52.8715 75.7207 52.888 75.9369 52.9209 76.0944C52.9576 76.2484 53.0345 76.4462 53.1518 76.6881H51.0521C50.9678 76.5378 50.9129 76.4242 50.8872 76.3473C50.8616 76.2667 50.8359 76.1421 50.8103 75.9735C50.5171 76.2557 50.2258 76.4572 49.9363 76.5781C49.5405 76.7394 49.0807 76.82 48.5567 76.82C47.8604 76.82 47.3309 76.6588 46.9681 76.3363C46.609 76.0138 46.4295 75.6162 46.4295 75.1435C46.4295 74.7001 46.5596 74.3355 46.8197 74.0497C47.0799 73.7639 47.5599 73.5514 48.2598 73.4121C49.099 73.2436 49.6431 73.1263 49.8923 73.0603C50.1415 72.9907 50.4053 72.9009 50.6838 72.791C50.6838 72.5162 50.627 72.3238 50.5134 72.2139C50.3998 72.1039 50.2001 72.049 49.9143 72.049C49.5479 72.049 49.273 72.1076 49.0898 72.2249C48.9469 72.3165 48.8315 72.4887 48.7435 72.7415ZM50.6838 73.9178C50.376 74.0277 50.0554 74.1248 49.7219 74.2091C49.2675 74.33 48.9799 74.4491 48.859 74.5664C48.7344 74.6873 48.6721 74.8247 48.6721 74.9786C48.6721 75.1545 48.7325 75.2993 48.8535 75.4129C48.9781 75.5228 49.1594 75.5778 49.3976 75.5778C49.6468 75.5778 49.8777 75.5173 50.0902 75.3964C50.3064 75.2755 50.4585 75.1289 50.5464 74.9567C50.638 74.7808 50.6838 74.5536 50.6838 74.2751V73.9178Z" fill="white"/>
<path d="M60.4992 70.8507H62.5879V71.7027C62.8884 71.3472 63.1907 71.0944 63.4948 70.9442C63.8027 70.7939 64.1728 70.7188 64.6052 70.7188C65.0705 70.7188 65.4388 70.8012 65.71 70.9661C65.9811 71.131 66.2028 71.3766 66.3751 71.7027C66.7268 71.3216 67.0475 71.0632 67.337 70.9277C67.6264 70.7884 67.9837 70.7188 68.4088 70.7188C69.0354 70.7188 69.5246 70.9057 69.8764 71.2794C70.2282 71.6495 70.404 72.2304 70.404 73.0219V76.6881H68.1614V73.3626C68.1614 73.0988 68.1101 72.9028 68.0075 72.7745C67.8573 72.573 67.6704 72.4722 67.4469 72.4722C67.1831 72.4722 66.9705 72.5675 66.8093 72.758C66.6481 72.9486 66.5674 73.2545 66.5674 73.676V76.6881H64.3248V73.4726C64.3248 73.2161 64.3102 73.042 64.2809 72.9504C64.2332 72.8038 64.1508 72.6866 64.0335 72.5986C63.9163 72.507 63.7788 72.4612 63.6213 72.4612C63.3648 72.4612 63.1541 72.5583 62.9892 72.7525C62.8243 72.9467 62.7418 73.2655 62.7418 73.7089V76.6881H60.4992V70.8507ZM78.2202 74.3245H73.735C73.7753 74.6837 73.8724 74.9512 74.0263 75.1271C74.2425 75.3799 74.5247 75.5063 74.8728 75.5063C75.0926 75.5063 75.3015 75.4513 75.4994 75.3414C75.6203 75.2718 75.7504 75.149 75.8896 74.9731L78.0938 75.1765C77.7566 75.7628 77.3499 76.1842 76.8735 76.4407C76.3972 76.6936 75.7137 76.82 74.8233 76.82C74.0501 76.82 73.4418 76.7119 72.9984 76.4957C72.555 76.2758 72.1868 75.9296 71.8936 75.4568C71.6041 74.9805 71.4594 74.4217 71.4594 73.7804C71.4594 72.868 71.7507 72.1296 72.3333 71.5653C72.9197 71.001 73.7276 70.7188 74.7573 70.7188C75.5928 70.7188 76.2524 70.8452 76.7361 71.0981C77.2198 71.3509 77.5881 71.7173 77.8409 72.1974C78.0938 72.6774 78.2202 73.3022 78.2202 74.0717V74.3245ZM75.9446 73.2527C75.9006 72.8203 75.7834 72.5107 75.5928 72.3238C75.4059 72.1369 75.1586 72.0435 74.8508 72.0435C74.4953 72.0435 74.2113 72.1845 73.9988 72.4667C73.8632 72.6426 73.7771 72.9046 73.7405 73.2527H75.9446ZM79.248 70.8507H81.3313V71.8016C81.6427 71.4132 81.9579 71.1365 82.2767 70.9716C82.5955 70.8031 82.9839 70.7188 83.4419 70.7188C84.0612 70.7188 84.5449 70.9038 84.893 71.2739C85.2448 71.6404 85.4207 72.2084 85.4207 72.9779V76.6881H83.1726V73.4781C83.1726 73.1116 83.1048 72.8533 82.9692 72.7031C82.8337 72.5492 82.6431 72.4722 82.3976 72.4722C82.1264 72.4722 81.9066 72.5748 81.738 72.78C81.5694 72.9852 81.4852 73.3535 81.4852 73.8848V76.6881H79.248V70.8507ZM86.4815 73.7859C86.4815 72.8954 86.782 72.1626 87.383 71.5873C87.9839 71.0083 88.7956 70.7188 89.818 70.7188C90.9869 70.7188 91.87 71.0577 92.4673 71.7357C92.9474 72.2817 93.1874 72.9541 93.1874 73.7529C93.1874 74.6507 92.8887 75.3872 92.2914 75.9625C91.6978 76.5342 90.8752 76.82 89.8235 76.82C88.8854 76.82 88.1269 76.5818 87.5479 76.1054C86.837 75.5155 86.4815 74.7423 86.4815 73.7859ZM88.7242 73.7804C88.7242 74.3007 88.8286 74.6855 89.0375 74.9347C89.25 75.1838 89.5157 75.3084 89.8345 75.3084C90.1569 75.3084 90.4208 75.1857 90.626 74.9402C90.8348 74.6947 90.9393 74.3007 90.9393 73.7584C90.9393 73.2527 90.8348 72.8771 90.626 72.6316C90.4171 72.3824 90.1588 72.2578 89.851 72.2578C89.5248 72.2578 89.2555 72.3843 89.043 72.6371C88.8304 72.8863 88.7242 73.2674 88.7242 73.7804ZM93.869 75.0721L96.0896 74.8632C96.1812 75.1271 96.3094 75.3158 96.4743 75.4294C96.6392 75.543 96.8591 75.5998 97.1339 75.5998C97.4344 75.5998 97.6671 75.5356 97.832 75.4074C97.9602 75.3121 98.0244 75.193 98.0244 75.0501C98.0244 74.8889 97.9401 74.7643 97.7715 74.6763C97.6506 74.614 97.33 74.5371 96.8096 74.4455C96.0328 74.3099 95.4923 74.1853 95.1881 74.0717C94.8877 73.9544 94.633 73.7584 94.4241 73.4836C94.2189 73.2087 94.1163 72.8954 94.1163 72.5437C94.1163 72.1589 94.2281 71.8273 94.4516 71.5488C94.6751 71.2703 94.9829 71.0632 95.375 70.9277C95.7671 70.7884 96.2929 70.7188 96.9525 70.7188C97.6488 70.7188 98.1618 70.7719 98.4916 70.8782C98.825 70.9845 99.1017 71.1494 99.3216 71.3729C99.5451 71.5964 99.7301 71.8987 99.8767 72.2798L97.755 72.4887C97.7001 72.3018 97.6085 72.1644 97.4802 72.0764C97.3043 71.9592 97.0918 71.9006 96.8426 71.9006C96.5898 71.9006 96.4047 71.9464 96.2874 72.038C96.1739 72.1259 96.1171 72.234 96.1171 72.3623C96.1171 72.5052 96.1903 72.6133 96.3369 72.6866C96.4835 72.7599 96.8023 72.8258 97.2933 72.8844C98.0372 72.9687 98.5905 73.086 98.9533 73.2362C99.3161 73.3865 99.5927 73.6008 99.7833 73.8793C99.9775 74.1578 100.075 74.4638 100.075 74.7973C100.075 75.1344 99.972 75.4623 99.7668 75.7811C99.5652 76.0999 99.2446 76.3546 98.8049 76.5452C98.3688 76.7321 97.7734 76.8255 97.0185 76.8255C95.9522 76.8255 95.1918 76.6734 94.7374 76.3693C94.2867 76.0651 93.9972 75.6327 93.869 75.0721Z" fill="white"/>
</svg>
