<svg width="154" height="62" viewBox="0 0 154 62" fill="none" xmlns="http://www.w3.org/2000/svg">
<path d="M153.838 0.621338H0V51.1239H153.838V0.621338Z" fill="#E42313"/>
<path d="M153.838 53.6485H0V61.2244H153.838V53.6485Z" fill="#F49600"/>
<path d="M32.3198 18.3686H37.1585V37.1707H32.3198V18.3686ZM45.5928 28.0278C47.506 28.0278 48.8726 27.0863 48.8726 25.1326C48.8726 23.1789 47.587 22.359 45.6232 22.359H44.2363V28.0278H45.5928ZM79.1032 32.8867H85.6142V37.1707H74.1937V18.3686H79.1032V32.8867ZM87.1832 18.3686H99.5452V22.6424H92.024V25.7603H99.2132V29.7081H92.024V32.8867H99.5654V37.1707H87.1832V18.3686ZM129.057 27.4103L135.73 18.3686H128.877L122.7 27.0256V18.3686H116.705V37.1707H122.7V28.5137L133.361 42.2624C130.74 43.8922 127.589 44.8134 124.168 44.8134C114.488 44.8134 107.119 37.4521 107.119 27.7625C107.119 18.073 114.488 10.7239 124.168 10.7239C133.847 10.7239 141.217 18.0852 141.217 27.7625C141.217 31.8339 139.901 35.468 137.714 38.3226L129.057 27.4082V27.4103ZM53.6708 24.586C53.6708 27.3394 52.1017 29.204 50.1885 30.0037L54.9786 37.1707H49.2674L44.2363 29.2931V37.1707H39.3977V18.3686H45.441C50.725 18.3686 53.6708 20.4539 53.6708 24.586ZM22.61 22.4805C19.5934 22.4805 17.5082 24.8796 17.5082 27.7646C17.5082 30.6496 19.5934 33.0507 22.61 33.0507C24.665 33.0507 26.2137 31.9473 27.1855 30.4289L30.9208 32.8685C29.2 35.6826 26.1834 37.5047 22.5068 37.5047C16.8178 37.5047 12.627 33.2531 12.627 27.7646C12.627 22.276 16.8178 18.0345 22.5068 18.0345C26.1814 18.0345 29.2506 19.7676 30.9715 22.6424L27.143 25.1529C26.1226 23.5332 24.6629 22.4805 22.608 22.4805H22.61ZM64.6155 22.4805C61.5969 22.4805 59.5116 24.8796 59.5116 27.7646C59.5116 30.6496 61.5969 33.0507 64.6155 33.0507C66.6704 33.0507 68.2192 31.9473 69.191 30.4289L72.9263 32.8685C71.2034 35.6826 68.1868 37.5047 64.5123 37.5047C58.8233 37.5047 54.6304 33.2531 54.6304 27.7646C54.6304 22.276 58.8212 18.0345 64.5123 18.0345C68.1868 18.0345 71.254 19.7676 72.9749 22.6424L69.1485 25.1529C68.1261 23.5332 66.6684 22.4805 64.6135 22.4805H64.6155Z" fill="white"/>
</svg>
