<svg width="12" height="13" viewBox="0 0 12 13" fill="none" xmlns="http://www.w3.org/2000/svg">
<path d="M1.75953 1.10206L1.8623 1.19281L6 5.32965L10.1377 1.19281C10.5637 0.766784 11.2545 0.766784 11.6805 1.19281C12.0737 1.58607 12.104 2.20486 11.7712 2.63282L11.6805 2.73559L7.54364 6.87329L11.6805 11.011C12.1065 11.437 12.1065 12.1277 11.6805 12.5538C11.2872 12.947 10.6684 12.9773 10.2405 12.6445L10.1377 12.5538L6 8.41693L1.8623 12.5538C1.43627 12.9798 0.745546 12.9798 0.31952 12.5538C-0.0737354 12.1605 -0.103986 11.5417 0.228769 11.1138L0.31952 11.011L4.45636 6.87329L0.31952 2.73559C-0.106507 2.30956 -0.106507 1.61884 0.31952 1.19281C0.680004 0.832327 1.23001 0.776868 1.6488 1.02643L1.75953 1.10206Z" fill="#BDBDBD"/>
</svg>
