<svg width="155" height="70" viewBox="0 0 155 70" fill="none" xmlns="http://www.w3.org/2000/svg">
<path d="M99.5365 11.6231C99.4859 11.531 99.4284 11.4404 99.3592 11.3566C98.8593 10.7555 98.157 10.7555 97.8927 10.7555H93.6353C92.5952 10.7555 91.8399 11.3949 91.6639 12.4242L91.6373 12.5658L87.8243 34.3947C87.694 35.1445 87.9494 35.6382 88.1866 35.9205C88.4238 36.2028 88.8648 36.5404 89.6223 36.5404H94.3296C94.345 36.5404 94.3768 36.5382 94.4083 36.5367C95.4036 36.5021 96.1281 35.8652 96.2983 34.8739L98.5965 21.7342C98.632 21.527 98.6944 21.3229 98.7815 21.1248C99.2342 20.0825 100.302 19.3838 101.436 19.3838C101.801 19.3838 101.971 19.4657 102.186 19.5693C102.418 19.6815 102.736 19.8358 103.162 19.8358C103.273 19.8358 103.528 19.7805 103.636 19.7548C103.636 19.7548 103.513 19.7851 103.446 19.8012C104.296 19.6753 104.982 19.0112 105.139 18.1239C105.139 18.1239 106.027 13.0385 106.028 13.0305C106.045 12.9272 106.053 12.8249 106.053 12.7238C106.053 11.8673 105.487 11.1334 104.641 10.9438C104.029 10.7902 103.387 10.7558 102.952 10.7558C101.794 10.7558 100.544 11.1451 99.5362 11.6234L99.5365 11.6231ZM93.8824 36.5367C93.8824 36.5367 93.8787 36.5373 93.8775 36.5373C93.8812 36.5373 93.9621 36.5314 93.9621 36.5314C93.9466 36.5321 93.9136 36.5336 93.8824 36.5367Z" fill="#002596"/>
<path d="M88.1222 35.9749C87.9197 35.7347 87.7041 35.3432 87.7041 34.7889C87.7041 34.6606 87.7158 34.5242 87.7415 34.3783L91.5541 12.5503L91.5801 12.4108C91.7589 11.3451 92.5584 10.6671 93.6349 10.6708H97.8923C98.1578 10.6708 98.8971 10.6692 99.4227 11.3024C99.4793 11.3702 99.5281 11.441 99.5716 11.5136C100.574 11.0474 101.802 10.672 102.952 10.6708C103.391 10.6708 104.039 10.7057 104.658 10.8606C105.543 11.0585 106.138 11.8296 106.136 12.7234C106.136 12.8289 106.129 12.9358 106.111 13.0413C106.11 13.057 105.221 18.1362 105.221 18.1381C105.058 19.0613 104.345 19.7529 103.458 19.8846C103.45 19.8859 103.441 19.8859 103.433 19.8846C103.335 19.9029 103.232 19.9192 103.161 19.9192C102.715 19.9199 102.381 19.7575 102.148 19.645C101.932 19.5414 101.788 19.4688 101.436 19.4669C100.336 19.4669 99.2961 20.148 98.8573 21.1587C98.7742 21.3507 98.7146 21.5489 98.6791 21.748L96.3815 34.8869C96.2077 35.9143 95.4427 36.5874 94.4122 36.6198C94.3804 36.6229 94.3489 36.6235 94.3288 36.6235H89.6188C88.8375 36.6235 88.3687 36.2705 88.1219 35.9749H88.1222ZM94.3291 36.4554C94.3412 36.4554 94.3727 36.4532 94.4051 36.451C95.3652 36.4158 96.0477 35.8157 96.2148 34.8581L98.5139 21.7193C98.5506 21.5056 98.6133 21.2948 98.7032 21.0904C99.1708 20.0176 100.267 19.2987 101.436 19.2987C101.812 19.2972 102.008 19.3881 102.222 19.4932C102.454 19.6051 102.757 19.7507 103.162 19.7507C103.246 19.7514 103.479 19.7047 103.593 19.6775C103.608 19.6747 103.615 19.6722 103.615 19.6722C103.629 19.6701 103.64 19.6701 103.651 19.6716C104.363 19.4787 104.918 18.8838 105.055 18.1087C105.056 18.1038 105.89 13.3368 105.943 13.0314C105.944 13.0233 105.945 13.0196 105.945 13.0175C105.961 12.9173 105.969 12.8193 105.969 12.7234C105.968 11.9053 105.429 11.2081 104.619 11.0254C104.02 10.8745 103.383 10.8405 102.953 10.8405C101.812 10.8399 100.572 11.2248 99.5719 11.7C99.5321 11.7192 99.483 11.7034 99.4613 11.6639C99.4141 11.5742 99.3591 11.4898 99.2934 11.411C98.8215 10.8421 98.1554 10.8405 97.8923 10.8405H93.6349C92.63 10.8442 91.9204 11.445 91.7465 12.4408L91.7193 12.5815L87.9079 34.4083C87.8845 34.5446 87.8733 34.6714 87.8733 34.7895C87.8733 35.2996 88.0679 35.6475 88.251 35.867C88.4771 36.1344 88.8906 36.4544 89.6219 36.456H93.8542C93.8594 36.4538 93.8638 36.4532 93.869 36.4532L93.8739 36.4516V36.4532H93.877V36.4516C93.9057 36.4501 93.9329 36.4486 93.9515 36.4473H93.9573C93.9721 36.4467 93.9851 36.4495 93.9978 36.4563H94.3291V36.4554ZM99.5355 11.6231L99.6108 11.5826L99.5355 11.6231Z" fill="#002596"/>
<path d="M107.607 14.5668C106.581 15.7909 106.009 16.6748 105.904 17.1964C105.902 17.2041 105.901 17.2152 105.9 17.2217C105.848 17.5046 105.761 18.4736 106.85 19.0623C106.838 19.0564 106.826 19.049 106.814 19.0431C106.814 19.0431 109.168 20.4112 109.835 20.798C107.78 21.6442 106.066 23.1567 105.023 25.1519C104.565 26.0157 104.248 26.9519 104.081 27.9261L104.038 28.1663C103.949 28.6771 103.904 29.1783 103.904 29.6655C103.904 31.3394 104.422 32.8569 105.419 34.0451C106.768 35.6525 108.859 36.5398 111.308 36.5398H113.21C114.109 36.5398 115.062 36.4455 116.096 36.0297C116.101 36.0349 116.104 36.0424 116.11 36.0473C116.45 36.4489 116.941 36.5395 117.569 36.5395H121.826C121.842 36.5395 121.875 36.5373 121.908 36.5358C122.9 36.499 123.623 35.8652 123.796 34.8767L126.268 20.7294C126.39 20.0266 126.451 19.3442 126.451 18.6882C126.451 16.5935 125.828 14.7563 124.607 13.3014C122.935 11.3072 120.327 10.2541 117.065 10.2541C113.087 10.2541 110.082 11.6234 107.607 14.5665V14.5668ZM116.143 18.328C116.763 18.328 117.266 18.5224 117.561 18.8734C117.784 19.1402 117.851 19.4574 117.851 19.7409C117.851 19.8476 117.838 19.9434 117.824 20.0371H113.697C113.654 20.0371 113.613 20.0448 113.569 20.0448C114.513 18.9216 115.397 18.328 116.143 18.328H116.143ZM120.221 36.5364C120.218 36.5364 120.215 36.537 120.213 36.537C120.217 36.537 120.306 36.5305 120.306 36.5305C120.289 36.5312 120.255 36.5333 120.221 36.5364H120.221Z" fill="#002596"/>
<path d="M116.071 36.1311C115.046 36.5321 114.099 36.6233 113.211 36.6233H111.308C108.84 36.6242 106.722 35.7291 105.354 34.0988C104.345 32.8952 103.819 31.3561 103.819 29.6655C103.819 29.173 103.864 28.6669 103.954 28.1515L103.998 27.9103C104.165 26.9287 104.487 25.9835 104.949 25.1126C105.974 23.1505 107.643 21.6498 109.646 20.7859C108.869 20.3339 106.935 19.2107 106.78 19.1213C105.944 18.6566 105.785 17.9563 105.788 17.5253C105.788 17.3887 105.803 17.2777 105.817 17.2047C105.817 17.2047 105.818 17.1927 105.822 17.1797C105.937 16.6228 106.514 15.742 107.543 14.513L107.607 14.5668L107.543 14.5118C110.03 11.552 113.068 10.1672 117.065 10.1703C120.344 10.1691 122.981 11.2302 124.672 13.2475C125.907 14.7186 126.537 16.5768 126.537 18.6885C126.537 19.3507 126.475 20.0374 126.351 20.7442L123.88 34.8922C123.704 35.9153 122.94 36.5868 121.913 36.6199C121.879 36.622 121.848 36.6236 121.826 36.6236H117.564C116.947 36.6236 116.434 36.5367 116.071 36.1314V36.1311ZM121.826 36.4539C121.839 36.4554 121.871 36.4532 121.905 36.4508C122.861 36.414 123.543 35.8154 123.713 34.8625L126.185 20.7145C126.307 20.0158 126.367 19.3399 126.367 18.6885C126.367 16.6095 125.75 14.7947 124.543 13.3561C122.89 11.3847 120.31 10.3388 117.065 10.3382C113.107 10.3397 110.135 11.6958 107.672 14.6206C106.649 15.8394 106.082 16.7264 105.986 17.2174C105.986 17.2174 105.985 17.2257 105.982 17.2381C105.971 17.3009 105.957 17.4014 105.957 17.5256C105.96 17.9186 106.086 18.5311 106.848 18.9643C106.85 18.9673 106.853 18.968 106.856 18.9686C106.862 18.9723 106.867 18.9763 106.874 18.9788C106.879 18.9831 106.885 18.9862 106.891 18.9887C106.894 18.9908 106.897 18.9921 106.9 18.9949C107.229 19.1856 109.265 20.3689 109.878 20.7247C109.905 20.7408 109.922 20.7714 109.92 20.8036C109.917 20.8348 109.896 20.8638 109.868 20.8759C107.831 21.7138 106.131 23.2139 105.097 25.1899C104.645 26.0469 104.33 26.9741 104.164 27.9412L104.121 28.1799C104.032 28.6864 103.988 29.1823 103.988 29.6652C103.988 31.3215 104.502 32.8182 105.485 33.9903C106.815 35.5773 108.88 36.4535 111.308 36.4535H113.211C114.104 36.4535 115.043 36.3614 116.065 35.9508C116.097 35.9375 116.134 35.9459 116.157 35.9715C116.172 35.987 116.175 35.9938 116.174 35.9922C116.489 36.3651 116.946 36.4535 117.57 36.4535H120.191C120.199 36.452 120.205 36.4505 120.213 36.4505H120.215C120.25 36.4489 120.283 36.4461 120.301 36.4452H120.316C120.316 36.4452 120.318 36.4452 120.319 36.4458H120.322C120.322 36.4458 120.324 36.4474 120.325 36.4474H120.326C120.326 36.4474 120.328 36.4483 120.329 36.4483H120.329C120.329 36.4483 120.331 36.4489 120.332 36.4489H120.333C120.333 36.4489 120.334 36.4498 120.335 36.4498H120.336C120.336 36.4498 120.338 36.4505 120.339 36.452H120.34C120.34 36.452 120.342 36.4526 120.343 36.4526L120.344 36.4532H121.826V36.4539ZM113.493 20.0813C113.479 20.051 113.483 20.0158 113.504 19.9907C114.456 18.8601 115.349 18.2473 116.144 18.2445V18.4124C115.474 18.4096 114.648 18.9321 113.76 19.9521H117.752C117.761 19.8837 117.768 19.8151 117.768 19.7406C117.768 19.4682 117.704 19.1742 117.496 18.9275C117.224 18.6016 116.747 18.4124 116.144 18.4124V18.2445C116.78 18.2445 117.31 18.4424 117.627 18.8196C117.866 19.1046 117.936 19.4444 117.936 19.7409C117.936 19.8544 117.922 19.9555 117.908 20.0498C117.901 20.0912 117.866 20.1209 117.824 20.1209H113.698C113.665 20.1209 113.623 20.1283 113.57 20.1299C113.537 20.1299 113.507 20.111 113.492 20.0816L113.493 20.0813Z" fill="#002596"/>
<path d="M83.6397 5.94206H81.4561C80.4215 5.94206 79.6665 6.57773 79.4852 7.60019L79.4352 7.86268C79.4346 7.8667 79.4275 7.88401 79.4275 7.88741L79.2894 8.64706C79.2894 8.64706 79.1119 9.59717 78.9905 10.2545H76.3486C75.3288 10.2545 74.5744 10.8824 74.3799 11.8944L74.3484 12.0545L73.5862 16.1678C73.5893 16.1524 73.5936 16.1354 73.5973 16.1202C73.5383 16.3808 73.5318 16.635 73.5738 16.8975C73.576 16.9114 73.5782 16.9262 73.5819 16.9408C73.7063 17.5817 74.2495 18.3305 75.3724 18.3305H76.822C76.5193 20.0653 75.4799 26.0167 75.4799 26.0167C75.3582 26.7102 75.2989 27.3811 75.2989 28.0245C75.2989 31.4635 77.0076 34.1391 80.1634 35.5212C81.7939 36.2221 83.7231 36.5405 84.8281 36.5405C84.8281 36.5405 84.9883 36.5257 85.0479 36.5198C85.9512 36.4277 86.6322 35.8019 86.7971 34.8827L87.5509 30.5629C87.5716 30.4376 87.5818 30.3152 87.5818 30.1949C87.5818 29.746 87.4403 29.3413 87.1695 29.0222C86.836 28.6302 86.3524 28.4135 85.8061 28.4135C85.8416 28.4135 85.8768 28.4144 85.9123 28.4172C85.0729 28.3529 84.4689 28.1129 84.1656 27.7215C83.9729 27.4745 83.914 27.1709 83.914 26.8932C83.914 26.7516 83.9294 26.6184 83.9495 26.4996C83.9495 26.4996 85.3441 18.5306 85.3787 18.3308H88.0067C88.0172 18.3308 88.0363 18.3293 88.0577 18.3281C88.0731 18.3265 88.0901 18.3259 88.0901 18.3259H88.0842C89.0842 18.295 89.8093 17.6581 89.9785 16.6622L90.7227 12.402C90.7873 12.0295 90.7095 11.4343 90.488 11.1264C90.2672 10.8194 89.9387 10.4035 89.5656 10.3485L88.9288 10.2548H86.7915C86.9617 9.27006 87.167 8.0859 87.167 8.0859C87.1936 7.94183 87.2053 7.80703 87.2053 7.68088C87.2053 7.16424 87.0049 6.79818 86.8144 6.56846C86.5781 6.28247 86.1362 5.94237 85.3743 5.94237H83.6403L83.6397 5.94206ZM85.6492 36.5195C85.6044 36.5247 85.5624 36.5337 85.5173 36.5365C85.5386 36.5349 85.6705 36.5183 85.6927 36.5158C85.6927 36.5158 85.6619 36.5189 85.6492 36.5195V36.5195Z" fill="#002596"/>
<path d="M80.1299 35.5973C76.9463 34.2072 75.2126 31.4911 75.2154 28.0239C75.2154 27.3753 75.275 26.6994 75.3973 26.0013C75.3973 26.0013 76.3985 20.2664 76.7218 18.4144H75.3732C74.2087 18.4165 73.6269 17.6291 73.4996 16.9554C73.4975 16.9421 73.4944 16.9266 73.4916 16.9105C73.4725 16.794 73.4629 16.6799 73.4629 16.5655C73.4629 16.4217 73.4783 16.2783 73.5086 16.1339L74.267 12.037L74.2979 11.8774C74.4953 10.8312 75.2932 10.1655 76.3497 10.1701H78.9215C79.0423 9.51653 79.2062 8.6329 79.2062 8.63105L79.3446 7.87201C79.3483 7.85068 79.3505 7.85594 79.3526 7.84666L79.4017 7.58448C79.5861 6.52678 80.3853 5.8537 81.4566 5.8571H83.6402V6.02622H81.4566C80.4576 6.03055 79.747 6.62726 79.5679 7.6154L79.5182 7.87789C79.5129 7.89922 79.512 7.90108 79.5095 7.9051L79.3718 8.66166C79.3718 8.66166 79.1948 9.61145 79.0731 10.2697C79.0657 10.3093 79.0305 10.3389 78.9907 10.3389H76.3488C75.3643 10.3414 74.654 10.9329 74.4625 11.9099L74.4316 12.0697L73.6806 16.1218C73.6806 16.1277 73.6806 16.1333 73.6791 16.1379C73.6791 16.1401 73.6791 16.1419 73.6778 16.1432C73.6763 16.1527 73.6741 16.1617 73.6726 16.1713L73.6704 16.183C73.6698 16.1852 73.6698 16.1874 73.6689 16.1892C73.6429 16.316 73.6312 16.44 73.6312 16.5655C73.6312 16.6703 73.6392 16.776 73.6578 16.8846C73.6599 16.8972 73.6624 16.9105 73.6642 16.9248C73.7865 17.5341 74.2924 18.2437 75.3723 18.2453H76.8219C76.8469 18.2453 76.8697 18.257 76.8858 18.2759C76.9019 18.2941 76.9087 18.3195 76.9043 18.3445C76.6017 20.079 75.5622 26.0294 75.5622 26.0294C75.4421 26.7192 75.3825 27.3849 75.3825 28.0239C75.3856 31.4342 77.0692 34.0709 80.1957 35.4424C81.8127 36.139 83.7372 36.4552 84.8199 36.4552C84.8199 36.4552 84.9805 36.4413 85.0376 36.4355C85.9079 36.3449 86.5536 35.7522 86.7123 34.867L87.4661 30.5493C87.4862 30.4278 87.4964 30.3097 87.4964 30.1947C87.4964 29.7637 87.3611 29.3803 87.1048 29.0773C86.8111 28.7317 86.3958 28.5298 85.9211 28.501C85.9168 28.5016 85.9109 28.5016 85.9051 28.501H85.9035C85.8696 28.4988 85.8365 28.4973 85.8041 28.4973C85.7917 28.4973 85.7791 28.4945 85.7673 28.4893C84.9854 28.4089 84.4086 28.1702 84.0985 27.7729C83.8901 27.5045 83.8286 27.1817 83.8286 26.892C83.8286 26.7461 83.8447 26.6067 83.8647 26.4852C83.8647 26.4852 84.2137 24.4922 84.5679 22.4751C84.9197 20.4574 85.2763 18.4147 85.2942 18.3154C85.3017 18.2749 85.3362 18.2453 85.3782 18.2453H88.0063C88.01 18.2453 88.0297 18.2446 88.0551 18.2425C88.0609 18.2425 88.0668 18.2425 88.0711 18.2412H88.0816C89.0454 18.2085 89.7285 17.6077 89.8941 16.6474L90.6398 12.3863C90.6531 12.3084 90.6605 12.2169 90.6605 12.1201C90.6605 11.7878 90.5728 11.3858 90.419 11.1743C90.2019 10.8686 89.8737 10.4725 89.5525 10.4314L88.9238 10.3386H86.7911C86.7645 10.3386 86.7417 10.3272 86.7256 10.3077C86.7102 10.2886 86.7027 10.2638 86.7071 10.2391C86.8785 9.25435 87.0826 8.07205 87.0826 8.06927C87.1085 7.93045 87.1209 7.80028 87.1209 7.68032C87.1209 7.18718 86.9304 6.83998 86.75 6.62201C86.5224 6.35086 86.1095 6.02746 85.3739 6.02653H83.6399V5.85741H85.3739C86.1617 5.85679 86.632 6.21389 86.8794 6.51441C87.0798 6.75464 87.2895 7.14235 87.2895 7.68032C87.2895 7.81142 87.2768 7.95147 87.249 8.09895C87.249 8.09895 87.0582 9.20612 86.8911 10.1701H88.9407L89.5775 10.2644C90.0037 10.3337 90.3298 10.7687 90.5552 11.0763C90.7436 11.3407 90.8282 11.7593 90.8292 12.1204C90.8292 12.2252 90.8211 12.3254 90.8063 12.4154L90.0605 16.6756C89.8897 17.702 89.1276 18.376 88.0992 18.4097H88.094C88.094 18.4097 88.0764 18.411 88.0637 18.411C88.0418 18.4128 88.0232 18.4147 88.0063 18.4147H85.4486C85.3066 19.2294 84.0318 26.5139 84.0318 26.5139C84.012 26.6283 83.9972 26.7579 83.9972 26.892C83.9972 27.1595 84.0547 27.4427 84.231 27.6696C84.5049 28.0243 85.0719 28.2623 85.8773 28.33C86.4168 28.3477 86.8985 28.5734 87.2333 28.9676C87.5168 29.3021 87.6663 29.7281 87.6663 30.1947C87.6663 30.3184 87.6551 30.4467 87.6338 30.5771L86.8791 34.897C86.7525 35.6133 86.3174 36.1634 85.7087 36.433C85.7145 36.4336 85.7204 36.4351 85.7263 36.4389C85.7263 36.4389 85.7272 36.4389 85.7284 36.4395C85.7408 36.4453 85.7513 36.4534 85.7602 36.4651C85.7602 36.4651 85.7602 36.4667 85.7609 36.4667C85.7609 36.4667 85.7624 36.4673 85.7624 36.4682C85.7624 36.4682 85.7633 36.4698 85.7633 36.4704L85.764 36.471C85.764 36.471 85.7646 36.4732 85.7655 36.4741C85.7714 36.4843 85.7741 36.4961 85.7766 36.5072C85.7766 36.5152 85.7766 36.522 85.7757 36.5285V36.5301C85.7757 36.5301 85.7741 36.5316 85.7741 36.5322V36.5328C85.7741 36.5328 85.7735 36.5366 85.7735 36.5372C85.7729 36.5393 85.7729 36.5403 85.7729 36.5415C85.7686 36.5517 85.7643 36.5613 85.7569 36.5703C85.7482 36.5792 85.7371 36.5879 85.7244 36.5931H85.7238C85.7238 36.5931 85.7232 36.5938 85.7223 36.5938C85.7223 36.5938 85.7207 36.5944 85.7201 36.5944C85.7201 36.5944 85.7192 36.5944 85.7192 36.5959H85.7149C85.7099 36.5981 85.7059 36.5987 85.7 36.5996H85.6935C85.6766 36.6018 85.6355 36.6077 85.5972 36.6114C85.5743 36.6151 85.5493 36.6179 85.52 36.6194H85.5135C85.5135 36.6194 85.5126 36.6185 85.5113 36.6185H85.5055C85.5055 36.6185 85.5033 36.6179 85.5024 36.6179H85.4987L85.4971 36.6163C85.4971 36.6163 85.4956 36.6163 85.4941 36.6157H85.4934C85.4934 36.6157 85.4919 36.6157 85.4906 36.6151H85.49L85.4879 36.6145H85.4872C85.4872 36.6145 85.4842 36.6138 85.4835 36.6123C85.4548 36.5996 85.4341 36.5718 85.4335 36.5387V36.5344V36.5328V36.5313C85.3128 36.5659 85.1868 36.5903 85.0558 36.6036C84.9962 36.6089 84.8363 36.6228 84.8289 36.6234C83.7088 36.6225 81.7762 36.3034 80.1302 35.5967L80.1299 35.5973Z" fill="#002596"/>
<path d="M36.5077 18.6832H36.5083C36.5083 18.6872 36.4083 19.0589 36.3944 19.108C36.378 19.2097 36.3672 19.3115 36.3672 19.4126C36.3672 19.8219 36.5074 20.2183 36.7693 20.533C37.1219 20.956 37.6469 21.1882 38.2466 21.1882H44.2099C45.22 21.1882 46.0467 20.5305 46.2187 19.5891C46.2197 19.5845 46.2209 19.5808 46.2218 19.5755C46.3552 18.8103 46.0545 17.5188 45.2228 16.5292C44.6459 15.8422 43.591 15.0228 41.8413 15.0228C38.8133 15.0228 36.9403 17.4885 36.5074 18.6832H36.5077Z" fill="#002596"/>
<path d="M31.6209 16.5684C31.0397 17.6279 30.6478 18.7135 30.4594 19.7937L29.3709 26.0156C28.8613 28.9395 29.4573 31.5938 31.0487 33.49C32.7237 35.4845 35.3239 36.5401 38.5687 36.5401C42.8019 36.5401 45.8842 35.0115 48.5626 31.587C48.5626 31.5864 48.9403 31.097 48.9403 31.097C49.6255 30.1793 49.7904 29.8151 49.8531 29.4636C49.8732 29.3588 49.8828 29.2549 49.8828 29.1519C49.8828 28.5157 49.5264 27.9217 48.919 27.5863C48.919 27.5863 46.7449 26.4114 45.9954 26.0061H49.2287C49.2389 26.0061 49.2596 26.0045 49.2803 26.0017C49.2966 26.0017 49.3142 26.0002 49.3142 26.0002H49.3068C50.3015 25.9699 51.026 25.3317 51.1983 24.3396L51.908 20.2776C52.3617 17.6799 51.6285 14.9325 49.947 12.929C48.2284 10.8814 45.6761 9.75439 42.7593 9.75439C37.2877 9.75439 33.3395 13.425 31.6206 16.5681L31.6209 16.5684ZM42.5008 26.0061C42.4724 26.0422 42.4381 26.071 42.4116 26.1093C42.3934 26.1359 42.3758 26.1637 42.3594 26.1919C41.491 27.658 40.4731 28.465 39.493 28.465C38.9463 28.465 38.5038 28.2828 38.2141 27.9378C37.9822 27.6599 37.8615 27.2975 37.8615 26.8891C37.8615 26.7629 37.8732 26.6324 37.8961 26.4992C37.8961 26.4992 37.9575 26.1477 37.9819 26.0061H42.5008V26.0061Z" fill="#002596"/>
<path d="M38.5694 36.6235C35.3079 36.6245 32.679 35.5621 30.9854 33.5441C29.7499 32.0731 29.1094 30.1527 29.1094 28.0104C29.1094 27.3596 29.169 26.6875 29.2885 26.002L30.3771 19.7786C30.5679 18.6887 30.9617 17.5942 31.5475 16.5279C33.2778 13.3637 37.2482 9.67122 42.7603 9.66998C45.6981 9.66998 48.2779 10.8071 50.0122 12.8752C51.3791 14.504 52.1242 16.6181 52.1249 18.7481C52.1249 19.2647 52.0816 19.7807 51.9918 20.293L51.2821 24.3541C51.1076 25.3778 50.347 26.0509 49.3224 26.0861H49.2887C49.2668 26.0877 49.2482 26.0905 49.2297 26.0914H46.3305C47.2372 26.5808 48.9573 27.5108 48.9601 27.5133C49.5926 27.8611 49.9672 28.4841 49.9672 29.1526C49.9672 29.2601 49.9576 29.3699 49.9369 29.4797C49.8705 29.851 49.6951 30.23 49.0077 31.1483L48.6284 31.6393C45.9436 35.0786 42.8282 36.6248 38.5795 36.6242H38.5687L38.5694 36.6235ZM31.6954 16.6098C31.1182 17.6607 30.7304 18.7376 30.5432 19.8083L29.4546 26.0299C29.3367 26.7073 29.2783 27.3704 29.2783 28.0104C29.2783 30.119 29.9077 31.9979 31.1145 33.4359C32.7707 35.4075 35.3425 36.4541 38.5694 36.4557C42.7819 36.4529 45.8281 34.9441 48.4956 31.5357L48.8733 31.0463C49.558 30.1302 49.7118 29.7802 49.7714 29.4484C49.7896 29.3498 49.7985 29.2509 49.7985 29.1522C49.7985 28.5472 49.461 27.9817 48.8798 27.6605C48.8798 27.6605 46.7051 26.4856 45.9562 26.0809C45.9217 26.0623 45.9044 26.0227 45.9143 25.9856C45.9235 25.9473 45.9569 25.9216 45.9961 25.9216H49.2294C49.2294 25.9216 49.2529 25.9201 49.2773 25.9179C49.2831 25.9179 49.2893 25.9173 49.2949 25.9173C49.2976 25.9173 49.3001 25.9173 49.3029 25.9167H49.3106C50.2658 25.8805 50.9461 25.2813 51.1163 24.3247L51.8253 20.2627C51.9127 19.7622 51.9556 19.2551 51.9556 18.7481C51.9562 16.6571 51.2231 14.58 49.8832 12.9834C48.181 10.9574 45.6552 9.83941 42.76 9.83941C37.3285 9.83756 33.4025 13.4862 31.6954 16.6089L31.6216 16.5687L31.6954 16.6098V16.6098ZM38.15 27.9919C37.9039 27.6985 37.7779 27.3139 37.7779 26.8894C37.7779 26.7583 37.7899 26.6225 37.8134 26.4847C37.8134 26.4847 37.8748 26.1331 37.8995 25.9921C37.9069 25.9516 37.9415 25.9213 37.9826 25.9213H42.5015C42.5339 25.9213 42.563 25.9399 42.5772 25.9693C42.5914 25.9974 42.588 26.032 42.5682 26.0577C42.5315 26.1034 42.4997 26.1297 42.4814 26.1572C42.4645 26.1817 42.4484 26.2073 42.432 26.2339C41.5575 27.7109 40.5229 28.5459 39.4933 28.549H39.4893C38.9263 28.549 38.4569 28.3583 38.1497 27.9919H38.15ZM37.9798 26.5134C37.9582 26.6423 37.9468 26.7685 37.9468 26.8894C37.9468 27.2808 38.062 27.6243 38.2791 27.8831C38.5508 28.2058 38.9646 28.3793 39.4933 28.3805C40.4235 28.3836 41.4262 27.6036 42.2869 26.148C42.2983 26.1282 42.3104 26.1102 42.323 26.0911H38.053C38.0249 26.254 37.9798 26.514 37.9798 26.5134V26.5134Z" fill="#002596"/>
<path d="M52.2886 9.24911C51.2488 9.24911 50.4709 9.87242 50.3053 10.8371C50.2871 10.9351 50.2788 11.0309 50.2788 11.1246C50.2788 11.4335 50.3646 11.716 50.4474 11.9405L50.599 12.323C50.6197 12.3752 50.6225 12.3771 50.6494 12.4253C50.6494 12.4253 55.4799 21.3568 56.1713 22.6365C55.3718 23.8646 49.4564 32.9458 49.4564 32.9458C49.4091 33.0181 49.3684 33.0954 49.3347 33.1758L49.314 33.2243L49.1905 33.5369C49.1068 33.7778 49.0293 34.0477 49.0293 34.3476C49.0293 34.4329 49.0361 34.5207 49.05 34.6116C49.0518 34.6218 49.0537 34.6345 49.0559 34.6447C49.2297 35.6029 50.0079 36.2228 51.0366 36.2228H56.9304C57.6348 36.2228 58.2651 35.8106 58.5736 35.1468C58.5449 35.2102 58.5106 35.2714 58.4723 35.3289C58.4723 35.3289 59.7619 33.3817 60.8539 31.7307C62.3161 34.5721 65.7523 41.2463 65.7752 41.2921C65.7943 41.3347 65.8598 41.4757 65.8598 41.4757C65.8722 41.5023 65.8663 41.4912 65.8811 41.5178C65.8811 41.5178 65.9018 41.5576 65.92 41.5907C66.2529 42.1952 66.8647 42.5563 67.5611 42.5563H120.275C121.027 42.5482 121.653 42.1414 121.965 41.4677C122.007 41.3783 122.038 41.2856 122.059 41.1891C122.059 41.1891 122.652 38.5806 122.658 38.5571C122.73 38.3375 122.778 38.1162 122.778 37.9019C122.778 37.2894 122.492 36.7227 121.957 36.3554C121.42 35.9794 120.879 35.99 120.443 35.9995H73.4842C72.916 34.922 67.2294 24.1305 66.5661 22.8709C67.3613 21.6552 73.3097 12.5564 73.3097 12.5564C73.3406 12.5085 73.3758 12.4451 73.4011 12.3935C73.5571 12.0766 73.7442 11.6978 73.7442 11.2124C73.7442 11.0977 73.7325 10.9762 73.709 10.8491C73.5361 9.89468 72.7631 9.2788 71.7307 9.2788H65.8376C65.0992 9.2788 64.4507 9.69031 64.1413 10.3541C64.1715 10.2898 64.2052 10.2298 64.2435 10.172C64.2435 10.172 62.9109 12.1909 61.818 13.8469C60.8891 12.1962 59.7974 10.2567 59.7974 10.2567C59.7848 10.2338 59.8586 10.3696 59.8453 10.3482C59.8453 10.3482 59.6591 10.0545 59.6121 9.98125C59.2678 9.5249 58.7416 9.24973 58.1829 9.24973H52.2889L52.2886 9.24911ZM68.3961 40.2792L68.3992 40.2829L68.3961 40.2798V40.2792ZM59.5816 9.93364C59.5816 9.93364 59.6063 9.97259 59.6121 9.98094C59.6248 9.99825 59.6409 10.0103 59.6529 10.0273C59.6486 10.0224 59.5816 9.93147 59.5816 9.93364ZM59.6548 10.0301L59.6529 10.0273L59.6548 10.0301ZM73.7084 10.8488C73.7084 10.8534 73.7099 10.8587 73.7121 10.863C73.7099 10.8534 73.7084 10.8454 73.7062 10.8349C73.7068 10.8392 73.7068 10.8439 73.7084 10.8485V10.8488ZM65.9407 41.6287C65.9407 41.6287 65.929 41.608 65.92 41.5904C65.9185 41.5882 65.9157 41.5861 65.9142 41.583C65.9142 41.583 65.9413 41.6303 65.9407 41.6287Z" fill="#002596"/>
<path d="M67.5605 42.6407C66.8551 42.6414 66.2279 42.2818 65.8746 41.6811C65.8716 41.6783 65.8694 41.6743 65.8666 41.6709L65.841 41.6251C65.8379 41.6192 65.8367 41.6149 65.8342 41.6087C65.8194 41.5821 65.8064 41.5571 65.8064 41.5571C65.7931 41.5327 65.7947 41.5327 65.7835 41.5107C65.7835 41.5107 65.7187 41.3691 65.7002 41.3295C65.6767 41.2853 62.3421 34.8065 60.8453 31.8974C59.8895 33.3422 58.8117 34.9694 58.5853 35.3114C58.2453 35.9276 57.6218 36.3072 56.9304 36.3063H51.0366C49.9734 36.3085 49.1516 35.6576 48.9728 34.6596C48.9706 34.6479 48.9682 34.6352 48.9663 34.6244C48.9518 34.5301 48.9453 34.4373 48.9453 34.348C48.9453 34.0326 49.0262 33.754 49.1124 33.5064L49.2365 33.1926L49.2575 33.1431C49.2924 33.0584 49.3357 32.9758 49.3857 32.8998C49.3857 32.8998 55.1751 24.0121 56.0734 22.6332C55.692 21.927 54.3425 19.432 53.0767 17.0918C51.7827 14.6994 50.5774 12.4705 50.5746 12.4659C50.5512 12.421 50.5416 12.4084 50.5206 12.3546L50.368 11.9693C50.2843 11.7412 50.1948 11.4484 50.1939 11.1243C50.1939 11.0263 50.2031 10.9249 50.222 10.8223C50.3921 9.81776 51.2145 9.16106 52.2886 9.16384V9.33265C51.2827 9.33606 50.549 9.92659 50.3881 10.8523C50.3708 10.9447 50.3634 11.0359 50.3634 11.1247C50.3631 11.4181 50.4452 11.6908 50.5246 11.909L50.6768 12.2924C50.6975 12.3416 50.6945 12.3329 50.7232 12.3861C50.7232 12.3861 55.5537 21.3173 56.2454 22.5967C56.2599 22.6239 56.2587 22.6573 56.2417 22.683C55.8418 23.297 54.1634 25.8752 52.5847 28.2986C51.006 30.7219 49.5271 32.9928 49.5268 32.9928C49.483 33.0599 49.4437 33.1335 49.4129 33.209L49.3928 33.2569L49.2702 33.5657C49.1874 33.8029 49.1139 34.0632 49.1139 34.3486C49.1139 34.4296 49.1198 34.5137 49.1331 34.5978C49.1349 34.6095 49.1368 34.6207 49.1386 34.6309C49.3076 35.5485 50.0413 36.1353 51.0366 36.1381H56.9304C57.5279 36.1375 58.0699 35.8277 58.3902 35.3104C58.392 35.3009 58.3957 35.2913 58.4013 35.2823H58.4019C58.4275 35.2433 58.4519 35.2025 58.4732 35.1608C58.481 35.1453 58.4896 35.129 58.4967 35.1123C58.4982 35.1085 58.5004 35.1055 58.5023 35.1027C58.5106 35.0888 58.5233 35.0776 58.5381 35.0711H58.5396L58.5412 35.0705C58.5412 35.0705 58.5427 35.0699 58.5433 35.0699C58.9068 34.5193 59.9083 33.0092 60.7838 31.6853C60.7999 31.6603 60.8289 31.6454 60.8588 31.6476C60.8882 31.6492 60.9154 31.6668 60.9286 31.6927C62.3906 34.5335 65.8271 41.2074 65.8521 41.2575C65.8712 41.2989 65.9352 41.4402 65.9352 41.4402C65.9506 41.4727 65.9404 41.4498 65.9543 41.4779C65.9543 41.4779 65.9756 41.5184 65.9932 41.5503C66.3113 42.1281 66.8928 42.4722 67.5599 42.4722H120.272C120.995 42.4642 121.587 42.0787 121.888 41.4337C121.926 41.3496 121.956 41.2612 121.976 41.1706C121.976 41.1706 122.569 38.5642 122.578 38.5318C122.648 38.3172 122.693 38.1042 122.693 37.9023C122.692 37.3155 122.421 36.7781 121.909 36.4253C121.474 36.1223 121.043 36.0812 120.655 36.0812C120.583 36.0812 120.513 36.0818 120.443 36.084H73.4833C73.4524 36.084 73.4227 36.0664 73.4082 36.0382C72.84 34.9614 67.1541 24.1707 66.4901 22.9105C66.4762 22.8839 66.4784 22.8515 66.4954 22.8249C67.2896 21.6095 73.2381 12.5104 73.2381 12.5104C73.2668 12.4668 73.3014 12.4047 73.3242 12.3564C73.4811 12.0395 73.6584 11.6756 73.6584 11.2128C73.6584 11.1033 73.6473 10.988 73.6238 10.8637C73.4561 9.95008 72.7279 9.36605 71.7295 9.36295H65.8364C65.207 9.36326 64.6468 9.67461 64.3235 10.1922C64.3213 10.2011 64.3182 10.2101 64.3123 10.2181C64.279 10.2685 64.249 10.322 64.2234 10.3771C64.2212 10.3808 64.2191 10.3851 64.2175 10.3897C64.2101 10.4049 64.1978 10.4185 64.1829 10.4271H64.1823C64.1823 10.4271 64.1814 10.4284 64.1808 10.4284H64.1802C64.1802 10.4284 64.1774 10.4302 64.1758 10.4302C64.1758 10.4302 64.1752 10.4309 64.1743 10.4309L64.1737 10.4315C64.1737 10.4315 64.1721 10.4321 64.1715 10.4327C63.8012 10.9942 62.767 12.5605 61.8881 13.8937C61.8721 13.9187 61.844 13.9329 61.8146 13.9317C61.7859 13.9311 61.7581 13.9144 61.7439 13.8893C60.9478 12.4745 60.0318 10.8476 59.7873 10.412C59.7854 10.4098 59.7839 10.408 59.7826 10.4061L59.782 10.4049C59.7798 10.403 59.7783 10.4009 59.7767 10.3984C59.7755 10.3965 59.7746 10.3959 59.7737 10.3944C59.7737 10.3944 59.5871 10.1003 59.5448 10.0333C59.2156 9.597 58.7132 9.33389 58.1833 9.33389H52.2892V9.16508H58.1833C58.7376 9.1657 59.2601 9.42386 59.6217 9.85919C59.6251 9.86104 59.6273 9.8632 59.6288 9.86475C59.6307 9.8663 59.6322 9.86815 59.6344 9.86815C59.6427 9.87526 59.6492 9.88299 59.6538 9.89134C59.6501 9.88485 59.6464 9.88021 59.6424 9.87588C59.6443 9.87805 59.6458 9.87866 59.6464 9.88021C59.648 9.88206 59.6495 9.88361 59.6508 9.88454C59.6523 9.88732 59.6548 9.89103 59.6579 9.89412C59.6631 9.90154 59.6699 9.91082 59.677 9.92071C59.6918 9.93988 59.7091 9.96276 59.7153 9.97111C59.7162 9.97296 59.7171 9.97358 59.7187 9.97451C59.7193 9.97667 59.7202 9.9776 59.7215 9.97853L59.7221 9.97915V9.98069H59.7224L59.7243 9.98317C59.7332 9.99553 59.7375 10.0098 59.7388 10.0243C59.7693 10.0728 59.8061 10.1303 59.8385 10.181C59.8385 10.181 59.8407 10.1823 59.8413 10.1829C59.8524 10.19 59.8614 10.198 59.8675 10.2092C59.8688 10.2116 59.8688 10.2123 59.8688 10.2132C59.8688 10.2132 59.87 10.2147 59.87 10.216C59.87 10.216 59.8709 10.216 59.8716 10.2172C59.9046 10.2766 60.924 12.0884 61.8236 13.6853C62.7874 12.2241 63.9075 10.5267 64.132 10.1866C64.4757 9.57196 65.1177 9.19383 65.837 9.19414H71.7301C72.786 9.19229 73.5988 9.8292 73.7862 10.8081C73.7871 10.8118 73.7878 10.8155 73.7884 10.8195V10.821H73.7896C73.7902 10.8288 73.7927 10.8384 73.7939 10.8495C73.7946 10.8547 73.7946 10.8597 73.7946 10.8643C73.8159 10.9858 73.827 11.1012 73.827 11.2134C73.827 11.7201 73.6318 12.1143 73.4759 12.4312C73.4493 12.4857 73.4126 12.5515 73.3795 12.6035C73.3795 12.6035 67.5562 21.509 66.6631 22.8771C67.4153 24.304 72.8551 34.6281 73.5339 35.9158H97.4104C109 35.9158 120.442 35.9158 120.44 35.9164C120.509 35.9136 120.581 35.9121 120.655 35.9121C121.052 35.9121 121.532 35.9563 122.004 36.2871C122.561 36.669 122.862 37.2629 122.862 37.9029C122.86 38.1308 122.81 38.3599 122.739 38.5772C122.734 38.5992 122.14 41.2055 122.14 41.2077C122.118 41.31 122.085 41.409 122.04 41.5048C121.716 42.2057 121.056 42.6346 120.274 42.642H67.5596L67.5605 42.6407ZM59.8283 10.4327C59.8218 10.4312 59.815 10.4296 59.8107 10.4268H59.8092C59.8166 10.4296 59.8225 10.4312 59.8283 10.4327ZM59.7755 10.3959C59.7724 10.3916 59.7709 10.387 59.7696 10.3845C59.7715 10.3879 59.7734 10.3922 59.7755 10.3959ZM59.9299 10.3372C59.929 10.3344 59.9287 10.3307 59.9278 10.3273C59.9278 10.3273 59.9287 10.3307 59.929 10.3332C59.929 10.3332 59.9296 10.3353 59.9302 10.3372H59.9299ZM59.9241 10.3168C59.9241 10.3168 59.9231 10.3155 59.9225 10.3149C59.9225 10.3149 59.9231 10.3168 59.9241 10.3168ZM59.6603 9.90402V9.9034V9.90402ZM59.6594 9.9C59.6579 9.8966 59.6569 9.89567 59.6569 9.89443C59.6569 9.89443 59.6563 9.8932 59.6557 9.8932L59.6554 9.89134H59.6551C59.6566 9.89412 59.6582 9.8966 59.6594 9.89969V9.9ZM59.623 9.8598C59.623 9.8598 59.623 9.85949 59.622 9.85949C59.622 9.85949 59.623 9.85949 59.623 9.8598ZM68.3257 40.3241L68.3242 40.3213L68.3226 40.3191C68.3029 40.283 68.3124 40.2372 68.3449 40.2125C68.3785 40.1874 68.4264 40.1896 68.4567 40.2199L68.4699 40.2375V40.2369L68.4721 40.2406L68.473 40.2428C68.4943 40.2833 68.4804 40.3343 68.4391 40.3562C68.4264 40.3637 68.4125 40.3674 68.3992 40.3674C68.369 40.3674 68.3412 40.3525 68.3257 40.3247V40.3241ZM68.3368 40.3389L68.3869 40.2894L68.3368 40.3389ZM59.6415 9.87372C59.6415 9.87372 59.6384 9.87001 59.6341 9.86661C59.6341 9.86661 59.631 9.86475 59.6288 9.8632C59.6332 9.86568 59.6378 9.86908 59.6424 9.87433C59.6424 9.87433 59.6421 9.87434 59.6415 9.87372Z" fill="#002596"/>
<path d="M39.5732 18.7109C40.1909 18.0576 40.9731 17.5879 41.9215 17.5879C42.8699 17.5879 43.4273 18.0826 43.7645 18.7109H39.5732Z" fill="white"/>
<path d="M112.436 27.6276C112.459 27.4897 112.64 27.323 112.727 27.3076H116.678C115.967 27.9312 115.042 28.475 114.322 28.475H112.265C112.313 28.1986 112.435 27.6272 112.435 27.6272L112.436 27.6276Z" fill="white"/>
<path d="M94.3574 35.0286C94.6866 35.018 94.8589 34.8672 94.916 34.5302L97.2161 21.3854C97.272 21.0627 97.3671 20.7532 97.4959 20.4576C98.1592 18.9352 99.7095 17.8735 101.436 17.8735C102.489 17.8735 102.86 18.3252 103.162 18.3252C103.173 18.3252 103.18 18.3199 103.19 18.319C103.434 18.3057 103.698 18.1109 103.758 17.7724L104.644 12.7068C104.683 12.4558 104.571 12.2566 104.33 12.2044C103.945 12.1042 103.451 12.0535 102.953 12.0535C101.348 12.0535 99.48 13.0076 98.8816 13.5598C98.763 13.6594 98.7077 13.7101 98.5023 13.7101C98.297 13.7101 98.1389 13.5107 98.1938 13.2083L98.313 12.5058C98.3881 12.1042 98.2432 12.0535 97.8927 12.0535H93.6354C93.2849 12.0535 93.1061 12.2044 93.0455 12.5559L93.014 12.7189L89.2063 34.5302C89.1452 34.878 89.2696 35.0298 89.6223 35.0298H94.3296C94.3401 35.0298 94.3475 35.0283 94.3577 35.0283L94.3574 35.0286Z" fill="#DC281D"/>
<path d="M94.3291 35.5319H89.6218C89.4171 35.5291 89.1935 35.5025 88.9823 35.338C88.7652 35.1686 88.6833 34.8875 88.6898 34.6844C88.6898 34.5997 88.6994 34.5199 88.7133 34.4442L92.5225 12.627L92.5513 12.4715C92.5917 12.2309 92.6905 11.9746 92.9086 11.7904C93.1241 11.6061 93.3943 11.5508 93.6352 11.5517H97.8926C98.0161 11.5538 98.1378 11.5538 98.2909 11.5943C98.4389 11.6268 98.6563 11.7551 98.7517 11.9607C98.8165 12.0918 98.832 12.2186 98.832 12.3293C98.832 12.4202 98.8218 12.507 98.8063 12.5902L98.7319 13.0333C99.117 12.7334 99.6788 12.4171 100.349 12.137C101.134 11.8123 102.051 11.5545 102.953 11.5517C103.481 11.5529 104.002 11.6036 104.445 11.7165C104.643 11.7594 104.838 11.8738 104.966 12.043C105.097 12.2115 105.153 12.4186 105.152 12.6115C105.152 12.6675 105.148 12.7259 105.139 12.7841L105.137 12.7936L104.251 17.8595C104.153 18.4012 103.735 18.7614 103.279 18.814C103.248 18.8211 103.208 18.8273 103.162 18.8273C102.958 18.8245 102.821 18.7614 102.706 18.7122C102.592 18.66 102.495 18.6084 102.383 18.5598C102.16 18.4671 101.892 18.3762 101.436 18.3752C99.9172 18.3731 98.5361 19.3179 97.9543 20.6591C97.8404 20.9185 97.757 21.1897 97.7091 21.4726L95.41 34.6148C95.3711 34.8492 95.2744 35.0962 95.07 35.278C94.8695 35.4549 94.6172 35.5198 94.3884 35.5288C94.3767 35.5297 94.3575 35.5325 94.3331 35.5325H94.3294L94.3291 35.5319ZM94.3609 35.1584L94.3572 35.0285L94.36 35.1442L94.3606 35.1584H94.3609ZM94.3103 34.5295C94.3183 34.5289 94.3285 34.5273 94.3405 34.5273C94.3693 34.5267 94.3912 34.5236 94.4048 34.5199C94.41 34.506 94.4171 34.481 94.4245 34.4442L96.7221 21.3001C96.7848 20.9359 96.8929 20.5865 97.0365 20.2572C97.7814 18.5524 99.5021 17.3754 101.436 17.3723C101.96 17.3713 102.366 17.4755 102.663 17.5918C102.909 17.6904 103.094 17.7894 103.163 17.8187C103.176 17.8159 103.248 17.7906 103.265 17.6861L104.141 12.674C103.821 12.5979 103.388 12.5537 102.953 12.5553C102.249 12.5531 101.43 12.7711 100.731 13.0623C100.034 13.3477 99.4407 13.7203 99.2208 13.9283L99.2023 13.9438C99.1485 13.9871 99.0735 14.061 98.9357 14.1268C98.7959 14.193 98.6414 14.2125 98.5022 14.2115C98.2702 14.2131 98.0442 14.1036 97.9 13.9342C97.752 13.7654 97.6813 13.5453 97.6823 13.3239C97.6813 13.2587 97.6881 13.1885 97.7014 13.1167L97.7971 12.555H93.6355C93.5981 12.5543 93.5737 12.5571 93.5589 12.5593C93.5537 12.5747 93.5447 12.6035 93.5376 12.6477L93.5083 12.8054L89.7148 34.5289H94.3109L94.3103 34.5295Z" fill="#111211"/>
<path d="M89.1433 11.5808C89.0806 11.5756 89.013 11.5518 88.929 11.5518H85.6203C85.2729 11.5518 85.1469 11.4021 85.2124 11.0521L85.7858 7.7399C85.8507 7.39083 85.7256 7.24026 85.3742 7.24026H81.4565C81.107 7.24026 80.9272 7.39114 80.8655 7.7399L80.8126 8.01847L80.8065 8.03331L80.6681 8.79234L80.2484 11.0521C80.1833 11.3904 80.0116 11.5378 79.6852 11.5477C79.675 11.5477 79.6642 11.5518 79.6558 11.5518H76.3493C75.9988 11.5518 75.8243 11.7045 75.7573 12.0542L75.7243 12.219L74.9661 16.3177C74.9448 16.4173 74.9476 16.4971 74.9587 16.5663C74.9927 16.7398 75.1221 16.8214 75.3731 16.8214H77.9944C78.0299 16.8214 78.0558 16.8285 78.087 16.8322C78.356 16.8638 78.4579 17.0097 78.402 17.3226L76.8613 26.153C76.2208 29.8134 77.5154 32.7234 80.7246 34.1295C82.1236 34.7303 83.8752 35.0302 84.8282 35.0302C84.8384 35.0302 84.848 35.0286 84.8575 35.0265V35.0286C85.1413 35.0153 85.3569 34.8651 85.4159 34.5302L86.1697 30.2163C86.2188 29.9142 86.107 29.7107 85.8059 29.7107C83.2341 29.5138 82.2539 27.958 82.5677 26.153L84.0148 17.8803L84.112 17.3229C84.1735 16.9717 84.3517 16.8217 84.7028 16.8217H88.0065C88.0192 16.8217 88.0251 16.8183 88.0421 16.8183C88.3638 16.8069 88.5389 16.6578 88.597 16.3208C88.597 16.3208 89.3419 12.0468 89.3419 12.0434C89.3419 12.0434 89.4919 11.6102 89.1424 11.5811L89.1433 11.5808Z" fill="#DC281D"/>
<path d="M80.524 34.5876C79.1083 33.9684 78.0139 33.0523 77.2872 31.9083C76.5584 30.7631 76.2014 29.3993 76.2014 27.9069C76.2014 27.3136 76.2573 26.698 76.3685 26.0658L77.8944 17.3222H75.3732C75.195 17.321 75.0088 17.2975 74.821 17.1843C74.6305 17.0733 74.4986 16.8516 74.4668 16.6637L74.4647 16.6497C74.4551 16.5938 74.4492 16.5289 74.4492 16.4615C74.4492 16.3848 74.4582 16.3035 74.4752 16.22L75.2342 12.1203L75.2651 11.9586C75.3102 11.723 75.4087 11.4726 75.623 11.2898C75.838 11.1062 76.1082 11.049 76.3497 11.0511H79.621C79.6343 11.049 79.65 11.0484 79.6695 11.0474C79.7003 11.0459 79.7213 11.0431 79.734 11.04C79.7402 11.0261 79.7491 10.9995 79.7572 10.9599L80.1768 8.70262L80.314 7.94266C80.3189 7.9204 80.3238 7.9 80.3309 7.87928L80.3729 7.6508C80.4143 7.41242 80.5156 7.15766 80.7315 6.97494C80.947 6.79283 81.2166 6.73749 81.4572 6.73841H85.3748C85.5753 6.74058 85.7945 6.76562 86.0073 6.9264C86.2244 7.09119 86.3106 7.37378 86.3032 7.57876C86.3032 7.66533 86.2936 7.74788 86.2788 7.82487L85.7207 11.0508H88.929C89.0637 11.0508 89.1588 11.0765 89.1838 11.0802L89.1844 11.0808L89.1433 11.5801L89.1088 12.0043L89.1433 11.5801L89.1844 11.0808C89.3892 11.0898 89.626 11.211 89.7418 11.3912C89.8589 11.5665 89.8743 11.7292 89.8759 11.8476C89.8737 11.9914 89.8484 12.0959 89.8317 12.1549C89.8305 12.1617 89.8289 12.1685 89.828 12.1772C89.8221 12.2084 89.8147 12.2545 89.8045 12.3135C89.7838 12.4307 89.7545 12.598 89.7199 12.7989C89.6492 13.1996 89.5565 13.7342 89.463 14.2694C89.2768 15.3382 89.0905 16.4064 89.0905 16.4043C89.0522 16.6395 88.9543 16.8872 88.7502 17.0674C88.5538 17.2421 88.3055 17.3077 88.081 17.3173C88.0603 17.3203 88.0347 17.3222 88.0072 17.3222H84.7035C84.6667 17.3222 84.6408 17.3253 84.6269 17.3278C84.621 17.3432 84.6136 17.3698 84.6062 17.4085L84.5083 17.9665L83.0609 26.2389C83.0285 26.4275 83.0118 26.6112 83.0118 26.7886C83.0161 27.4379 83.2224 27.9725 83.6566 28.3933C84.0896 28.8097 84.7856 29.126 85.8251 29.2098C86.0385 29.2113 86.2809 29.2843 86.4517 29.4649C86.6277 29.6507 86.6827 29.8878 86.6821 30.0848C86.6821 30.1546 86.6762 30.2264 86.6639 30.3015L85.91 34.6186C85.8668 34.8736 85.743 35.1191 85.5428 35.2842C85.3471 35.4493 85.1083 35.5186 84.8872 35.5282C84.8712 35.5297 84.852 35.5319 84.8292 35.5319C83.7829 35.5266 82.0125 35.2224 80.5246 34.5876H80.524ZM78.6911 16.5808C78.8616 16.7512 78.9212 16.9877 78.9166 17.1732C78.9166 17.2554 78.9082 17.3315 78.8956 17.4088L77.354 26.2383C77.2524 26.8183 77.2023 27.377 77.2023 27.9069C77.2039 29.2426 77.5173 30.4032 78.1309 31.3697C78.7458 32.3347 79.6639 33.115 80.9223 33.6678C82.2184 34.2296 83.9293 34.5264 84.798 34.5295C84.8193 34.5267 84.8397 34.5252 84.8607 34.5252C84.8841 34.5224 84.8965 34.5171 84.899 34.5162C84.899 34.5162 84.9011 34.5147 84.903 34.5097C84.9076 34.5017 84.9172 34.4804 84.9243 34.4442L85.6633 30.2023C84.5006 30.0968 83.5899 29.7187 82.9633 29.1174C82.316 28.5005 82.0069 27.6602 82.0106 26.7889C82.0106 26.5502 82.0313 26.3085 82.0748 26.0651L83.5223 17.7934L83.6201 17.2366C83.66 16.9979 83.7579 16.7413 83.975 16.5579C84.1921 16.3733 84.462 16.3183 84.7032 16.3198H87.9745C87.993 16.3177 88.0143 16.3158 88.0341 16.3158C88.0575 16.3149 88.073 16.3134 88.0847 16.3112C88.09 16.2964 88.0965 16.2713 88.1032 16.2345C88.1032 16.2345 88.2879 15.1768 88.4729 14.1129C88.6276 13.2305 88.7836 12.3345 88.8321 12.0538H85.62C85.4206 12.0516 85.2004 12.0266 84.9885 11.864C84.7723 11.6986 84.6865 11.4169 84.6948 11.2116C84.6948 11.1263 84.7047 11.0422 84.7189 10.9667L85.2766 7.74139H81.4569C81.4195 7.74139 81.3951 7.7451 81.3797 7.74757C81.3735 7.76303 81.3646 7.78962 81.3581 7.83167L81.3053 8.11055C81.3012 8.13126 81.2966 8.15043 81.2904 8.1696L81.1614 8.88442L80.7407 11.1473C80.6966 11.3792 80.5987 11.6213 80.3949 11.8006C80.1991 11.9722 79.9539 12.0374 79.7321 12.0479C79.7145 12.0501 79.6902 12.0532 79.6565 12.0538H76.35C76.3132 12.0538 76.2888 12.0563 76.2734 12.0591C76.2675 12.0745 76.258 12.1048 76.2484 12.1518L76.2175 12.3095L75.4754 16.3198H77.9951C78.046 16.3198 78.0902 16.3257 78.118 16.3297C78.1349 16.3322 78.1445 16.3338 78.1476 16.3347C78.3199 16.3554 78.5241 16.4129 78.6921 16.5811L78.6911 16.5808ZM89.1016 12.0807L89.1075 12.0133L89.1016 12.0807Z" fill="#111211"/>
<path d="M44.8412 19.2293C44.7954 19.4763 44.5611 19.6782 44.2102 19.6782H38.247C37.8959 19.6782 37.7316 19.4763 37.7767 19.2293C37.7841 19.1798 37.8017 19.1223 37.8267 19.0561C38.1176 18.2498 39.5675 16.3202 41.8419 16.3202C44.347 16.3202 44.9458 18.6254 44.8412 19.2293ZM36.6201 25.5554L36.7162 24.9967C36.7792 24.6458 36.9564 24.4961 37.3048 24.4961H49.2297C49.2421 24.4961 49.2504 24.4918 49.2637 24.4918C49.5898 24.4816 49.7587 24.3357 49.8183 23.9928L50.5283 19.9296C51.255 15.7683 48.4222 11.0515 42.7603 11.0515C38.3183 11.0515 34.6165 13.9077 32.8507 17.1364C32.3464 18.0559 32.0024 19.006 31.8406 19.9296L30.7526 26.1524C29.8435 31.3664 32.8612 35.0295 38.5697 35.0295C42.929 35.0295 45.4591 33.1735 47.4593 30.6151C47.585 30.4589 47.7045 30.3012 47.8194 30.1494C47.8209 30.1176 47.8209 30.0851 47.8169 30.0551C47.8209 30.0854 47.8209 30.1179 47.8194 30.1494C48.173 29.6755 48.4475 29.2627 48.4753 29.1087C48.5025 28.9585 48.4274 28.8104 48.2434 28.7093L44.8106 26.8542C44.4431 26.6539 44.1695 26.5042 44.0191 26.5042C43.8687 26.5042 43.7035 26.6038 43.5664 26.802C42.2882 28.9585 40.7923 29.7627 39.494 29.7627C37.4379 29.7627 36.1757 28.1073 36.5164 26.1524L36.6201 25.5554V25.5554Z" fill="#DC281D"/>
<path d="M38.5698 35.5316C35.9606 35.5325 33.8322 34.7902 32.3557 33.4434C30.8774 32.1004 30.0881 30.1671 30.0918 27.9286C30.0918 27.3294 30.1474 26.7064 30.2592 26.0646L31.3472 19.843C31.5201 18.8576 31.8839 17.8575 32.4113 16.8953C34.2562 13.5268 38.0929 10.5574 42.7598 10.55C45.4233 10.5469 47.5427 11.5561 48.9686 13.0772C50.3965 14.5987 51.1398 16.6136 51.1405 18.6279C51.1405 19.0923 51.1009 19.5558 51.0206 20.0152L50.3113 24.0778C50.2711 24.3115 50.1785 24.5583 49.9731 24.7413C49.7773 24.9154 49.5321 24.98 49.3113 24.9911C49.2891 24.9939 49.2613 24.997 49.2304 24.997H37.3045C37.2693 24.997 37.2446 24.9992 37.2301 25.0022C37.2242 25.0177 37.2162 25.0443 37.2091 25.0817L37.1131 25.6398L36.6199 25.5541L37.1125 25.641L37.0093 26.238C36.9769 26.4229 36.9611 26.6038 36.9611 26.7797C36.9621 27.4939 37.2147 28.1049 37.6464 28.5442C38.0797 28.9804 38.6967 29.2578 39.4931 29.2599C40.5731 29.2578 41.9065 28.606 43.1347 26.5454L43.1538 26.5151C43.353 26.2291 43.6424 26.008 44.0185 26.0021C44.2532 26.0102 44.3839 26.0794 44.5441 26.1481C44.7001 26.222 44.865 26.3125 45.0478 26.4121L48.4837 28.2693C48.7536 28.4088 48.9843 28.705 48.9809 29.0485C48.9809 29.0985 48.9769 29.1471 48.9673 29.1975C48.9395 29.3338 48.8997 29.4074 48.8549 29.5005C48.8092 29.5883 48.7542 29.6795 48.6906 29.7791C48.564 29.9772 48.4022 30.2057 48.2197 30.4497C48.2178 30.4512 48.2157 30.454 48.2135 30.4565C48.1005 30.6067 47.9788 30.7675 47.8534 30.9236C46.8266 32.2364 45.6435 33.3952 44.1396 34.2213C42.6381 35.0468 40.8241 35.531 38.5787 35.531H38.5691L38.5698 35.5316ZM33.2896 17.3779C32.8094 18.2535 32.4848 19.1541 32.3341 20.0158L31.2459 26.238C31.1436 26.8261 31.0933 27.3916 31.0933 27.9289C31.0967 29.9411 31.7789 31.559 33.0299 32.702C34.2828 33.8454 36.1437 34.5286 38.5698 34.5293C40.6796 34.5286 42.3074 34.0834 43.6591 33.3426C45.0089 32.6012 46.091 31.5522 47.0687 30.3016C47.1549 30.1946 47.2389 30.0848 47.3216 29.9766C47.3476 29.8137 47.451 29.6752 47.598 29.6044C47.6765 29.4946 47.7478 29.3913 47.8074 29.3008C47.8553 29.2284 47.8963 29.1629 47.9272 29.1091L44.5701 27.2936C44.3366 27.1609 44.1263 27.0586 44.0334 27.0203C44.0201 27.0314 44.004 27.0496 43.9855 27.0747C42.6597 29.3168 41.006 30.2654 39.4931 30.2638C38.4583 30.2654 37.559 29.8857 36.9343 29.2488C36.3074 28.6141 35.959 27.7341 35.9603 26.7803C35.9603 26.546 35.9809 26.3057 36.0226 26.0655L36.1264 25.4691H36.1267L36.2231 24.9089C36.2651 24.6686 36.3636 24.4157 36.5794 24.2321C36.7953 24.0494 37.0646 23.9934 37.3045 23.994H49.1894C49.206 23.9925 49.2258 23.9903 49.2471 23.9903C49.2727 23.9897 49.2928 23.9875 49.3052 23.9844C49.3107 23.969 49.3184 23.9433 49.3243 23.9056L50.034 19.843C50.1038 19.4423 50.1387 19.0351 50.1387 18.6282C50.1393 16.8597 49.4824 15.0866 48.2391 13.7649C46.9943 12.4437 45.1735 11.5552 42.7595 11.5521H42.7425C38.5318 11.5524 34.973 14.2914 33.289 17.3776L33.2896 17.3779ZM44.2103 20.1809H38.2467C38.0071 20.1809 37.7665 20.1182 37.5717 19.9583C37.3753 19.8006 37.2644 19.5425 37.2687 19.3069C37.2687 19.2552 37.2733 19.1993 37.2835 19.1439C37.2996 19.0447 37.3274 18.9631 37.3558 18.8845C37.5485 18.3685 38.0151 17.6522 38.7656 17.005C39.5123 16.366 40.5589 15.819 41.842 15.819C43.1523 15.8119 44.0831 16.4065 44.6152 17.1046C45.1534 17.8077 45.3471 18.5618 45.3526 19.0784C45.3526 19.1594 45.3474 19.2361 45.335 19.3134L44.8394 19.2293L45.3341 19.3192C45.2451 19.8257 44.7659 20.1809 44.2328 20.1809H44.2109H44.2103ZM44.1371 19.1773H44.2103C44.3227 19.1742 44.3449 19.1408 44.3483 19.1371C44.3502 19.1254 44.3517 19.1041 44.3517 19.0781C44.3576 18.8289 44.2106 18.204 43.8255 17.7205C43.4352 17.2304 42.8602 16.8285 41.8423 16.8214C40.8513 16.8214 40.0351 17.2403 39.4156 17.7678C38.8347 18.2572 38.4431 18.8635 38.3156 19.1773H44.1371V19.1773Z" fill="#111211"/>
<path d="M64.9413 22.688L72.1367 11.6818C72.292 11.3674 72.3714 11.2082 72.3313 10.9967C72.2849 10.7348 72.1015 10.5759 71.7306 10.5759H65.8375C65.6275 10.5759 65.487 10.6795 65.4135 10.839L61.7231 16.4321L58.5763 10.839C58.5571 10.7991 58.5343 10.7617 58.5062 10.7283C58.4274 10.6164 58.3125 10.5471 58.1828 10.5471H52.2887C51.9179 10.5471 51.7323 10.7042 51.6866 10.9686C51.6696 11.0629 51.7072 11.1989 51.7631 11.3501C51.7977 11.4469 51.8376 11.5495 51.8823 11.6518L57.8027 22.5971L50.631 33.6066C50.5884 33.7099 50.5449 33.8116 50.5097 33.9087C50.4575 34.0583 50.4213 34.194 50.4358 34.2883C50.484 34.5552 50.6665 34.7122 51.0371 34.7122H56.9309C57.0902 34.7122 57.2301 34.6077 57.3049 34.4485L61.0063 28.8558L67.0366 40.5705L67.1336 40.7829C67.1388 40.791 67.1416 40.7993 67.1453 40.8052C67.2262 40.9533 67.3608 41.0476 67.5613 41.0476H120.275C120.45 41.0454 120.605 40.9629 120.693 40.7718L121.294 38.128C121.371 37.7409 121.385 37.5598 121.164 37.408C120.989 37.2843 120.811 37.2892 120.462 37.2967H72.8698C72.7448 37.2886 72.6447 37.2413 72.5709 37.1683L64.941 22.688H64.9413Z" fill="#FDDF00"/>
<path d="M67.0478 41.4099C66.8946 41.3171 66.7807 41.1829 66.7041 41.0423C66.6988 41.0321 66.6961 41.0268 66.6951 41.024L66.6945 41.0225V41.0219L66.6791 40.9925L66.5855 40.789L60.9524 29.8444L57.7407 34.6958C57.5992 34.9765 57.3059 35.2133 56.931 35.2146H51.0372C50.7843 35.2146 50.5311 35.1608 50.3177 35.0037C50.103 34.8482 49.9801 34.6005 49.9415 34.3711C49.9335 34.321 49.9316 34.2784 49.9316 34.2437C49.9357 34.0338 49.9888 33.8922 50.0397 33.7367C50.0817 33.6223 50.128 33.5147 50.1691 33.4155L50.212 33.3329L57.2203 22.5741L51.4424 11.8908L51.4248 11.8543C51.3732 11.7377 51.33 11.6243 51.2932 11.5241C51.2419 11.3766 51.1861 11.2331 51.1817 11.0201C51.1817 10.9756 51.1854 10.9286 51.1935 10.8841C51.2281 10.659 51.3534 10.4098 51.5693 10.2549C51.783 10.0985 52.0356 10.0456 52.2888 10.0462H58.1829C58.4917 10.0447 58.7558 10.215 58.9059 10.4268C58.9522 10.4849 58.9889 10.5443 59.0176 10.6024L61.7559 15.4711L64.9778 10.5894C65.0476 10.4519 65.156 10.3208 65.3002 10.228C65.4577 10.1241 65.6501 10.074 65.8363 10.0753H71.7304C71.9845 10.0753 72.2368 10.1285 72.4496 10.2852C72.6655 10.4404 72.789 10.6884 72.823 10.9039C72.8347 10.9676 72.8421 11.0347 72.8406 11.1033C72.8421 11.2656 72.8017 11.4128 72.7538 11.5368C72.7053 11.662 72.6491 11.773 72.5858 11.9025L72.5549 11.956L65.5213 22.716L72.94 36.7954H120.462C120.535 36.7932 120.603 36.7923 120.667 36.7923C120.792 36.7923 120.914 36.7954 121.049 36.8232C121.184 36.8504 121.331 36.9104 121.448 36.9942C121.561 37.0709 121.677 37.1843 121.75 37.3287C121.824 37.4731 121.847 37.6258 121.845 37.7526C121.845 37.9205 121.816 38.0643 121.785 38.2266L121.782 38.2389L121.182 40.8827L121.147 40.9814C121.069 41.1533 120.942 41.3057 120.782 41.4052C120.623 41.5048 120.443 41.5468 120.275 41.5484H67.5555C67.3795 41.5484 67.1985 41.502 67.0475 41.4099H67.0478ZM67.5858 40.5674L67.5851 40.5658L67.5858 40.5674ZM74.0107 40.546H120.231L120.804 38.0216C120.824 37.9267 120.836 37.8512 120.841 37.8036C120.816 37.7993 120.76 37.794 120.668 37.794C120.613 37.794 120.55 37.7947 120.477 37.7971H72.8705L72.8366 37.7956C72.6068 37.7838 72.3771 37.6843 72.2196 37.5251C72.1834 37.4883 72.1525 37.4484 72.1291 37.402L64.4985 22.9216L64.9417 22.6879L65.3604 22.9628L64.9417 22.6879L64.4985 22.9216C64.4136 22.7609 64.4226 22.5664 64.5229 22.4137L71.7017 11.4329C71.7585 11.3163 71.7996 11.2301 71.8193 11.1763C71.8428 11.1166 71.8406 11.1055 71.8406 11.1033C71.8406 11.1033 71.8406 11.0999 71.8385 11.0869C71.8184 11.0817 71.7826 11.0767 71.731 11.0767H65.8518L65.8305 11.115L62.141 16.7075C62.0453 16.8531 61.8798 16.9384 61.7059 16.9322C61.532 16.926 61.3724 16.8293 61.2871 16.6781L58.1409 11.0847L58.1258 11.0557C58.1245 11.0523 58.1236 11.0507 58.1224 11.0498L58.1208 11.048H52.2895C52.2462 11.0473 52.2147 11.0514 52.1931 11.0554C52.2011 11.0854 52.2153 11.1274 52.2342 11.1784C52.2644 11.2625 52.2969 11.3472 52.3315 11.4282L58.2431 22.3589C58.3299 22.5203 58.3219 22.7173 58.2227 22.8712L51.0758 33.8409C51.0391 33.9302 51.0057 34.0097 50.9832 34.0746C50.9649 34.1247 50.9507 34.1711 50.9427 34.2035C50.9634 34.2079 50.9958 34.2116 51.0381 34.2116H56.8652L56.8884 34.1711L60.5904 28.579C60.6883 28.4309 60.8585 28.3446 61.0351 28.3548C61.2127 28.3644 61.3718 28.4683 61.4527 28.626L67.4826 40.3407L67.4934 40.3615L67.5768 40.5457H74.0119L74.0107 40.546Z" fill="#111211"/>
<path d="M94.3574 34.5315C94.6866 34.5213 94.8589 34.3723 94.916 34.0331L97.2161 20.89C97.272 20.5662 97.3671 20.2561 97.4959 19.9618C98.1592 18.4382 99.7095 17.3777 101.436 17.3777C102.489 17.3777 102.86 17.8294 103.162 17.8294C103.173 17.8294 103.18 17.8251 103.19 17.8229C103.433 17.8096 103.698 17.6142 103.758 17.276L104.644 12.211C104.683 11.9603 104.571 11.7599 104.33 11.7083C103.945 11.6081 103.451 11.5571 102.953 11.5571C101.348 11.5571 99.48 12.5115 98.8815 13.0634C98.763 13.1633 98.7077 13.2149 98.5023 13.2149C98.297 13.2149 98.1388 13.0149 98.1938 12.7137L98.313 12.0097C98.3881 11.6081 98.2432 11.5571 97.8927 11.5571H93.6354C93.2849 11.5571 93.1061 11.7083 93.0455 12.0589L93.014 12.2228L89.2063 34.0328C89.1452 34.3816 89.2696 34.5349 89.6223 34.5349H94.3296C94.3401 34.5349 94.3475 34.5318 94.3577 34.5312L94.3574 34.5315Z" fill="#DC281D"/>
<path d="M89.1433 11.0853C89.0831 11.0665 89.013 11.0559 88.929 11.0559H85.6203C85.2729 11.0559 85.1469 10.906 85.2124 10.5557L85.7858 7.24378C85.8507 6.89441 85.7256 6.74384 85.3742 6.74384H81.4565C81.107 6.74384 80.9272 6.89441 80.8655 7.24378L80.8127 7.52204L80.8065 7.53688L80.6681 8.29653L80.2484 10.556C80.1833 10.8952 80.0116 11.042 79.6852 11.0529C79.675 11.0529 79.6642 11.0563 79.6558 11.0563H76.3493C75.9988 11.0563 75.8243 11.2093 75.7573 11.5577L75.7243 11.7228L74.9661 15.8222C74.9448 15.9221 74.9476 16.0013 74.9587 16.0714C74.9927 16.243 75.1221 16.3256 75.3731 16.3256H77.9944C78.0299 16.3256 78.0558 16.333 78.087 16.3367C78.356 16.3676 78.4579 16.5136 78.402 16.8274L76.8613 25.6563C76.2209 29.3173 77.5154 32.2279 80.7246 33.6328C82.1236 34.2351 83.8752 34.5356 84.8282 34.5356C84.8384 34.5356 84.848 34.5319 84.8575 34.5312V34.5319C85.1413 34.5201 85.3569 34.3699 85.4159 34.0335L86.1697 29.7195C86.2188 29.4174 86.107 29.2162 85.8059 29.2162C83.2341 29.0186 82.2539 27.4628 82.5677 25.6563L84.0148 17.3851L84.1121 16.8277C84.1735 16.4758 84.3517 16.3262 84.7028 16.3262H88.0065C88.0192 16.3262 88.0251 16.3219 88.0421 16.3219C88.3639 16.3123 88.539 16.163 88.597 15.8253C88.597 15.8253 89.3413 11.5506 89.3419 11.5475C89.4302 11.0819 89.1424 11.0862 89.1424 11.0862L89.1433 11.0853Z" fill="#DC281D"/>
<path d="M44.8411 18.7342C44.7954 18.9812 44.561 19.1831 44.2102 19.1831H38.247C37.8959 19.1831 37.7316 18.9812 37.7767 18.7342C37.7841 18.6841 37.8017 18.6263 37.8267 18.5595C38.1176 17.7553 39.5675 15.8245 41.8419 15.8245C44.347 15.8245 44.9458 18.1297 44.8411 18.7339V18.7342ZM36.6201 25.0593L36.7162 24.5016C36.7792 24.1507 36.9564 24.0004 37.3048 24.0004H49.2297C49.2421 24.0004 49.2504 23.9961 49.2637 23.9961C49.5898 23.9849 49.7587 23.8412 49.8183 23.498L50.5283 19.4344C51.255 15.2729 48.4222 10.5558 42.7603 10.5558C38.3183 10.5558 34.6165 13.412 32.8507 16.6416C32.3464 17.5608 32.0024 18.5109 31.8406 19.4344L30.7526 25.656C29.8435 30.8716 32.8612 34.5357 38.5697 34.5357C42.9289 34.5357 45.4591 32.679 47.4593 30.1206C47.585 29.9645 47.7045 29.8058 47.8194 29.654C47.8209 29.6225 47.8209 29.59 47.8169 29.5604C47.8209 29.5897 47.8209 29.6222 47.8194 29.654C48.173 29.1801 48.4475 28.7673 48.4753 28.614C48.5025 28.4637 48.4274 28.3153 48.2434 28.2145L44.8106 26.3585C44.4431 26.1582 44.1695 26.0091 44.0191 26.0091C43.8687 26.0091 43.7035 26.1071 43.5663 26.3063C42.2882 28.4637 40.7922 29.2669 39.494 29.2669C37.4379 29.2669 36.1757 27.6122 36.5164 25.656L36.6201 25.0596V25.0593Z" fill="#DC281D"/>
<path d="M64.9413 22.1926L72.1367 11.1861C72.292 10.8714 72.3714 10.7125 72.3313 10.5013C72.2849 10.2382 72.1015 10.0796 71.7306 10.0796H65.8375C65.6275 10.0796 65.487 10.1835 65.4135 10.343L61.7231 15.936L58.5763 10.343C58.5571 10.3028 58.5343 10.266 58.5062 10.2329C58.4274 10.121 58.3125 10.0505 58.1828 10.0505H52.2887C51.9179 10.0505 51.7323 10.2082 51.6866 10.4732C51.6696 10.5678 51.7072 10.7038 51.7631 10.8535C51.7977 10.9508 51.8376 11.0541 51.8823 11.1561L57.8027 22.1023L50.631 33.11C50.5884 33.2139 50.5449 33.3162 50.5097 33.412C50.4575 33.5632 50.4213 33.6996 50.4358 33.7923C50.484 34.0585 50.6665 34.2178 51.0371 34.2178H56.9309C57.0902 34.2178 57.2301 34.1117 57.3049 33.9525L61.0063 28.3598L67.0366 40.0755L67.1336 40.2879C67.1388 40.2965 67.1416 40.3033 67.1453 40.3107C67.2262 40.4573 67.3609 40.5516 67.5613 40.5516H120.275C120.45 40.5501 120.605 40.4675 120.694 40.2767L121.294 37.633C121.366 37.2437 121.385 37.0641 121.164 36.9113C120.989 36.7889 120.811 36.7941 120.462 36.8006H72.8698C72.7448 36.7926 72.6447 36.7462 72.5709 36.673L64.941 22.1926H64.9413Z" fill="#FDDF00"/>
<path d="M151.043 26.8286L151.636 26.8351C144.237 26.8351 137.695 30.5051 133.725 36.1266C133.528 36.4361 132.447 38.0503 132.274 38.1535C128.255 43.1492 122.096 46.3474 115.19 46.3474H40.7224C33.7509 46.3474 27.5396 43.089 23.5235 38.0104C23.3703 37.9176 22.4516 36.5325 22.3805 36.4243C18.4326 30.6352 11.7915 26.8351 4.26227 26.8351L4.1301 26.8286H0.947436C0.947436 26.8286 0.837189 28.2805 0.947436 39.0359C1.05738 49.7913 11.4231 48.7865 11.4231 48.7865L142.785 48.6591C142.785 48.6591 154.853 48.7865 154.854 39.0359C154.854 31.8658 154.854 26.8286 154.854 26.8286H151.042H151.043Z" fill="#DC281D"/>
<path d="M143.16 0.0275738C108.358 0.167322 21.3226 0.175052 11.8005 0.00469458C-0.261238 -0.211421 0.947778 9.22316 0.947778 9.22316V21.9567H4.26262C11.8095 21.9567 18.4632 18.1377 22.4078 12.3261C22.4757 12.2237 23.4899 10.693 23.6903 10.5733C27.7101 5.61443 33.846 2.44349 40.7228 2.44349H115.191C122.084 2.44349 128.232 5.62927 132.251 10.6083C132.424 10.705 133.528 12.3527 133.735 12.6813C137.703 18.2883 144.233 21.9499 151.617 21.9567H154.856V10.3551C154.856 10.3551 155.601 -0.0225131 143.16 0.0275738Z" fill="#002596"/>
<path d="M117.322 28.1363C116.524 29.0656 115.28 29.7628 114.13 29.7628H112.228C111.426 29.7628 110.99 29.1089 111.13 28.3085L111.26 27.5612V27.5575C111.394 26.8018 112.108 26.1526 112.857 26.1526H118.17L118.03 26.9536C117.885 27.3642 117.641 27.7674 117.322 28.1359L117.322 28.1363ZM121.856 35.0285C122.186 35.0179 122.358 34.8686 122.417 34.5301L124.889 20.3814C125.802 15.165 122.773 11.5513 117.067 11.5513C113.206 11.5513 110.707 12.9568 108.681 15.365C108.053 16.1148 107.333 17.1088 107.28 17.3676V17.3719C107.252 17.5212 107.333 17.6226 107.518 17.7219L110.975 19.7312C111.155 19.8292 111.332 19.9804 111.532 19.9804C111.683 19.9804 111.848 19.8809 111.988 19.6784C113.555 17.5735 114.941 16.8188 116.145 16.8188C118.199 16.8188 119.544 18.2747 119.201 20.2312L119.096 20.8341C119.047 21.1244 118.872 21.3182 118.538 21.3309C118.528 21.3309 118.52 21.3346 118.507 21.3346H113.699C110.566 21.3346 108.289 22.9754 106.867 25.6965C106.488 26.4138 106.212 27.2016 106.064 28.0574L106.019 28.3088C105.316 32.3219 107.346 35.03 111.309 35.03H113.212C114.161 35.03 115.219 34.7301 116.421 34.1294C116.593 34.0261 116.752 33.9788 116.902 33.9788C117.151 33.9788 117.208 34.228 117.136 34.6284C117.086 34.9289 117.217 35.03 117.57 35.03H121.827C121.84 35.03 121.845 35.0285 121.855 35.0285H121.856Z" fill="#DC281D"/>
<path d="M121.827 35.5317H117.571C117.424 35.5295 117.285 35.5215 117.128 35.4668C116.974 35.4173 116.787 35.2819 116.701 35.0917C116.642 34.9693 116.625 34.8469 116.625 34.7402C116.625 34.6849 116.63 34.6332 116.637 34.581C115.394 35.2015 114.267 35.5295 113.212 35.5317H111.31C109.492 35.5332 107.992 34.9857 106.955 33.97C105.916 32.9566 105.378 31.5031 105.381 29.8181C105.381 29.3079 105.429 28.7752 105.528 28.2203L105.572 27.972C105.727 27.0633 106.022 26.2236 106.425 25.4636C107.166 24.0442 108.145 22.8811 109.366 22.076C110.588 21.2712 112.046 20.8324 113.699 20.8334H118.474C118.487 20.8312 118.502 20.8306 118.519 20.8297C118.558 20.8284 118.576 20.8232 118.582 20.8201C118.582 20.8201 118.584 20.8173 118.584 20.8142C118.59 20.8046 118.597 20.7839 118.603 20.7487L118.708 20.1458C118.739 19.967 118.754 19.7958 118.754 19.6334C118.752 18.9384 118.495 18.385 118.052 17.9803C117.609 17.5759 116.96 17.3214 116.145 17.3205C115.649 17.3211 115.104 17.4714 114.476 17.8798C113.851 18.2867 113.152 18.9551 112.396 19.9708C112.2 20.2524 111.907 20.4775 111.532 20.4809C111.302 20.4803 111.129 20.3984 111.007 20.3325C110.883 20.2642 110.793 20.2002 110.736 20.1711L110.725 20.1655L107.274 18.1599C107.166 18.1002 107.057 18.0297 106.955 17.9119C106.849 17.7945 106.77 17.6028 106.774 17.4265C106.774 17.3721 106.78 17.3223 106.788 17.2775L106.789 17.2692C106.838 17.0654 106.909 16.9603 107.003 16.7933C107.098 16.635 107.218 16.4542 107.356 16.2597C107.631 15.872 107.974 15.4286 108.299 15.0412C110.382 12.544 113.085 11.0371 117.067 11.0507C119.674 11.0494 121.801 11.7803 123.281 13.1144C124.761 14.4464 125.553 16.3685 125.55 18.6026C125.55 19.2021 125.494 19.8254 125.381 20.4673L122.91 34.6159C122.87 34.8503 122.775 35.0964 122.569 35.2779C122.369 35.4556 122.116 35.5203 121.888 35.5277C121.874 35.5292 121.854 35.5314 121.832 35.5314H121.828L121.827 35.5317ZM121.861 35.153L121.855 35.0284L121.858 35.1366L121.861 35.153ZM121.807 34.5293C121.816 34.5287 121.827 34.5272 121.84 34.5272C121.869 34.5266 121.89 34.5235 121.904 34.5198C121.91 34.5058 121.917 34.4799 121.924 34.444L124.395 20.296C124.498 19.7058 124.548 19.1409 124.548 18.603C124.544 16.597 123.862 14.993 122.61 13.8592C121.355 12.7283 119.492 12.0536 117.067 12.0533C113.328 12.0666 111.03 13.3692 109.065 15.6871C108.779 16.0275 108.469 16.4257 108.221 16.7708C108.065 16.9856 107.93 17.195 107.847 17.3335L111.218 19.2918C111.361 19.3731 111.463 19.4427 111.515 19.468C111.53 19.4532 111.552 19.4291 111.577 19.3935L111.587 19.3787C112.396 18.2932 113.17 17.5341 113.93 17.0391C114.686 16.5438 115.437 16.3169 116.145 16.3175C117.169 16.3169 118.075 16.6446 118.726 17.2373C119.378 17.8266 119.758 18.6796 119.756 19.6328C119.756 19.857 119.735 20.0848 119.695 20.3164L119.59 20.9175C119.554 21.1385 119.458 21.3723 119.268 21.5513C119.085 21.7253 118.834 21.8166 118.586 21.8302C118.565 21.8326 118.536 21.8345 118.508 21.8345H113.699C112.22 21.8367 110.973 22.2182 109.917 22.9132C108.861 23.6082 107.992 24.6282 107.31 25.9308C106.955 26.6017 106.696 27.3385 106.558 28.1448L106.512 28.394C106.426 28.8952 106.382 29.3707 106.382 29.8172C106.385 31.2987 106.839 32.4529 107.655 33.2524C108.471 34.0514 109.684 34.5263 111.31 34.5284H113.212C114.052 34.529 115.031 34.2607 116.184 33.6859C116.406 33.5561 116.651 33.4757 116.902 33.4766C117.113 33.4648 117.391 33.5901 117.516 33.792C117.645 33.9889 117.664 34.1753 117.666 34.3463C117.666 34.4066 117.663 34.4672 117.656 34.5284H121.807L121.807 34.5293ZM111.035 29.7702C110.744 29.457 110.603 29.0352 110.604 28.6012C110.604 28.4766 110.614 28.3492 110.637 28.223L110.767 27.4764V27.4699C110.857 26.9641 111.129 26.5229 111.495 26.1961C111.861 25.8711 112.334 25.6522 112.856 25.6507H118.17C118.317 25.6507 118.457 25.7156 118.553 25.8291C118.647 25.9425 118.688 26.0916 118.664 26.2381L118.523 27.0401L118.502 27.1211C118.331 27.601 118.054 28.0552 117.7 28.4648C116.812 29.4863 115.483 30.2528 114.13 30.2639H112.215C111.751 30.2639 111.322 30.0834 111.035 29.7702ZM111.753 27.6467L111.623 28.3977C111.611 28.4676 111.605 28.5356 111.605 28.6012C111.605 28.8259 111.675 28.9858 111.769 29.0875C111.866 29.1886 111.994 29.2579 112.228 29.2606H114.13C115.077 29.2708 116.233 28.6444 116.941 27.8094L117.321 28.1358L116.943 27.8084C117.216 27.4915 117.422 27.1533 117.545 26.8221L117.574 26.6533H112.856C112.629 26.6512 112.371 26.7572 112.16 26.9452C111.95 27.131 111.798 27.3898 111.755 27.6381L111.754 27.6461L111.753 27.6467Z" fill="#111211"/>
<path d="M117.32 27.6416C116.522 28.5703 115.279 29.2669 114.129 29.2669H112.227C111.424 29.2669 110.989 28.6139 111.129 27.8125L111.259 27.0653V27.0622C111.393 26.3059 112.107 25.6557 112.856 25.6557H118.169L118.029 26.4571C117.883 26.8692 117.64 27.2715 117.321 27.6416H117.32ZM121.854 34.5316C122.184 34.5214 122.357 34.3733 122.416 34.0332L124.888 19.8861C125.801 14.67 122.772 11.0557 117.065 11.0557C113.205 11.0557 110.705 12.4606 108.68 14.8691C108.051 15.6182 107.331 16.6119 107.279 16.8713V16.8757C107.251 17.0247 107.332 17.1261 107.517 17.2269L110.974 19.2356C111.154 19.3336 111.331 19.4836 111.53 19.4836C111.682 19.4836 111.847 19.3856 111.987 19.1825C113.553 17.0773 114.939 16.3235 116.143 16.3235C118.197 16.3235 119.543 17.7791 119.199 19.7359L119.095 20.3382C119.045 20.6282 118.871 20.823 118.537 20.835C118.526 20.835 118.519 20.839 118.506 20.839H113.697C110.565 20.839 107.687 22.4789 106.265 25.2003C105.886 25.9176 105.609 26.7054 105.462 27.5618L105.417 27.8125C104.714 31.8251 107.345 34.5353 111.308 34.5353H113.211C114.16 34.5353 115.218 34.2345 116.42 33.6325C116.592 33.5308 116.751 33.4835 116.901 33.4835C117.15 33.4835 117.207 33.7327 117.135 34.1328C117.085 34.4336 117.216 34.5353 117.569 34.5353H121.826C121.838 34.5353 121.844 34.5322 121.854 34.5316H121.854Z" fill="#DC281D"/>
<path d="M127.333 34.0602C127.333 34.8069 126.728 35.4122 125.982 35.4122C125.236 35.4122 124.632 34.8069 124.632 34.0602C124.632 33.3135 125.236 32.7076 125.982 32.7076C126.728 32.7076 127.333 33.3129 127.333 34.0602Z" fill="#FEFEFE"/>
<path d="M126.014 32.5426C126.894 32.5426 127.579 33.2277 127.579 34.0808C127.579 34.9338 126.894 35.6285 126.004 35.6285C125.114 35.6285 124.421 34.9533 124.421 34.0808C124.421 33.2083 125.124 32.5426 126.004 32.5426H126.014V32.5426ZM125.995 32.8521C125.32 32.8521 124.815 33.4055 124.815 34.0808C124.815 34.756 125.32 35.3094 126.014 35.3094C126.689 35.319 127.185 34.7656 127.185 34.0808C127.185 33.3959 126.689 32.8521 126.004 32.8521H125.995V32.8521ZM125.761 34.8781H125.405V33.3496C125.545 33.3211 125.742 33.293 125.995 33.293C126.285 33.293 126.417 33.3397 126.529 33.4151C126.613 33.4806 126.679 33.6025 126.679 33.7431C126.679 33.9215 126.548 34.0526 126.361 34.1089V34.1278C126.51 34.1744 126.595 34.2966 126.642 34.5028C126.689 34.7371 126.717 34.8308 126.754 34.8778H126.37C126.324 34.8212 126.295 34.6901 126.249 34.5118C126.22 34.3433 126.127 34.2681 125.93 34.2681H125.761V34.8778L125.761 34.8781ZM125.77 34.0149H125.939C126.135 34.0149 126.295 33.9494 126.295 33.7901C126.295 33.6495 126.192 33.5558 125.967 33.5558C125.873 33.5558 125.808 33.5651 125.77 33.5743V34.0149V34.0149Z" fill="#002596"/>
<path d="M130.545 59.9451C131.426 59.9451 132.11 60.6305 132.11 61.4833C132.11 62.336 131.426 63.031 130.536 63.031C129.646 63.031 128.952 62.3558 128.952 61.4833C128.952 60.6108 129.655 59.9451 130.536 59.9451H130.545ZM130.527 60.2546C129.852 60.2546 129.346 60.808 129.346 61.4833C129.346 62.1585 129.852 62.7119 130.545 62.7119C131.219 62.7215 131.716 62.1681 131.716 61.4833C131.716 60.7984 131.219 60.2546 130.536 60.2546H130.527ZM130.292 62.2806H129.936V60.7521C130.077 60.7239 130.274 60.6961 130.527 60.6961C130.817 60.6961 130.948 60.7425 131.061 60.8176C131.145 60.8831 131.211 61.005 131.211 61.1456C131.211 61.324 131.079 61.4551 130.892 61.512V61.5306C131.042 61.5779 131.126 61.6994 131.173 61.9056C131.22 62.14 131.248 62.2336 131.285 62.2806H130.902C130.854 62.2247 130.826 62.0936 130.779 61.9152C130.751 61.7464 130.658 61.6712 130.461 61.6712H130.292V62.2806V62.2806ZM130.302 61.4174H130.47C130.667 61.4174 130.826 61.3519 130.826 61.1926C130.826 61.052 130.723 60.9583 130.498 60.9583C130.404 60.9583 130.339 60.9679 130.302 60.9768V61.4174V61.4174Z" fill="#002596"/>
<path d="M34.777 63.8856C34.6908 64.9176 34.3042 65.7261 33.6174 66.3105C32.913 66.8781 31.9853 67.1617 30.8346 67.1617C29.4947 67.1617 28.4725 66.7576 27.7684 65.9494C27.064 65.1755 26.7119 64.0318 26.7119 62.5184C26.7119 61.005 27.0726 59.8097 27.794 59.0358C28.5324 58.2276 29.5978 57.8232 30.989 57.8232C32.1227 57.8232 33.0247 58.1071 33.6946 58.6744C34.3298 59.225 34.6905 59.9989 34.7767 60.996H33.6686C33.2564 60.996 32.9642 60.8155 32.7925 60.4543C32.6721 60.2311 32.526 60.0332 32.3546 59.861C32.0109 59.6032 31.5557 59.4742 30.989 59.4742C30.1988 59.4742 29.5889 59.7321 29.1596 60.2481C28.7473 60.7641 28.541 61.521 28.541 62.5184C28.541 63.5158 28.747 64.2211 29.1596 64.7368C29.5546 65.2701 30.1472 65.5366 30.9375 65.5366C31.4871 65.5366 31.9423 65.399 32.303 65.1239C32.6292 64.866 32.8611 64.4533 32.9988 63.8856H34.7767H34.777Z" fill="#002596"/>
<path d="M36.0137 66.3362C35.653 66.0267 35.3954 65.6099 35.2407 65.0849C35.086 64.5606 35.0088 64.0142 35.0088 63.4469C35.0088 62.9825 35.073 62.5181 35.2021 62.0537C35.3309 61.5893 35.5325 61.2022 35.8077 60.8928C36.2542 60.3767 36.8296 60.0716 37.534 59.977C38.2381 59.8827 38.8739 59.9383 39.4406 60.1445C40.0931 60.4024 40.5746 60.8498 40.8837 61.4861C41.1755 62.0537 41.3216 62.716 41.3216 63.4725C41.3216 64.0232 41.2614 64.4959 41.1412 64.8914C41.0208 65.2871 40.8664 65.6226 40.6774 65.8974C40.2651 66.4651 39.7411 66.8176 39.1055 66.9551C38.5385 67.11 37.9672 67.1227 37.3919 66.9938C36.8163 66.8649 36.3568 66.6457 36.0134 66.3359L36.0137 66.3362ZM37.2505 61.7959C36.8898 62.1916 36.7264 62.7806 36.7607 63.5628C36.795 64.3457 36.941 64.8914 37.1986 65.2009C37.3017 65.3388 37.4821 65.4547 37.7396 65.549C37.9972 65.6436 38.2591 65.6523 38.5256 65.5747C38.7918 65.4974 39.028 65.3038 39.2343 64.9943C39.4403 64.6848 39.5521 64.1861 39.5694 63.4982C39.5694 62.8792 39.4702 62.4148 39.2729 62.105C39.0753 61.7956 38.8477 61.598 38.5901 61.5117C38.3326 61.4258 38.0747 61.4215 37.8172 61.4987C37.5593 61.576 37.3703 61.6753 37.2502 61.7953L37.2505 61.7959Z" fill="#002596"/>
<path d="M47.5826 66.9554H46.6808C46.4233 66.9554 46.2127 66.8741 46.0496 66.7102C45.8863 66.5469 45.8047 66.3361 45.8047 66.0782V62.5697C45.8047 62.1569 45.68 61.8561 45.4311 61.6669C45.1818 61.4777 44.903 61.3831 44.5935 61.3831C44.2841 61.3831 44.0093 61.4777 43.769 61.6669C43.5281 61.8564 43.4083 62.1569 43.4083 62.5697V66.9551H41.6045V62.9308C41.6045 61.7615 41.9093 60.979 42.5192 60.5832C43.1288 60.1878 43.8033 59.9729 44.542 59.9383C45.2976 59.9383 45.9934 60.1361 46.629 60.5316C47.2642 60.9273 47.5826 61.7272 47.5826 62.9308V66.9551V66.9554Z" fill="#002596"/>
<path d="M50.9066 66.9554C50.3399 66.9897 49.7254 66.9811 49.0642 66.9298C48.4027 66.8781 48.0723 66.457 48.0723 65.6655V58.0811H49C49.2229 58.0811 49.4206 58.1673 49.5926 58.3389C49.764 58.5112 49.8501 58.7174 49.8501 58.9582V60.1192H50.9066V60.4803C50.9066 60.7382 50.8204 60.949 50.649 61.1123C50.477 61.2758 50.271 61.3574 50.0305 61.3574H49.8501V65.1755C49.8501 65.468 50.0215 65.6139 50.3655 65.6139H50.9066V66.9554V66.9554Z" fill="#002596"/>
<path d="M51.2158 58.0811H52.1435C52.3838 58.0811 52.5901 58.1673 52.7621 58.3389C52.9335 58.5112 53.0196 58.7174 53.0196 58.9582V59.4999H51.2158V58.0811V58.0811ZM51.2158 60.0932H52.1435C52.3838 60.0932 52.5901 60.1795 52.7621 60.3511C52.9335 60.5233 53.0196 60.7295 53.0196 60.9704V66.9551H51.2158V60.0929V60.0932Z" fill="#002596"/>
<path d="M57.6321 66.5427V66.1043C57.323 66.586 56.906 66.8871 56.3823 67.0071C55.8582 67.127 55.3388 67.0844 54.8234 66.8782C54.308 66.6716 53.8657 66.2892 53.4964 65.7302C53.1267 65.1715 52.9424 64.4363 52.9424 63.5245C52.9424 62.4585 53.1873 61.594 53.6768 60.9317C54.1665 60.2698 54.9522 59.9386 56.0346 59.9386C56.8591 59.9386 57.6234 60.1625 58.3278 60.6093C59.0319 61.0566 59.3843 61.8821 59.3843 63.0858V66.7233C59.3843 67.9269 59.0319 68.7484 58.3278 69.1868C57.6234 69.6252 56.8591 69.8447 56.0346 69.8447C54.454 69.8447 53.4748 69.1052 53.0971 67.6261H54.9781C55.1155 67.8666 55.3258 68.0518 55.6093 68.1807C55.8925 68.3096 56.176 68.344 56.4595 68.2837C56.743 68.2234 57.0005 68.0555 57.2325 67.7806C57.4644 67.5055 57.5972 67.0927 57.6318 66.5424L57.6321 66.5427ZM54.6946 63.5761C54.6946 64.7628 55.038 65.4207 55.7251 65.5496C56.4119 65.6785 56.919 65.5199 57.2454 65.0722C57.4002 64.8833 57.5116 64.5865 57.5805 64.1821C57.6491 63.778 57.6534 63.3783 57.5935 62.9825C57.5333 62.5871 57.3915 62.2343 57.1682 61.9248C56.9447 61.6153 56.6182 61.4604 56.189 61.4604C55.6047 61.4604 55.2097 61.6756 55.0037 62.1054C54.7978 62.5354 54.6946 63.0255 54.6946 63.5758V63.5761Z" fill="#002596"/>
<path d="M60.544 66.3362C60.1833 66.0267 59.9254 65.6099 59.771 65.0849C59.6163 64.5606 59.5391 64.0142 59.5391 63.4469C59.5391 62.9825 59.6036 62.5181 59.7324 62.0537C59.8612 61.5893 60.0628 61.2022 60.338 60.8928C60.7845 60.3767 61.3598 60.0716 62.0643 59.977C62.7684 59.8827 63.4042 59.9383 63.9712 60.1445C64.6237 60.4024 65.1049 60.8498 65.414 61.4861C65.7061 62.0537 65.8519 62.716 65.8519 63.4725C65.8519 64.0232 65.7917 64.4959 65.6715 64.8914C65.5511 65.2871 65.3967 65.6226 65.2077 65.8974C64.7954 66.4651 64.2711 66.8176 63.6358 66.9551C63.0688 67.11 62.4978 67.1227 61.9225 66.9938C61.3469 66.8649 60.8874 66.6457 60.544 66.3359V66.3362ZM61.7808 61.7959C61.4201 62.1916 61.2567 62.7806 61.2913 63.5628C61.3256 64.3457 61.4716 64.8914 61.7295 65.2009C61.8326 65.3388 62.013 65.4547 62.2705 65.549C62.5281 65.6436 62.79 65.6523 63.0565 65.5747C63.3227 65.4974 63.5589 65.3038 63.7649 64.9943C63.9712 64.6848 64.0827 64.1861 64.1 63.4982C64.1 62.8792 64.0008 62.4148 63.8035 62.105C63.6059 61.7956 63.3783 61.598 63.1207 61.5117C62.8632 61.4258 62.6053 61.4215 62.3477 61.4987C62.0902 61.576 61.9009 61.6753 61.7808 61.7953V61.7959Z" fill="#002596"/>
<path d="M73.6331 58.0554H74.5092C74.7497 58.0554 74.9557 58.1457 75.1274 58.3263C75.2988 58.5068 75.385 58.709 75.385 58.9326V63.9629C75.385 65.1842 75.0326 66.0097 74.3285 66.4394C73.6241 66.8695 72.8598 67.0844 72.0352 67.0844C71.5884 67.0844 71.1502 67.0111 70.7212 66.8652C70.2917 66.7192 69.9483 66.4827 69.6904 66.1556C69.192 65.5196 68.9434 64.6508 68.9434 63.5502C68.9434 62.4495 69.1923 61.5983 69.6904 60.9447C70.2058 60.2741 70.867 59.9386 71.6745 59.9386C72.1038 59.9386 72.4818 60.0249 72.8082 60.1965C73.1516 60.4027 73.4268 60.6695 73.6327 60.9963V58.0554H73.6331ZM70.6956 63.4729C70.6956 64.1608 70.8244 64.6855 71.0822 65.0466C71.3398 65.4077 71.7091 65.5883 72.1903 65.5883C72.6714 65.5883 73.0148 65.4077 73.2724 65.0466C73.5126 64.6855 73.6331 64.1611 73.6331 63.4729C73.6331 62.8536 73.5043 62.3635 73.2464 62.0024C72.9716 61.6586 72.6022 61.4864 72.1384 61.4864C71.6745 61.4864 71.3395 61.6669 71.0819 62.0281C70.8244 62.3722 70.6953 62.8536 70.6953 63.4725L70.6956 63.4729Z" fill="#002596"/>
<path d="M75.8496 60.0933H76.7773C77.0175 60.0933 77.2238 60.1796 77.3958 60.3512C77.5672 60.5234 77.6534 60.7296 77.6534 60.9704V66.9552H75.8496V60.093V60.0933ZM78.5807 57.8746L77.0089 59.474H76.1844L76.8801 58.1585C76.9144 58.1068 76.9743 58.0468 77.0605 57.9779C77.1463 57.9093 77.2667 57.8746 77.4212 57.8746H78.5807V57.8746Z" fill="#002596"/>
<path d="M82.42 66.6716C82.0594 66.8611 81.6767 66.9768 81.2734 67.0197C80.8695 67.0624 80.5134 67.0844 80.204 67.0844C79.5857 67.0844 79.0444 66.9168 78.5805 66.5813C78.1167 66.2459 77.8848 65.6912 77.8848 64.9173C77.8848 64.1951 78.0951 63.6791 78.516 63.3696C78.9366 63.0601 79.4733 62.8536 80.1265 62.7506C80.2123 62.7506 80.3152 62.7376 80.4356 62.712C80.5557 62.6863 80.6935 62.665 80.8479 62.6473C81.6035 62.5441 81.9815 62.3208 81.9815 61.9767C81.9815 61.7189 81.8484 61.551 81.5822 61.4737C81.3157 61.3964 81.0708 61.3578 80.8479 61.3578C80.6073 61.3578 80.3924 61.3924 80.2037 61.461C80.0144 61.53 79.8773 61.6589 79.7914 61.8478H78.0648C78.1334 61.3148 78.3739 60.8764 78.7862 60.5322C79.25 60.1368 79.9109 59.9389 80.7703 59.9389C81.7323 59.9389 82.4537 60.1025 82.9348 60.429C83.433 60.7731 83.6822 61.2545 83.6822 61.8735V64.2211C83.6822 64.909 83.5574 65.4463 83.3085 65.8334C83.0593 66.2205 82.7628 66.5 82.4194 66.6719L82.42 66.6716ZM82.0078 63.4985C81.7669 63.6191 81.4321 63.7307 81.0029 63.834L80.4103 63.9629C80.1011 64.0492 79.8776 64.1608 79.7401 64.2984C79.6197 64.4876 79.5598 64.6768 79.5598 64.8657C79.5598 65.1235 79.637 65.3301 79.7917 65.485C79.9464 65.6229 80.1694 65.6912 80.4615 65.6912C80.9424 65.6912 81.3204 65.5539 81.5952 65.2784C81.8697 65.0036 82.0075 64.6252 82.0075 64.1435V63.4985H82.0078Z" fill="#002596"/>
<path d="M87.8835 69.3803V67.9615H88.373C88.7164 67.9615 88.9869 67.8796 89.1846 67.7163C89.3819 67.5528 89.4205 67.2906 89.3007 66.9295L86.9043 60.0932H88.8884L90.28 64.943L91.4908 60.7122C91.594 60.2995 91.8685 60.0932 92.3153 60.0932H93.5522L90.9238 67.9099C90.7175 68.4775 90.46 68.8813 90.1509 69.1222C89.8417 69.3287 89.3347 69.4317 88.6306 69.4317H88.2699C88.2183 69.4143 88.1541 69.4014 88.0766 69.393C87.9994 69.3844 87.9348 69.38 87.8832 69.38L87.8835 69.3803Z" fill="#002596"/>
<path d="M102.802 66.9554H101.9C101.643 66.9554 101.432 66.8741 101.269 66.7102C101.106 66.5469 101.024 66.3361 101.024 66.0782V62.5697C101.024 62.1569 100.899 61.8561 100.65 61.6669C100.401 61.4777 100.122 61.3831 99.8132 61.3831C99.5041 61.3831 99.229 61.4777 98.9887 61.6669C98.7481 61.8564 98.628 62.1569 98.628 62.5697V66.9551H96.8242V62.9308C96.8242 61.7615 97.129 60.979 97.7389 60.5832C98.3485 60.1878 99.023 59.9729 99.7617 59.9383C100.517 59.9383 101.213 60.1361 101.849 60.5316C102.484 60.9273 102.802 61.7272 102.802 62.9308V66.9551L102.802 66.9554Z" fill="#002596"/>
<path d="M103.936 66.3362C103.575 66.0267 103.317 65.6099 103.163 65.0849C103.008 64.5606 102.931 64.0142 102.931 63.4469C102.931 62.9825 102.995 62.5181 103.124 62.0537C103.253 61.5893 103.454 61.2022 103.73 60.8928C104.176 60.3767 104.751 60.0716 105.456 59.977C106.16 59.8827 106.796 59.9383 107.363 60.1445C108.015 60.4024 108.496 60.8498 108.806 61.4861C109.098 62.0537 109.244 62.716 109.244 63.4725C109.244 64.0232 109.183 64.4959 109.063 64.8914C108.943 65.2871 108.788 65.6226 108.6 65.8974C108.187 66.4651 107.663 66.8176 107.028 66.9551C106.461 67.11 105.89 67.1227 105.314 66.9938C104.739 66.8649 104.279 66.6457 103.936 66.3359L103.936 66.3362ZM105.172 61.7959C104.812 62.1916 104.648 62.7806 104.683 63.5628C104.717 64.3457 104.863 64.8914 105.121 65.2009C105.224 65.3388 105.404 65.4547 105.662 65.549C105.919 65.6436 106.181 65.6523 106.448 65.5747C106.714 65.4974 106.95 65.3038 107.157 64.9943C107.362 64.6848 107.474 64.1861 107.491 63.4982C107.491 62.8792 107.392 62.4148 107.195 62.105C106.997 61.7956 106.77 61.598 106.512 61.5117C106.255 61.4258 105.997 61.4215 105.739 61.4987C105.482 61.576 105.292 61.6753 105.172 61.7953V61.7959Z" fill="#002596"/>
<path d="M114.293 64.84H115.582C115.392 65.5623 115.032 66.1129 114.5 66.4911C113.967 66.8868 113.297 67.0844 112.49 67.0844C111.511 67.0844 110.746 66.7662 110.197 66.1299C109.647 65.511 109.372 64.6252 109.372 63.4729C109.372 62.3206 109.638 61.5124 110.171 60.8931C110.72 60.2568 111.485 59.9386 112.464 59.9386C113.495 59.9386 114.293 60.2481 114.86 60.8674C115.169 61.2459 115.393 61.6843 115.53 62.183H113.726C113.64 62.0114 113.555 61.8821 113.469 61.7959C113.246 61.5553 112.928 61.4348 112.516 61.4348C112.138 61.4348 111.828 61.5553 111.588 61.7959C111.279 62.14 111.124 62.7076 111.124 63.4985C111.124 64.2894 111.279 64.8487 111.588 65.1752C111.811 65.4507 112.146 65.588 112.593 65.588C112.885 65.588 113.134 65.528 113.34 65.4074C113.392 65.3904 113.439 65.3601 113.482 65.3171C113.524 65.2744 113.572 65.2268 113.624 65.1752C113.658 65.1236 113.727 65.0549 113.83 64.969C113.933 64.883 114.087 64.84 114.294 64.84H114.293Z" fill="#002596"/>
<path d="M120.169 62.0281C119.911 61.6669 119.559 61.4864 119.112 61.4864C118.631 61.4864 118.262 61.6586 118.004 62.0024C117.747 62.3465 117.617 62.8196 117.617 63.4212V66.9554H115.865V58.0811H116.741C116.982 58.0811 117.188 58.1673 117.36 58.3389C117.531 58.5112 117.617 58.7174 117.617 58.9582V60.9963C117.926 60.4803 118.365 60.1538 118.931 60.0159C119.498 59.8783 120.04 59.9127 120.555 60.1192C121.035 60.3254 121.439 60.6525 121.766 61.0996C122.092 61.547 122.255 62.166 122.255 62.9568V66.9554H120.529V63.3956C120.529 63.1377 120.507 62.9015 120.464 62.686C120.422 62.4711 120.323 62.2519 120.168 62.0281H120.169Z" fill="#002596"/>
<path d="M127.332 64.84H128.62C128.431 65.5623 128.07 66.1129 127.538 66.4911C127.005 66.8868 126.335 67.0844 125.528 67.0844C124.549 67.0844 123.784 66.7662 123.235 66.1299C122.685 65.511 122.41 64.6252 122.41 63.4729C122.41 62.3206 122.676 61.5124 123.209 60.8931C123.758 60.2568 124.523 59.9386 125.502 59.9386C126.533 59.9386 127.332 60.2481 127.899 60.8674C128.448 61.504 128.723 62.3895 128.723 63.5245V63.8083C128.723 63.8946 128.714 63.9546 128.697 63.9889H124.24C124.257 64.5222 124.385 64.9177 124.626 65.1755C124.849 65.451 125.184 65.5883 125.631 65.5883C125.923 65.5883 126.172 65.5283 126.378 65.4077C126.43 65.3907 126.477 65.3604 126.52 65.3174C126.563 65.2748 126.61 65.2271 126.662 65.1755C126.679 65.1239 126.743 65.0552 126.855 64.9693C126.967 64.8833 127.126 64.8404 127.332 64.8404L127.332 64.84ZM124.24 62.8279H126.868C126.833 62.3635 126.713 62.0197 126.507 61.7959C126.284 61.5553 125.966 61.4348 125.554 61.4348C125.176 61.4348 124.866 61.5553 124.626 61.7959C124.385 62.037 124.257 62.3808 124.24 62.8279H124.24Z" fill="#002596"/>
</svg>
