<svg width="154" height="60" viewBox="0 0 154 60" fill="none" xmlns="http://www.w3.org/2000/svg">
<path fill-rule="evenodd" clip-rule="evenodd" d="M50.2251 43.9978C47.2426 29.6627 44.26 15.3222 41.2722 0.981842C50.4089 2.47837 56.3793 7.22 58.5269 15.8736C60.307 25.7874 57.3979 35.1447 50.2199 43.9978H50.2251ZM32.4611 13.3636L37.3655 35.6435H20.8407L32.4611 13.3636ZM24.9994 3.77011C17.3908 18.4833 9.78738 33.1913 2.18397 47.9045C0.099333 41.3198 -2.61542 35.2077 5.38181 21.1456C10.7063 12.3134 17.6271 7.48255 24.9994 3.77011ZM15.8312 45.0795H39.1771C39.7074 47.5475 40.243 50.0207 40.7734 52.4886C36.4256 55.3294 31.7102 57.6661 25.9971 58.6323C19.8377 59.5932 14.5343 58.7583 10.0814 56.1381L15.826 45.0795H15.8312Z" fill="#E30613"/>
<path d="M113.578 8.13894H115.694V10.2288H113.578V8.13894ZM113.599 11.5258H115.705V22.0435H113.599V11.5206V11.5258ZM111.499 15.317H109.409C109.409 14.7762 109.514 13.9465 109.262 13.4792C109.152 13.2796 108.842 13.1799 108.59 13.1799C108.359 13.1799 107.944 13.2744 107.881 13.4949C107.508 14.7919 107.634 18.9822 107.881 20.1427C107.928 20.358 108.348 20.442 108.579 20.442C108.821 20.442 109.188 20.3475 109.267 20.1322C109.477 19.5388 109.419 18.5044 109.435 17.848L111.504 17.8112C111.483 18.8824 111.751 20.9356 111.01 21.7075C110.522 22.2168 109.729 22.4688 108.637 22.4688C107.413 22.4688 106.71 22.1433 106.237 21.4869C105.77 20.8305 105.56 19.3655 105.56 17.5959V16.0312C105.56 14.2616 105.649 13.0486 106.122 12.3922C106.589 11.7359 107.44 11.4103 108.663 11.4103C109.755 11.4103 110.301 11.6623 110.79 12.1664C111.535 12.9383 111.509 14.3088 111.509 15.3118L111.499 15.317ZM92.3064 12.9593C92.6214 12.4185 92.968 12.1034 93.2883 11.8566C93.6086 11.6151 93.9709 11.4891 94.37 11.4891C95.0159 11.4891 95.688 11.7516 95.9453 12.1874C96.2026 12.618 96.3286 13.2691 96.3339 14.4296L96.3496 22.033H94.2755L94.2597 14.7657C94.2597 14.3403 94.097 13.5474 93.3933 13.5317C92.5059 13.5107 92.5742 14.0043 92.5742 14.7657V22.0435H90.458V14.7657C90.458 14.0935 90.437 13.5369 89.5181 13.5369C88.6832 13.5369 88.7777 14.3403 88.7777 14.7657L88.7882 22.033H86.6511L86.6406 11.6676H88.6255L88.699 12.8596C88.9878 12.3607 89.2503 12.0824 89.5654 11.8461C89.8752 11.6151 90.2165 11.4996 90.5788 11.4996C91.0409 11.4996 91.419 11.6308 91.7078 11.8986C91.9966 12.1664 92.2329 12.4605 92.3011 12.9593H92.3064ZM85.4119 11.4838V14.4716C84.9813 14.4716 84.5559 14.4716 84.1306 14.4716C83.8681 14.4506 83.7368 14.5766 83.7316 14.8549L83.7158 22.0488H81.6154L81.6049 11.5363H83.3167L83.2905 13.2219C83.6633 12.9173 83.9573 12.2452 84.3827 11.9144C84.7607 11.6256 84.9393 11.4891 85.4066 11.4891L85.4119 11.4838ZM79.9193 14.4244V22.033H77.8557L77.7507 21.1141C77.1993 21.8072 76.3697 22.4531 75.498 22.4531C74.0855 22.4531 73.4291 20.6678 73.4449 19.418C73.4606 17.974 74.0645 17.0288 75.3457 16.2832C76.2017 15.7844 77.2466 15.6951 77.3884 15.1647L77.4094 14.5871C77.4251 14.0935 77.5091 13.1694 76.7215 13.1694C75.6555 13.1694 75.7133 13.9833 75.7133 14.8759H73.6234C73.6234 12.702 74.5056 11.4996 76.8633 11.5048C79.1632 11.5048 79.9246 12.9278 79.9246 14.4349L79.9193 14.4244ZM77.8347 16.8766C76.2437 17.2704 75.7081 17.5539 75.7186 19.1765C75.7238 20.0639 75.8288 20.4157 76.6007 20.4052C77.0313 20.4 77.6247 19.8486 77.84 19.502V16.8766H77.8347ZM66.1198 8.13894L72.3737 8.1547L72.3632 10.6804H68.5825L68.572 13.6262H71.9379V16.1467L68.5825 16.1572L68.593 22.0383H66.041L66.1198 8.14419V8.13894ZM103.869 14.4191V22.0278H101.805L101.7 21.1088C101.149 21.802 100.319 22.4478 99.4477 22.4478C98.0352 22.4478 97.3788 20.6625 97.3946 19.4128C97.4103 17.9688 98.0142 17.0236 99.2954 16.278C100.151 15.7791 101.196 15.6898 101.338 15.1595L101.359 14.5819C101.375 14.0883 101.459 13.1641 100.671 13.1641C99.6052 13.1641 99.663 13.978 99.663 14.8707H97.5731C97.5731 12.6968 98.4553 11.4943 100.813 11.4996C103.113 11.4996 103.874 12.9226 103.874 14.4296L103.869 14.4191ZM101.784 16.8713C100.193 17.2651 99.6577 17.5487 99.6682 19.1712C99.6735 20.0587 99.7785 20.4105 100.55 20.4C100.981 20.3947 101.574 19.8434 101.79 19.4968V16.8713H101.784ZM123.681 14.4349V22.0435H121.617L121.512 21.1246C120.961 21.8177 120.131 22.4636 119.26 22.4636C117.847 22.4636 117.191 20.6783 117.207 19.4285C117.222 17.9845 117.826 17.0393 119.107 16.2937C119.963 15.7949 121.008 15.7056 121.15 15.1752L121.171 14.5976C121.187 14.104 121.271 13.1799 120.483 13.1799C119.417 13.1799 119.475 13.9938 119.475 14.8864H117.385C117.385 12.7125 118.267 11.5101 120.625 11.5101C122.925 11.5101 123.686 12.9331 123.686 14.4401L123.681 14.4349ZM121.596 16.8871C120.005 17.2809 119.47 17.5644 119.48 19.187C119.485 20.0744 119.59 20.4262 120.362 20.4157C120.793 20.4105 121.386 19.8591 121.602 19.5126V16.8871H121.596ZM151.459 8.1547H154L153.99 22.0068H151.448L151.459 8.1547ZM147.673 14.4874C147.683 13.8678 147.384 13.1221 146.649 13.1221C145.761 13.1221 145.557 14.104 145.572 14.5451L145.599 15.296L147.657 15.3223L147.673 14.4874ZM149.789 16.0259V16.9868H145.614V19.0032C145.614 19.7961 145.641 20.4577 146.612 20.4577C147.583 20.4577 147.688 19.8434 147.688 19.0032V18.6724H149.784V18.9822C149.784 20.9408 148.665 22.4163 146.727 22.4321C144.79 22.4478 143.509 21.3084 143.503 19.5966L143.482 16.0312C143.472 14.2721 143.687 13.1536 144.154 12.492C144.617 11.8304 145.578 11.4418 146.764 11.4418C147.951 11.4418 148.849 11.8251 149.306 12.471C149.763 13.1221 149.789 14.2458 149.789 16.0312V16.0259ZM139.66 8.14944H142.196L142.149 22.0278H140.132L140.064 20.7623C139.822 21.2559 139.135 21.8545 138.841 22.0908C138.552 22.3218 138.221 22.4373 137.853 22.4373C137.213 22.4373 136.74 22.1958 136.43 21.718C136.121 21.2401 135.947 20.2687 135.947 19.271V14.3141C135.947 13.1589 136.215 12.681 136.525 12.2032C136.829 11.7254 137.192 11.3998 137.838 11.3998C138.2 11.3998 138.667 11.5521 138.956 11.7831C139.24 12.0089 139.418 12.3765 139.67 12.8806V8.15995L139.66 8.14944ZM139.612 14.7499C139.612 14.2038 139.623 13.5264 138.914 13.5107C138.231 13.4949 138.074 13.9675 138.074 14.7499V18.8614C138.074 19.8539 138.399 20.2372 138.883 20.2424C139.581 20.2477 139.612 19.3498 139.612 18.8614V14.7499ZM130.807 14.1146L130.791 14.4191H128.732V14.1566C128.732 13.5002 128.801 13.1484 127.855 13.1484C126.905 13.1011 126.942 13.7207 126.942 14.1618C126.942 14.4086 127.01 14.6186 127.147 14.8024C127.283 14.9862 127.572 15.2068 128.003 15.4746L129.242 16.2149C129.73 16.509 130.208 16.8818 130.449 17.3334C130.691 17.785 130.817 18.3101 130.817 18.9192V19.4495C130.817 20.4052 130.47 21.1561 129.951 21.5972C129.431 22.0383 128.57 22.3848 127.435 22.3848C126.679 22.3848 126.259 22.117 125.871 21.8125C125.246 21.3189 124.904 20.568 124.904 19.4233V19.0557H126.805C126.805 19.4915 126.795 20.1899 127.042 20.5417C127.152 20.6993 127.53 20.778 127.824 20.778C128.37 20.778 128.722 20.463 128.722 19.3918C128.722 19.0767 128.627 18.8877 128.48 18.6409C128.087 17.9898 126.879 17.4752 126.222 17.0971C125.582 16.7295 125.377 16.4407 125.13 16.0732C124.878 15.7056 124.868 15.2488 124.868 14.7079V13.9255C124.868 13.1536 125.025 12.555 125.571 12.1244C126.112 11.6939 126.637 11.3998 127.624 11.3998C128.612 11.3998 129.399 11.6203 129.846 12.0562C130.287 12.492 130.807 13.0696 130.807 14.1146Z" fill="#004A9A"/>
<path fill-rule="evenodd" clip-rule="evenodd" d="M66.3927 25.7822L52.8452 51.5382H59.1726L62.1762 45.9775H69.013L69.076 51.5382H75.2144L74.5107 25.9082L66.3927 25.7822ZM69.0235 33.0548L64.4394 41.4039H69.0235V33.0548ZM80.7751 25.9135H86.5932L85.3172 34.2835L85.8003 34.2625C86.9135 33.7637 88.5781 33.3804 89.8488 33.4854C91.4189 33.6167 93.9761 34.3938 93.8396 36.4102L92.1645 51.5277H86.2467C86.7455 47.6735 87.2391 43.6565 87.7379 39.8023C87.9427 38.5578 87.8377 37.6389 86.7718 37.5917C85.1597 37.5181 84.9339 38.5053 84.7449 39.8023L83.1486 51.533H77.3935L80.7751 25.9082V25.9135ZM97.2264 37.3869C98.8595 34.5723 101.774 33.3331 104.51 33.3069C107.865 33.2701 109.335 34.4936 110.412 36.5205C111.488 38.5473 110.947 43.6355 109.587 46.345C107.812 49.3328 105.208 51.596 101.422 51.6433C97.636 51.6905 96.129 50.5616 95.3623 47.5475C94.5957 44.5334 95.5881 40.2014 97.2212 37.3921L97.2264 37.3869ZM105.066 38.4161C105.644 40.4272 104.725 45.1215 103.265 46.9384C102.593 47.7785 101.537 47.9413 100.976 46.8491C100.03 45.006 101.007 40.1804 102.493 38.1535C103.16 37.2398 104.699 37.1401 105.066 38.4161ZM139.36 37.3869C140.993 34.5723 143.908 33.3331 146.643 33.3069C149.999 33.2701 151.469 34.4936 152.545 36.5205C153.622 38.5473 153.081 43.6355 151.721 46.345C149.946 49.3328 147.342 51.596 143.561 51.6433C139.775 51.6905 138.268 50.5616 137.501 47.5475C136.735 44.5334 137.727 40.2014 139.36 37.3921V37.3869ZM147.2 38.4161C147.778 40.4272 146.859 45.1215 145.399 46.9384C144.727 47.7785 143.671 47.9413 143.109 46.8491C142.164 45.006 143.141 40.1804 144.627 38.1535C145.294 37.2398 146.832 37.1401 147.2 38.4161ZM114.114 33.4119C116.03 33.4276 117.952 33.4486 119.869 33.4644C119.874 33.7217 119.879 33.9737 119.884 34.231C119.884 34.2415 120.231 34.231 120.688 34.168C121.88 33.9895 123.55 33.5852 124.4 33.4959L123.728 39.209C123.292 39.1617 119.417 39.0987 118.855 41.6769C118.267 44.1816 117.71 51.5382 117.71 51.5382H111.74L114.114 33.4171V33.4119ZM126.774 33.3804C128.69 33.3961 130.612 33.4171 132.529 33.4329C132.534 33.6902 132.539 33.9422 132.544 34.1995C132.544 34.21 132.891 34.1995 133.348 34.1365C134.54 33.958 136.21 33.5537 137.06 33.4644L136.388 39.1774C135.952 39.1302 132.077 39.0672 131.515 41.6454C130.927 44.1501 130.397 51.5592 130.397 51.5592H124.426L126.774 33.3856V33.3804Z" fill="#004A9A"/>
<path d="M150.183 54.0325V54.7308H150.498C150.677 54.7308 150.808 54.7046 150.892 54.6521C150.976 54.5996 151.013 54.5103 151.013 54.3948C151.013 54.2792 150.971 54.1795 150.881 54.1217C150.797 54.064 150.661 54.0377 150.472 54.0377H150.178L150.183 54.0325ZM149.705 53.7331H150.561C150.871 53.7331 151.102 53.7857 151.265 53.8854C151.422 53.9852 151.501 54.1375 151.501 54.3318C151.501 54.4945 151.459 54.6258 151.375 54.7361C151.291 54.8411 151.17 54.9146 151.007 54.9461L151.501 55.9491H150.971L150.53 55.0196H150.183V55.9491H149.705V53.7279V53.7331ZM150.514 53.1975C150.283 53.1975 150.073 53.2396 149.873 53.3183C149.674 53.3971 149.5 53.5179 149.338 53.6754C149.175 53.8434 149.049 54.0272 148.96 54.2372C148.87 54.442 148.828 54.6573 148.828 54.8779C148.828 55.0984 148.87 55.3137 148.954 55.5132C149.038 55.7128 149.159 55.8965 149.317 56.0541C149.474 56.2169 149.658 56.3376 149.863 56.4269C150.068 56.5109 150.272 56.5582 150.488 56.5582C150.719 56.5582 150.939 56.5162 151.144 56.4321C151.349 56.3481 151.538 56.2274 151.701 56.0646C151.858 55.9123 151.979 55.7338 152.068 55.5342C152.152 55.3347 152.194 55.1247 152.194 54.8989C152.194 54.6626 152.152 54.442 152.073 54.2372C151.995 54.0325 151.874 53.8539 151.716 53.6911C151.554 53.5284 151.365 53.4023 151.165 53.3183C150.96 53.2343 150.745 53.1923 150.514 53.1923V53.1975ZM150.514 52.9035C150.787 52.9035 151.044 52.956 151.286 53.0505C151.527 53.1503 151.743 53.2973 151.932 53.4916C152.115 53.6754 152.257 53.8854 152.352 54.1217C152.446 54.358 152.494 54.6101 152.494 54.8779C152.494 55.1457 152.446 55.4082 152.347 55.6445C152.247 55.886 152.105 56.0961 151.916 56.2799C151.722 56.4689 151.506 56.6107 151.265 56.7104C151.023 56.8102 150.776 56.8627 150.514 56.8627C150.251 56.8627 149.999 56.8102 149.758 56.7104C149.516 56.6107 149.301 56.4584 149.112 56.2694C148.923 56.0803 148.781 55.865 148.687 55.6287C148.587 55.3925 148.54 55.1404 148.54 54.8831C148.54 54.6258 148.592 54.3685 148.692 54.1217C148.792 53.8749 148.944 53.6596 149.133 53.4653C149.317 53.2816 149.527 53.1398 149.758 53.0453C149.989 52.9508 150.241 52.9035 150.514 52.9035Z" fill="#004A9A"/>
</svg>
