<svg width="154" height="50" viewBox="0 0 154 50" fill="none" xmlns="http://www.w3.org/2000/svg">
<path fill-rule="evenodd" clip-rule="evenodd" d="M120.907 47.9095C134.016 47.9095 144.71 37.2062 144.71 23.9653C144.71 10.7244 134.016 0.0298462 120.907 0.0298462H23.9442C10.7033 0.0298462 0 10.7332 0 23.9741C0 37.215 10.7033 47.9183 23.9442 47.9183H120.907V47.9095Z" fill="#E00923"/>
<path fill-rule="evenodd" clip-rule="evenodd" d="M120.907 45.7758C132.945 45.7758 142.709 36.012 142.709 23.974C142.709 11.936 132.945 2.17218 120.907 2.17218H23.9444C11.9064 2.17218 2.14258 11.936 2.14258 23.974C2.14258 36.012 11.9064 45.7758 23.9444 45.7758H120.907V45.7758Z" fill="white"/>
<path fill-rule="evenodd" clip-rule="evenodd" d="M120.907 43.6334C131.742 43.6334 140.566 34.809 140.566 23.974C140.566 13.1389 131.742 4.31458 120.907 4.31458H23.9445C13.1095 4.3058 4.27637 13.1389 4.27637 23.974C4.27637 34.809 13.1007 43.6334 23.9358 43.6334H120.898H120.907Z" fill="#E00923"/>
<path fill-rule="evenodd" clip-rule="evenodd" d="M35.71 27.179L35.8417 34.8004H44.8065L46.0094 13.1391H35.4466L35.5783 22.9029H29.2915L29.4232 13.1391H18.8604L20.195 34.8004H29.0193L29.1598 27.179H35.71Z" fill="white"/>
<path fill-rule="evenodd" clip-rule="evenodd" d="M49.3545 27.3107H55.6413V22.9029H49.3545V27.3107Z" fill="white"/>
<path fill-rule="evenodd" clip-rule="evenodd" d="M89.3408 27.3107H95.7593V22.9029H89.3408V27.3107Z" fill="white"/>
<path fill-rule="evenodd" clip-rule="evenodd" d="M81.1836 22.9029H69.813L69.9535 19.022H85.8636L86.2675 13.1391H59.3818L60.3213 34.8004H85.0646L85.4597 30.7878H69.6813V27.179H81.0519L81.1836 22.9029Z" fill="white"/>
<path fill-rule="evenodd" clip-rule="evenodd" d="M115.691 28.9174C115.559 31.0599 113.285 30.9282 111.678 30.9282H109.808V26.9155H112.881C114.348 26.9155 115.823 27.1789 115.691 28.9262V28.9174ZM113.285 18.618C114.892 18.618 116.631 19.2853 116.499 20.7604C116.499 22.6306 114.892 23.0345 113.022 23.0345H109.949V18.618H113.294H113.285ZM119.835 13.1302H99.5088L100.843 34.8003H118.501C123.848 34.8003 125.192 32.2628 125.587 30.2521C125.991 28.3818 126.122 25.4404 122.241 25.0365C125.314 24.3692 126.79 22.4989 126.79 19.0219C126.921 16.8795 125.718 13.139 119.835 13.139V13.1302Z" fill="white"/>
<path fill-rule="evenodd" clip-rule="evenodd" d="M149.434 40.1915C150.198 40.1915 150.944 40.3847 151.682 40.7798C152.411 41.1749 152.981 41.7368 153.385 42.4744C153.789 43.2032 154 43.9671 154 44.7661C154 45.5651 153.798 46.3114 153.394 47.0314C152.99 47.7602 152.428 48.3222 151.708 48.7261C150.979 49.13 150.224 49.3319 149.434 49.3319C148.644 49.3319 147.889 49.13 147.16 48.7261C146.431 48.3222 145.869 47.7602 145.465 47.0314C145.061 46.3027 144.859 45.5475 144.859 44.7661C144.859 43.9846 145.061 43.2032 145.474 42.4744C145.887 41.7368 146.457 41.1837 147.186 40.7798C147.915 40.3847 148.661 40.1915 149.434 40.1915V40.1915ZM149.434 40.9466C148.793 40.9466 148.17 41.1134 147.564 41.4383C146.958 41.7632 146.484 42.2373 146.141 42.852C145.799 43.4666 145.623 44.0988 145.623 44.7661C145.623 45.4334 145.79 46.048 146.133 46.6539C146.466 47.2597 146.94 47.7251 147.546 48.0675C148.152 48.4012 148.784 48.5768 149.443 48.5768C150.101 48.5768 150.733 48.41 151.339 48.0675C151.945 47.7339 152.411 47.2597 152.753 46.6539C153.087 46.048 153.253 45.4246 153.253 44.7661C153.253 44.1076 153.087 43.4666 152.744 42.852C152.402 42.2373 151.928 41.772 151.322 41.4383C150.716 41.1134 150.084 40.9466 149.452 40.9466H149.434ZM147.432 47.2861V42.369H149.118C149.697 42.369 150.11 42.4129 150.373 42.5007C150.628 42.5885 150.839 42.7554 150.988 42.9749C151.137 43.2032 151.216 43.4402 151.216 43.6949C151.216 44.0549 151.085 44.3622 150.83 44.6344C150.575 44.8978 150.233 45.0471 149.812 45.0822C149.987 45.1524 150.128 45.2402 150.233 45.3456C150.435 45.5388 150.672 45.8636 150.962 46.3202L151.559 47.2773H150.593L150.154 46.5046C149.812 45.8988 149.539 45.5124 149.329 45.3632C149.188 45.249 148.969 45.1963 148.696 45.1963H148.231V47.2861H147.441H147.432ZM148.222 44.5202H149.188C149.645 44.5202 149.961 44.45 150.128 44.3183C150.294 44.1778 150.382 44.0022 150.382 43.7739C150.382 43.6246 150.338 43.5017 150.259 43.3788C150.18 43.2646 150.066 43.1768 149.926 43.1241C149.785 43.0627 149.513 43.0363 149.127 43.0363H148.222V44.5202Z" fill="#E00923"/>
</svg>
