<svg width="154" height="92" viewBox="0 0 154 92" fill="none" xmlns="http://www.w3.org/2000/svg">
<path d="M6.90053 13.3023L5.77979 90.2796L11.7728 91.2352C68.2111 58.7219 131.327 65.3519 142.864 68.6552L153.057 29.1107L150.674 23.4716C130.925 13.7388 50.0432 9.24402 6.90053 13.3023Z" fill="#ACAC54"/>
<path d="M0.942871 1.5994L5.77976 90.2797C62.9966 57.318 129.392 61.2229 141.083 64.5616L151.252 23.7547C131.563 12.4057 60.9085 -5.06608 0.942871 1.5994Z" fill="#C0D73F"/>
<path d="M4.62402 9.0553L9.20138 79.0133C65.5217 51.1363 126.29 57.4714 139.314 59.4534L146.899 25.949C128.26 15.1781 61.3808 2.74375 4.62402 9.0553Z" fill="white"/>
<path d="M25.9882 65.1396V47.1369H26.1415L36.8181 62.5088C40.2629 61.7066 43.5897 60.9751 46.7986 60.3027L33.1137 40.9551L46.3149 16.0274C42.6459 16.3696 38.977 16.8179 35.3198 17.3723L26.1415 34.9503L25.9882 19.0475C23.086 19.6492 20.2075 20.3334 17.3525 21.1003V67.3811C20.3255 66.5906 23.1922 65.8474 25.9882 65.1396Z" fill="#01B1EB"/>
<path d="M44.9116 35.9176V60.7156C47.8374 60.0903 50.6805 59.524 53.4411 59.0049V35.9176H44.9116Z" fill="#01B1EB"/>
<path d="M80.2323 45.0605C83.1462 46.8655 85.2697 47.7975 86.591 47.8447C87.3107 47.8683 87.9123 47.7149 88.4078 47.3728C88.9033 47.0307 89.1629 46.606 89.1747 46.0987C89.1983 45.556 89.0095 45.1431 88.6202 44.8835C88.2309 44.6122 86.7444 43.8808 84.1844 42.6893C82.1317 41.7219 80.6688 40.6247 79.784 39.3742C78.911 38.1355 78.4981 36.6136 78.5689 34.8087C78.6633 32.2368 79.6542 30.1487 81.5418 28.5443C83.4294 26.9399 85.8006 26.1966 88.6438 26.291C91.4043 26.3854 94.743 27.5769 98.6715 29.8538L95.0969 35.7406C92.5605 34.1008 90.4488 33.2514 88.7971 33.1924C87.3579 33.1452 86.6146 33.6761 86.5792 34.7969C86.5557 35.3395 86.8034 35.8114 87.3225 36.2361C87.8416 36.6608 88.7853 37.1327 90.1774 37.6636C92.7728 38.6546 94.6368 39.7871 95.7811 41.0612C96.9255 42.3471 97.4682 43.928 97.3974 45.8273C97.303 48.5407 96.2766 50.7232 94.3419 52.3984C92.3953 54.0736 89.9651 54.8523 87.0511 54.7579C83.8895 54.6399 80.5508 53.4484 77.0234 51.1833L80.2441 45.0605H80.2323Z" fill="#01B1EB"/>
<path d="M102.541 54.345L103.591 42.7483L110.186 54.4394C112.805 54.4984 115.459 54.5928 118.184 54.7107L110.138 40.0467L120.084 30.0898L112.002 28.4382L104.169 36.1772L106.068 18.2925C103.662 17.9032 101.184 17.5374 98.6361 17.2071L94.9907 54.4276C97.48 54.3686 99.981 54.345 102.517 54.345H102.541Z" fill="#01B1EB"/>
<path d="M55.4818 29.1224C55.4818 31.9537 53.1931 34.2424 50.3617 34.2424C47.5304 34.2424 45.2417 31.9537 45.2417 29.1224C45.2417 26.291 47.5304 24.0023 50.3617 24.0023C53.1931 24.0023 55.4818 26.291 55.4818 29.1224Z" fill="#01B1EB"/>
<path d="M68.7647 25.8427C61.7335 24.7338 54.9383 30.715 53.5934 39.2208C52.2485 47.7149 56.8613 55.5129 63.8925 56.6219C70.9236 57.7308 77.7189 51.7496 79.0638 43.2437C80.4087 34.7379 75.7959 26.9517 68.7647 25.8427ZM70.5343 41.8988C70.086 44.7066 67.8563 46.6767 65.5323 46.311C63.2082 45.9453 61.6864 43.3735 62.1347 40.5657C62.5712 37.758 64.8126 35.7878 67.1367 36.1536C69.4608 36.5193 70.9826 39.0911 70.5343 41.8988Z" fill="#01B1EB"/>
<path d="M127.917 31.47C121.936 30.6206 116.167 35.1861 115.022 41.6747C113.878 48.1632 117.795 54.0972 123.776 54.9466C129.757 55.796 135.526 51.2305 136.67 44.742C137.815 38.2534 133.898 32.3194 127.917 31.47ZM129.415 43.7156C129.038 45.8509 127.138 47.361 125.168 47.0778C123.198 46.7947 121.9 44.8363 122.278 42.701C122.655 40.5657 124.555 39.0557 126.537 39.3388C128.518 39.6219 129.804 41.5803 129.427 43.7156H129.415Z" fill="#01B1EB"/>
</svg>
