<svg width="154" height="91" viewBox="0 0 154 91" fill="none" xmlns="http://www.w3.org/2000/svg">
<path d="M69.0509 26.6468C67.964 26.5298 66.76 27.3074 66.8269 28.9378L67.3118 38.5698H71.2248L70.6814 28.7538C70.6228 27.4328 69.8369 26.7639 69.0593 26.6468H69.0509Z" fill="white"/>
<path d="M111.316 3.53671H3.85938L24.7454 76.3118L24.9294 76.9138L25.1718 77.5158L25.4143 78.0593L25.7153 78.6027L26.0163 79.1462L26.3758 79.6897L26.7354 80.2332L27.1534 80.7766L27.6384 81.2616L28.0564 81.805L28.5999 82.29L29.0848 82.7749L29.6283 83.193L30.1718 83.611L30.7738 84.0291L31.3758 84.4472L31.9778 84.8652L32.5798 85.2247L33.2403 85.5257L33.8423 85.8853L34.5028 86.1863L35.1634 86.4287L35.8239 86.7297L36.5429 86.9722L37.2035 87.1562L37.864 87.3401L38.5245 87.524L39.1851 87.6411L39.8456 87.6996L40.5061 87.7582L41.1666 87.8167H112.805L113.465 87.7582L114.126 87.6996L114.786 87.6411L115.447 87.524L116.107 87.3401L116.768 87.1562L117.487 86.9722L118.147 86.7297L118.808 86.4287L119.468 86.1863L120.129 85.8853L120.789 85.5257L121.391 85.2247L122.052 84.8652L122.654 84.4472L123.197 84.0291L123.799 83.611L124.343 83.193L124.886 82.7749L125.43 82.29L125.915 81.805L126.4 81.2616L126.818 80.7766L127.236 80.2332L127.595 79.6897L127.955 79.1462L128.256 78.6027L128.557 78.0593L128.799 77.5158L129.042 76.9138L129.226 76.3118L150.145 3.53671H111.316ZM84.3434 76.9807H41.1834C38.6583 76.9807 35.5229 74.9322 34.8624 72.5827L18.6084 14.8493H43.0479L50.3304 60.0578C50.6314 62.1063 51.1749 62.8253 51.8354 63.1263C52.3789 63.3103 52.9809 63.2434 53.6414 63.2434H85.0039L84.3434 76.9723V76.9807ZM86.0909 43.3272H67.5459L67.6045 45.9192C67.6045 46.4041 68.3235 47.2402 69.0509 47.6081C69.2934 47.7252 69.5359 47.8506 69.7115 47.8506H85.7815L85.1795 59.2886H57.245C55.8571 59.2886 54.2936 57.7836 54.1765 56.6966L51.827 39.1216L49.2351 19.4395C49.0512 18.0516 50.322 16.2456 51.827 15.4095C52.3705 15.1085 52.9725 14.866 53.516 14.866H82.713C84.937 14.866 87.7129 17.0901 87.5875 19.1971L86.0825 43.3356L86.0909 43.3272ZM119.084 72.2817C118.423 74.7483 115.472 76.9807 112.88 76.9807H87.7129L88.6745 63.2517H104.209C105.831 63.2517 107.462 61.4457 107.704 59.9407L108.85 53.0177C108.85 52.9007 108.549 52.8338 108.49 52.9007L105.179 58.1348C104.694 58.8538 103.49 59.2802 102.529 59.2802H92.7798C91.1577 59.2802 89.2263 57.4157 89.2848 55.9107L92.4119 14.8577H110.171L105.054 45.6182C104.569 48.6282 108.607 49.2302 109.209 46.2202L111.316 34.8992L115.045 14.8493H134.911L119.075 72.2817H119.084Z" fill="white"/>
<path fill-rule="evenodd" clip-rule="evenodd" d="M112.219 90.7013H112.938L113.724 90.6428L114.51 90.5843L115.296 90.4672L116.082 90.2832L116.868 90.0993L117.654 89.9154L118.44 89.6729L119.226 89.3719L119.945 89.1294L120.731 88.7699L121.45 88.4689L122.236 88.1094L122.955 87.6913L123.615 87.2733L124.335 86.8552L124.995 86.3703L125.656 85.8853L126.316 85.4004L126.918 84.8569L127.52 84.3134L128.064 83.77L128.607 83.1679L129.151 82.566L129.635 81.964L130.12 81.3034L130.538 80.6429L130.898 79.9824L131.258 79.2633L131.617 78.6028L131.86 77.8837L132.102 77.1647L154 0.643829H77.0023V3.53677H150.145L129.259 76.3202L129.075 76.9222L128.833 77.5242L128.59 78.0677L128.289 78.6111L127.988 79.1546L127.629 79.6981L127.269 80.2416L126.851 80.785L126.433 81.27L125.948 81.8135L125.463 82.2984L124.92 82.7833L124.376 83.2014L123.833 83.6194L123.231 84.0375L122.687 84.4556L122.085 84.8736L121.425 85.2331L120.823 85.5341L120.162 85.8937L119.502 86.1947L118.841 86.4371L118.181 86.7381L117.52 86.9806L116.801 87.1646L116.141 87.3485L115.48 87.5324L114.82 87.6495L114.159 87.708L113.499 87.7666L112.838 87.8251H77.019V90.718H112.236L112.219 90.7013ZM77.0023 0.643829H0.00488281L21.9193 77.1563L22.1618 77.8754L22.4628 78.5944L22.7638 79.255L23.1233 79.974L23.4829 80.6345L23.9678 81.2951L24.3859 81.9556L24.8708 82.5576L25.4143 83.1596L25.9578 83.7616L26.5598 84.3051L27.1032 84.8485L27.7638 85.392L28.3658 85.877L29.0263 86.3619L29.6868 86.8468L30.4059 87.2649L31.1249 87.6829L31.844 88.101L32.563 88.4605L33.2821 88.7615L34.068 89.1211L34.854 89.3635L35.573 89.6645L36.359 89.907L37.1449 90.091L37.9309 90.2749L38.7168 90.4588L39.5028 90.5759L40.2887 90.6344L41.0746 90.6929H77.0107V87.8H41.1833L40.5228 87.7415L39.8623 87.6829L39.2018 87.6244L38.5412 87.5074L37.8807 87.3234L37.2202 87.1395L36.5596 86.9555L35.8406 86.7131L35.1801 86.4121L34.5195 86.1696L33.859 85.8686L33.257 85.5091L32.5965 85.2081L31.9945 84.8485L31.3925 84.4305L30.7905 84.0124L30.1885 83.5944L29.645 83.1763L29.1015 82.7583L28.6166 82.2733L28.0731 81.7884L27.6551 81.2449L27.1701 80.7599L26.7521 80.2165L26.3925 79.673L26.033 79.1295L25.732 78.5861L25.431 78.0426L25.1885 77.4991L24.9461 76.8971L24.7621 76.2951L3.85935 3.53677H77.0023V0.643829Z" fill="#1D1D1B"/>
<path d="M53.6414 63.2519C52.1364 63.2519 50.8739 63.6114 50.3304 60.058L43.0479 14.8495H18.6084L34.8624 72.5829C35.5229 74.9324 38.6583 76.9809 41.1834 76.9809H84.3434L85.004 63.2519H53.6414Z" fill="#E73137"/>
<path d="M115.046 14.8494L109.21 46.212C108.608 49.2219 104.578 48.6199 105.054 45.6099L110.171 14.8494H92.4123L89.2853 55.9025C89.2267 57.4075 91.1498 59.272 92.7802 59.272H102.529C103.491 59.272 104.695 58.8539 105.18 58.1265L108.491 52.8925C108.549 52.8339 108.85 52.8925 108.85 53.0095L107.705 59.9325C107.462 61.4375 105.84 63.2435 104.21 63.2435H88.6749L87.7134 76.9725H112.88C115.472 76.9725 118.415 74.7484 119.084 72.2735L134.92 14.8411H115.054L115.046 14.8494Z" fill="#E73137"/>
<path d="M82.7214 14.8494H53.5244C51.476 14.8494 49.0094 17.5584 49.2519 19.423L54.185 56.6884C54.302 57.7754 55.8739 59.2803 57.2535 59.2803H85.188L85.79 47.8424H69.7199C68.8169 47.8424 67.6129 46.5798 67.6129 45.9193L67.5544 43.3274H86.0993L87.6043 19.1888C87.7214 17.0818 84.9538 14.8578 82.7298 14.8578L82.7214 14.8494ZM67.3119 38.5699L67.128 34.5398L66.827 28.9379C66.827 28.3944 66.8855 27.9764 67.128 27.6168C67.9724 26.0533 70.556 26.2958 70.6814 28.7623L71.2249 38.5782H67.3119V38.5699Z" fill="#E73137"/>
</svg>
