<svg width="82" height="85" viewBox="0 0 82 85" fill="none" xmlns="http://www.w3.org/2000/svg">
<path d="M81.5132 0.873291H0.486328V84.9725H81.5132V0.873291Z" fill="#006546"/>
<path d="M51.0755 76.6973V79.8521H31.6385V76.6931H16.9296C15.4884 76.6931 14.324 75.19 14.324 73.3401L8.17529 11.1019C8.17529 9.24779 9.60819 7.74883 11.3756 7.74883H70.8016C72.569 7.74883 74.0061 9.25192 74.0061 11.1019L67.9235 73.3401C67.9235 75.19 66.7548 76.6931 65.3178 76.6931H51.0755V76.6973Z" fill="white"/>
<path d="M18.9858 16.8581H58.7766C54.8579 18.3282 42.9322 26.4011 39.9508 31.8271H19.0313L18.9858 16.8581Z" fill="#FF6600"/>
<path d="M50.7001 59.7543C50.1343 65.1762 50.1137 71.7791 50.1137 78.7082H32.8652C32.8652 71.7749 33.1502 65.172 33.7159 59.7543H50.7001Z" fill="#FE000C"/>
<path d="M17.7188 47.325H24.0243V49.8191H21.2659V51.921H24.0243V54.0228H21.2659V56.1247H24.0243V58.5321H17.7188V47.325Z" fill="#006546"/>
<path d="M32.3818 47.325H38.6874V49.8191H35.929V51.921H38.6874V54.0228H35.929V56.1247H38.6874V58.5321H32.3818V47.325Z" fill="#006546"/>
<path d="M48.5356 47.325H54.8371V49.8191H52.0787V51.921H54.8371V54.0228H52.0787V56.1247H54.8371V58.5321H48.5356V47.325Z" fill="#006546"/>
<path d="M28.7481 56.1247H31.5065V58.5321H25.2051V47.325H28.7481V56.1247Z" fill="#006546"/>
<path d="M39.3315 47.325L41.0865 58.5321H45.6454L47.7803 47.325H45.1416L43.7624 54.8983L42.4245 47.325H39.3315Z" fill="#006546"/>
<path d="M59.7436 47.325H56.3286V58.5321H59.7436V47.325Z" fill="#006546"/>
<path d="M59.7432 50.653C59.9207 49.4266 61.6716 49.7528 61.6716 50.4548V58.5319H65.0866V49.0343C65.0866 47.0192 62.2414 46.2098 59.7679 47.9854" fill="#006546"/>
<path d="M52.302 45.7476C52.6489 41.4571 58.5168 34.4537 64.2071 32.6161V16.0696C48.5567 23.0731 38.3777 33.665 36.1768 45.7063L52.2979 45.7476H52.302Z" fill="#FE000C"/>
<path d="M56.8403 64.5196C56.3984 64.9615 55.8657 65.1845 55.238 65.1845C54.6104 65.1845 54.0777 64.9615 53.64 64.5196C53.2023 64.0778 52.9834 63.5451 52.9834 62.9174C52.9834 62.2898 53.2064 61.7653 53.6482 61.3235C54.0859 60.8858 54.6186 60.6669 55.2422 60.6669C55.8657 60.6669 56.4025 60.8858 56.8444 61.3235C57.2862 61.7612 57.5092 62.2939 57.5092 62.9174C57.5092 63.541 57.2862 64.0778 56.8444 64.5196H56.8403ZM53.863 61.5423C53.4831 61.9222 53.2972 62.3806 53.2972 62.9174C53.2972 63.4543 53.4831 63.9209 53.863 64.3008C54.2387 64.6807 54.7012 64.8748 55.2422 64.8748C55.7831 64.8748 56.2415 64.6848 56.6255 64.3008C57.0054 63.9209 57.1913 63.4584 57.1913 62.9174C57.1913 62.3765 57.0013 61.9222 56.6255 61.5423C56.2415 61.1624 55.7831 60.9725 55.2422 60.9725C54.7012 60.9725 54.247 61.1624 53.863 61.5423ZM55.2009 61.6662C55.5106 61.6662 55.7377 61.6951 55.8781 61.7571C56.1341 61.8644 56.2663 62.075 56.2663 62.3889C56.2663 62.6119 56.1837 62.7729 56.0268 62.8803C55.94 62.934 55.8203 62.9752 55.6675 63C55.8575 63.0331 55.9979 63.1115 56.0887 63.2437C56.1795 63.3758 56.225 63.5038 56.225 63.6277V63.8094C56.225 63.8672 56.225 63.9291 56.2291 63.9952C56.2291 64.0613 56.2415 64.1026 56.2497 64.1232L56.2663 64.1563H55.8575C55.8575 64.1563 55.8575 64.1397 55.8533 64.1315C55.8533 64.1232 55.8533 64.1108 55.8451 64.1026L55.8368 64.0241V63.8259C55.8368 63.541 55.7584 63.351 55.6014 63.256C55.5065 63.2024 55.3454 63.1776 55.11 63.1776H54.7632V64.1563H54.3296V61.6704H55.2009V61.6662ZM55.6799 62.0668C55.5684 62.0048 55.3908 61.9759 55.1431 61.9759H54.7673V62.8637H55.1678C55.3578 62.8637 55.4941 62.8472 55.589 62.8101C55.7625 62.744 55.8492 62.616 55.8492 62.426C55.8492 62.2485 55.7955 62.1287 55.684 62.0668" fill="#006546"/>
</svg>
