<svg width="154" height="35" viewBox="0 0 154 35" fill="none" xmlns="http://www.w3.org/2000/svg">
<path fill-rule="evenodd" clip-rule="evenodd" d="M85.7272 22.2323C85.7272 22.5278 85.6967 22.8303 85.6193 23.0954C85.2862 24.2025 84.1393 25.1406 82.7039 25.1406C81.5123 25.1406 80.5577 24.4581 80.5577 23.025C80.5577 20.8297 82.9759 20.2245 85.7295 20.2362V22.2323H85.7272ZM90.0405 18.4068C90.0405 14.7854 88.4948 11.6002 83.2691 11.6002C80.5859 11.6002 78.4562 12.3531 77.2952 13.0239L78.1442 15.9346C79.2091 15.2615 80.9002 14.708 82.5045 14.708C85.1549 14.7009 85.5864 16.2067 85.5864 17.1754V17.4006C79.8095 17.3935 76.1553 19.3942 76.1553 23.4707C76.1553 25.9616 78.0176 28.2953 81.2473 28.2953C83.2386 28.2953 84.9016 27.5025 85.8984 26.2313H85.9969C85.9969 26.2313 86.656 28.9896 90.2915 27.9388C90.1038 26.7848 90.0405 25.5581 90.0405 24.0852V18.4044V18.4068Z" fill="#0078BF"/>
<path fill-rule="evenodd" clip-rule="evenodd" d="M0 6.66998C0 6.66998 3.77622 22.1431 4.38136 24.6528C5.08266 27.5893 6.35156 28.6659 10.0035 27.9411L12.3607 18.3434C12.9588 15.9604 13.3599 14.2623 13.7422 11.8371H13.8102C14.0823 14.2858 14.4669 15.9698 14.9571 18.3552C14.9571 18.3552 15.9164 22.7084 16.409 24.9952C16.9015 27.2797 18.2713 28.7222 21.8528 27.9388L27.475 6.66998H22.9388L21.0202 15.8643C20.5042 18.5405 20.0327 20.6326 19.6762 23.0813H19.6106C19.2822 20.6584 18.867 18.6484 18.3417 16.0425L16.3433 6.67233H11.6172L9.48043 15.8056C8.8753 18.5803 8.30769 20.825 7.94649 23.1869H7.88081C7.51023 20.9587 7.02002 18.1441 6.48994 15.4562C6.48994 15.4562 5.22104 8.92164 4.7754 6.66998H0Z" fill="#0078BF"/>
<path fill-rule="evenodd" clip-rule="evenodd" d="M36.0481 22.2323C36.0481 22.5278 36.0223 22.8303 35.9402 23.0954C35.6071 24.2025 34.4602 25.1406 33.0271 25.1406C31.8332 25.1406 30.881 24.4581 30.881 23.025C30.881 20.8297 33.2945 20.2245 36.0457 20.2362V22.2323H36.0481ZM40.3614 18.4068C40.3614 14.7854 38.8181 11.6002 33.59 11.6002C30.9068 11.6002 28.7771 12.3531 27.6137 13.0239L28.4675 15.9346C29.53 15.2615 31.2211 14.708 32.8254 14.708C35.4758 14.7009 35.9097 16.2067 35.9097 17.1754V17.4006C30.1281 17.3935 26.4785 19.3942 26.4785 23.4707C26.4785 25.9616 28.3385 28.2953 31.5682 28.2953C33.5572 28.2953 35.2225 27.5025 36.2193 26.2313H36.3178C36.3178 26.2313 36.9792 28.9896 40.6171 27.9388C40.4247 26.7848 40.3614 25.5581 40.3614 24.0852V18.4044V18.4068Z" fill="#0078BF"/>
<path fill-rule="evenodd" clip-rule="evenodd" d="M47.5622 23.4214V6.66998H43.2441V27.9411H47.5622V23.4214Z" fill="#0078BF"/>
<path fill-rule="evenodd" clip-rule="evenodd" d="M104.071 6.66998V22.3612C104.071 24.5191 104.475 26.039 105.35 26.9654C106.11 27.7746 107.36 28.2977 108.861 28.2977C110.141 28.2977 111.399 28.0561 111.99 27.8356L111.933 24.4605C111.492 24.5683 110.986 24.6528 110.294 24.6528C108.823 24.6528 108.328 23.7146 108.328 21.7678V15.7704H112.088V11.701H108.328V6.66998H104.071Z" fill="#0078BF"/>
<path fill-rule="evenodd" clip-rule="evenodd" d="M92.9189 11.9614V27.9412H97.373V19.7554C97.373 19.3168 97.4012 18.9298 97.4692 18.578C97.7999 16.8658 99.1087 15.7728 100.994 15.7728C101.51 15.7728 101.879 15.8267 102.277 15.883V11.701C101.944 11.6307 101.719 11.6002 101.297 11.6002C99.6341 11.6002 97.7436 12.6721 96.9508 14.9753H96.8265V11.9637H92.9189V11.9614Z" fill="#0078BF"/>
<path fill-rule="evenodd" clip-rule="evenodd" d="M50.5869 11.9614V27.9412H54.9261V18.571C54.9261 18.13 54.9777 17.6656 55.1325 17.2622C55.4913 16.3193 56.3685 15.2122 57.7711 15.2122C59.5232 15.2122 60.3418 16.6946 60.3418 18.8336V27.9412H64.6786V18.4584C64.6786 18.0385 64.7372 17.5343 64.8592 17.1613C65.218 16.0894 66.1633 15.2122 67.4673 15.2122C69.2429 15.2122 70.0943 16.6688 70.0943 19.1855V27.9412H74.4381V18.5287C74.4381 13.5634 71.9167 11.6002 69.0716 11.6002C67.8098 11.6002 66.8176 11.9168 65.9193 12.468C65.1617 12.9324 64.4862 13.5915 63.8952 14.4593H63.8318C63.1446 12.7377 61.5309 11.6025 59.427 11.6025C56.7274 11.6025 55.5124 12.9699 54.7736 14.1357H54.7103V11.9661H50.5893L50.5869 11.9614Z" fill="#0078BF"/>
<path fill-rule="evenodd" clip-rule="evenodd" d="M136.303 12.196C137.086 12.196 137.733 11.7855 137.823 11.2554L138.599 2.47162C138.599 1.60614 137.579 0.893112 136.303 0.893112C135.027 0.893112 134.009 1.60614 134.009 2.47162L134.785 11.2554C134.87 11.7855 135.522 12.196 136.305 12.196H136.3H136.303Z" fill="#FCBD1B"/>
<path fill-rule="evenodd" clip-rule="evenodd" d="M131.555 14.9379C131.949 14.2577 131.916 13.4931 131.504 13.1553L124.282 8.08908C123.531 7.65517 122.403 8.17586 121.768 9.28528C121.127 10.3923 121.24 11.6284 121.988 12.0647L129.981 15.7869C130.481 15.9722 131.164 15.6134 131.558 14.9355V14.9402L131.555 14.9379Z" fill="#FCBD1B"/>
<path fill-rule="evenodd" clip-rule="evenodd" d="M141.055 14.9355C141.449 15.6157 142.127 15.9745 142.629 15.7869L150.625 12.0646C151.375 11.6284 151.483 10.3923 150.843 9.28522C150.205 8.17815 149.079 7.65511 148.326 8.08902L141.107 13.1553C140.694 13.493 140.666 14.26 141.055 14.9378V14.9331V14.9355Z" fill="#FCBD1B"/>
<path fill-rule="evenodd" clip-rule="evenodd" d="M136.303 23.1635C137.086 23.1635 137.733 23.5739 137.823 24.1017L138.599 32.8878C138.599 33.7533 137.579 34.4687 136.303 34.4687C135.027 34.4687 134.009 33.7533 134.009 32.8878L134.785 24.1017C134.87 23.5739 135.522 23.1635 136.305 23.1635H136.3H136.303Z" fill="#FCBD1B"/>
<path fill-rule="evenodd" clip-rule="evenodd" d="M141.055 20.4263C141.449 19.7461 142.127 19.3873 142.629 19.5749L150.625 23.2948C151.375 23.7311 151.483 24.9648 150.843 26.0742C150.205 27.179 149.079 27.7043 148.326 27.2751L141.107 22.2089C140.694 21.8664 140.666 21.1018 141.055 20.4216V20.4263Z" fill="#FCBD1B"/>
<path fill-rule="evenodd" clip-rule="evenodd" d="M131.555 20.4238C131.949 21.104 131.916 21.8687 131.504 22.2111L124.282 27.2727C123.531 27.7066 122.403 27.1835 121.768 26.0788C121.127 24.9694 121.24 23.7357 121.988 23.2971L129.981 19.5795C130.481 19.3895 131.164 19.746 131.558 20.4285L131.555 20.4238Z" fill="#FCBD1B"/>
<path fill-rule="evenodd" clip-rule="evenodd" d="M151.356 28.7105C151.436 28.7574 151.558 28.7996 151.684 28.7996C151.846 28.7996 151.933 28.7269 151.933 28.6143C151.933 28.5088 151.863 28.4502 151.689 28.3892C151.466 28.3047 151.323 28.1875 151.323 27.9928C151.323 27.7676 151.509 27.5964 151.806 27.5964C151.952 27.5964 152.064 27.6292 152.135 27.6668L152.071 27.8685C152.022 27.8403 151.928 27.8005 151.802 27.8005C151.642 27.8005 151.577 27.8849 151.577 27.9646C151.577 28.0725 151.654 28.1194 151.837 28.1898C152.071 28.2766 152.186 28.3986 152.186 28.5932C152.186 28.8137 152.022 29.0037 151.67 29.0037C151.525 29.0037 151.375 28.9638 151.3 28.9193L151.356 28.7105Z" fill="#FCBD1B"/>
<path fill-rule="evenodd" clip-rule="evenodd" d="M153.566 28.4267C153.554 28.2508 153.545 28.0397 153.545 27.8544H153.54C153.498 28.0209 153.441 28.2062 153.378 28.3774L153.181 28.9685H152.989L152.806 28.3845C152.754 28.2086 152.705 28.0233 152.672 27.8544H152.665C152.66 28.0303 152.649 28.2484 152.642 28.4361L152.611 28.9826H152.379L152.47 27.6199H152.796L152.977 28.1687C153.026 28.3258 153.066 28.49 153.104 28.6401H153.108C153.144 28.4947 153.19 28.3235 153.244 28.1664L153.432 27.6199H153.756L153.838 28.9826H153.594L153.568 28.4244L153.566 28.4267Z" fill="#FCBD1B"/>
</svg>
