<svg width="155" height="72" viewBox="0 0 155 72" fill="none" xmlns="http://www.w3.org/2000/svg">
<path d="M148.532 12.6476H142.783V6.8992C142.783 3.33831 139.897 0.451691 136.336 0.451691C132.775 0.451691 129.888 3.33831 129.888 6.8992V12.6476H124.14C120.579 12.6476 117.692 15.5342 117.692 19.0951C117.692 22.656 120.579 25.5426 124.14 25.5426H129.888V31.291C129.888 34.8519 132.775 37.7385 136.336 37.7385C139.897 37.7385 142.783 34.8519 142.783 31.291V25.5426H148.532C152.093 25.5426 154.979 22.656 154.979 19.0951C154.979 15.5342 152.093 12.6476 148.532 12.6476Z" fill="#009938"/>
<path d="M143.367 14.745C143.581 14.745 143.755 14.5711 143.755 14.3566C143.755 14.1421 143.581 13.9682 143.367 13.9682C143.152 13.9682 142.979 14.1421 142.979 14.3566C142.979 14.5711 143.152 14.745 143.367 14.745Z" fill="#101881"/>
<path d="M143.367 16.687C143.581 16.687 143.755 16.5131 143.755 16.2986C143.755 16.0841 143.581 15.9102 143.367 15.9102C143.152 15.9102 142.979 16.0841 142.979 16.2986C142.979 16.5131 143.152 16.687 143.367 16.687Z" fill="#101881"/>
<path d="M143.367 18.629C143.581 18.629 143.755 18.4551 143.755 18.2406C143.755 18.026 143.581 17.8522 143.367 17.8522C143.152 17.8522 142.979 18.026 142.979 18.2406C142.979 18.4551 143.152 18.629 143.367 18.629Z" fill="#101881"/>
<path d="M143.367 20.571C143.581 20.571 143.755 20.3971 143.755 20.1826C143.755 19.9681 143.581 19.7942 143.367 19.7942C143.152 19.7942 142.979 19.9681 142.979 20.1826C142.979 20.3971 143.152 20.571 143.367 20.571Z" fill="#101881"/>
<path d="M143.367 22.5131C143.581 22.5131 143.755 22.3392 143.755 22.1247C143.755 21.9102 143.581 21.7363 143.367 21.7363C143.152 21.7363 142.979 21.9102 142.979 22.1247C142.979 22.3392 143.152 22.5131 143.367 22.5131Z" fill="#101881"/>
<path d="M143.367 24.4551C143.581 24.4551 143.755 24.2812 143.755 24.0667C143.755 23.8522 143.581 23.6783 143.367 23.6783C143.152 23.6783 142.979 23.8522 142.979 24.0667C142.979 24.2812 143.152 24.4551 143.367 24.4551Z" fill="#101881"/>
<path d="M144.337 15.7175C144.551 15.7175 144.725 15.5436 144.725 15.3291C144.725 15.1146 144.551 14.9407 144.337 14.9407C144.122 14.9407 143.948 15.1146 143.948 15.3291C143.948 15.5436 144.122 15.7175 144.337 15.7175Z" fill="#101881"/>
<path d="M144.337 17.6564C144.551 17.6564 144.725 17.4825 144.725 17.268C144.725 17.0535 144.551 16.8796 144.337 16.8796C144.122 16.8796 143.948 17.0535 143.948 17.268C143.948 17.4825 144.122 17.6564 144.337 17.6564Z" fill="#101881"/>
<path d="M144.337 19.6015C144.551 19.6015 144.725 19.4276 144.725 19.2131C144.725 18.9985 144.551 18.8246 144.337 18.8246C144.122 18.8246 143.948 18.9985 143.948 19.2131C143.948 19.4276 144.122 19.6015 144.337 19.6015Z" fill="#101881"/>
<path d="M144.337 21.5404C144.551 21.5404 144.725 21.3665 144.725 21.152C144.725 20.9375 144.551 20.7636 144.337 20.7636C144.122 20.7636 143.948 20.9375 143.948 21.152C143.948 21.3665 144.122 21.5404 144.337 21.5404Z" fill="#101881"/>
<path d="M144.337 23.4855C144.551 23.4855 144.725 23.3116 144.725 23.0971C144.725 22.8826 144.551 22.7087 144.337 22.7087C144.122 22.7087 143.948 22.8826 143.948 23.0971C143.948 23.3116 144.122 23.4855 144.337 23.4855Z" fill="#101881"/>
<path d="M145.263 14.7015C145.453 14.7015 145.608 14.547 145.608 14.3565C145.608 14.1661 145.453 14.0116 145.263 14.0116C145.072 14.0116 144.918 14.1661 144.918 14.3565C144.918 14.547 145.072 14.7015 145.263 14.7015Z" fill="#101881"/>
<path d="M145.263 16.6435C145.453 16.6435 145.608 16.489 145.608 16.2986C145.608 16.1081 145.453 15.9537 145.263 15.9537C145.072 15.9537 144.918 16.1081 144.918 16.2986C144.918 16.489 145.072 16.6435 145.263 16.6435Z" fill="#101881"/>
<path d="M145.263 18.5854C145.453 18.5854 145.608 18.431 145.608 18.2405C145.608 18.05 145.453 17.8956 145.263 17.8956C145.072 17.8956 144.918 18.05 144.918 18.2405C144.918 18.431 145.072 18.5854 145.263 18.5854Z" fill="#101881"/>
<path d="M145.261 20.5213C145.448 20.5213 145.599 20.3696 145.599 20.1826C145.599 19.9955 145.448 19.8439 145.261 19.8439C145.074 19.8439 144.922 19.9955 144.922 20.1826C144.922 20.3696 145.074 20.5213 145.261 20.5213Z" fill="#101881"/>
<path d="M145.263 22.4695C145.453 22.4695 145.608 22.3151 145.608 22.1246C145.608 21.9342 145.453 21.7797 145.263 21.7797C145.072 21.7797 144.918 21.9342 144.918 22.1246C144.918 22.3151 145.072 22.4695 145.263 22.4695Z" fill="#101881"/>
<path d="M145.263 24.4116C145.453 24.4116 145.608 24.2571 145.608 24.0667C145.608 23.8762 145.453 23.7218 145.263 23.7218C145.072 23.7218 144.918 23.8762 144.918 24.0667C144.918 24.2571 145.072 24.4116 145.263 24.4116Z" fill="#101881"/>
<path d="M146.208 15.6305C146.374 15.6305 146.509 15.4956 146.509 15.3291C146.509 15.1626 146.374 15.0277 146.208 15.0277C146.041 15.0277 145.906 15.1626 145.906 15.3291C145.906 15.4956 146.041 15.6305 146.208 15.6305Z" fill="#101881"/>
<path d="M146.208 17.5694C146.374 17.5694 146.509 17.4345 146.509 17.268C146.509 17.1016 146.374 16.9666 146.208 16.9666C146.041 16.9666 145.906 17.1016 145.906 17.268C145.906 17.4345 146.041 17.5694 146.208 17.5694Z" fill="#101881"/>
<path d="M146.201 19.5084C146.364 19.5084 146.497 19.3762 146.497 19.2132C146.497 19.0502 146.364 18.918 146.201 18.918C146.038 18.918 145.906 19.0502 145.906 19.2132C145.906 19.3762 146.038 19.5084 146.201 19.5084Z" fill="#101881"/>
<path d="M146.208 21.4535C146.374 21.4535 146.509 21.3186 146.509 21.1521C146.509 20.9856 146.374 20.8507 146.208 20.8507C146.041 20.8507 145.906 20.9856 145.906 21.1521C145.906 21.3186 146.041 21.4535 146.208 21.4535Z" fill="#101881"/>
<path d="M146.208 23.3986C146.374 23.3986 146.509 23.2637 146.509 23.0972C146.509 22.9307 146.374 22.7958 146.208 22.7958C146.041 22.7958 145.906 22.9307 145.906 23.0972C145.906 23.2637 146.041 23.3986 146.208 23.3986Z" fill="#101881"/>
<path d="M147.14 14.6984C147.28 14.6984 147.394 14.5843 147.394 14.4436C147.394 14.3029 147.28 14.1888 147.14 14.1888C146.999 14.1888 146.885 14.3029 146.885 14.4436C146.885 14.5843 146.999 14.6984 147.14 14.6984Z" fill="#101881"/>
<path d="M147.186 16.6404C147.327 16.6404 147.441 16.5263 147.441 16.3856C147.441 16.2449 147.327 16.1308 147.186 16.1308C147.046 16.1308 146.932 16.2449 146.932 16.3856C146.932 16.5263 147.046 16.6404 147.186 16.6404Z" fill="#101881"/>
<path d="M147.18 18.5793C147.319 18.5793 147.432 18.4667 147.432 18.3277C147.432 18.1887 147.319 18.076 147.18 18.076C147.041 18.076 146.929 18.1887 146.929 18.3277C146.929 18.4667 147.041 18.5793 147.18 18.5793Z" fill="#101881"/>
<path d="M147.186 20.5243C147.327 20.5243 147.441 20.4103 147.441 20.2695C147.441 20.1288 147.327 20.0147 147.186 20.0147C147.046 20.0147 146.932 20.1288 146.932 20.2695C146.932 20.4103 147.046 20.5243 147.186 20.5243Z" fill="#101881"/>
<path d="M147.186 22.4664C147.327 22.4664 147.441 22.3524 147.441 22.2116C147.441 22.0709 147.327 21.9569 147.186 21.9569C147.046 21.9569 146.932 22.0709 146.932 22.2116C146.932 22.3524 147.046 22.4664 147.186 22.4664Z" fill="#101881"/>
<path d="M147.186 24.2344C147.327 24.2344 147.441 24.1203 147.441 23.9796C147.441 23.8389 147.327 23.7248 147.186 23.7248C147.046 23.7248 146.932 23.8389 146.932 23.9796C146.932 24.1203 147.046 24.2344 147.186 24.2344Z" fill="#101881"/>
<path d="M148.108 15.6709C148.249 15.6709 148.363 15.5568 148.363 15.4161C148.363 15.2754 148.249 15.1613 148.108 15.1613C147.968 15.1613 147.854 15.2754 147.854 15.4161C147.854 15.5568 147.968 15.6709 148.108 15.6709Z" fill="#101881"/>
<path d="M148.105 17.6098C148.244 17.6098 148.357 17.4971 148.357 17.3581C148.357 17.2191 148.244 17.1064 148.105 17.1064C147.966 17.1064 147.854 17.2191 147.854 17.3581C147.854 17.4971 147.966 17.6098 148.105 17.6098Z" fill="#101881"/>
<path d="M148.108 19.5549C148.249 19.5549 148.363 19.4408 148.363 19.3001C148.363 19.1594 148.249 19.0453 148.108 19.0453C147.968 19.0453 147.854 19.1594 147.854 19.3001C147.854 19.4408 147.968 19.5549 148.108 19.5549Z" fill="#101881"/>
<path d="M148.108 21.497C148.249 21.497 148.363 21.383 148.363 21.2422C148.363 21.1015 148.249 20.9874 148.108 20.9874C147.968 20.9874 147.854 21.1015 147.854 21.2422C147.854 21.383 147.968 21.497 148.108 21.497Z" fill="#101881"/>
<path d="M148.108 23.2618C148.249 23.2618 148.363 23.1477 148.363 23.007C148.363 22.8663 148.249 22.7522 148.108 22.7522C147.968 22.7522 147.854 22.8663 147.854 23.007C147.854 23.1477 147.968 23.2618 148.108 23.2618Z" fill="#101881"/>
<path d="M148.997 14.4871C149.114 14.4871 149.209 14.3925 149.209 14.2758C149.209 14.1591 149.114 14.0645 148.997 14.0645C148.881 14.0645 148.786 14.1591 148.786 14.2758C148.786 14.3925 148.881 14.4871 148.997 14.4871Z" fill="#101881"/>
<path d="M149.041 16.4198C149.152 16.4198 149.243 16.3294 149.243 16.2178C149.243 16.1063 149.152 16.0159 149.041 16.0159C148.929 16.0159 148.839 16.1063 148.839 16.2178C148.839 16.3294 148.929 16.4198 149.041 16.4198Z" fill="#101881"/>
<path d="M149.038 18.368C149.153 18.368 149.246 18.2748 149.246 18.1598C149.246 18.0448 149.153 17.9516 149.038 17.9516C148.923 17.9516 148.83 18.0448 148.83 18.1598C148.83 18.2748 148.923 18.368 149.038 18.368Z" fill="#101881"/>
<path d="M149.041 20.3132C149.158 20.3132 149.253 20.2186 149.253 20.1019C149.253 19.9852 149.158 19.8906 149.041 19.8906C148.925 19.8906 148.83 19.9852 148.83 20.1019C148.83 20.2186 148.925 20.3132 149.041 20.3132Z" fill="#101881"/>
<path d="M149.041 22.2552C149.158 22.2552 149.253 22.1606 149.253 22.0439C149.253 21.9272 149.158 21.8326 149.041 21.8326C148.925 21.8326 148.83 21.9272 148.83 22.0439C148.83 22.1606 148.925 22.2552 149.041 22.2552Z" fill="#101881"/>
<path d="M149.041 24.0231C149.158 24.0231 149.253 23.9285 149.253 23.8119C149.253 23.6952 149.158 23.6006 149.041 23.6006C148.925 23.6006 148.83 23.6952 148.83 23.8119C148.83 23.9285 148.925 24.0231 149.041 24.0231Z" fill="#101881"/>
<path d="M149.973 15.584C150.066 15.584 150.141 15.5089 150.141 15.4162C150.141 15.3236 150.066 15.2485 149.973 15.2485C149.881 15.2485 149.806 15.3236 149.806 15.4162C149.806 15.5089 149.881 15.584 149.973 15.584Z" fill="#101881"/>
<path d="M149.97 17.52C150.059 17.52 150.132 17.4476 150.132 17.3584C150.132 17.2692 150.059 17.1968 149.97 17.1968C149.881 17.1968 149.809 17.2692 149.809 17.3584C149.809 17.4476 149.881 17.52 149.97 17.52Z" fill="#101881"/>
<path d="M149.973 19.4681C150.066 19.4681 150.141 19.393 150.141 19.3003C150.141 19.2076 150.066 19.1325 149.973 19.1325C149.881 19.1325 149.806 19.2076 149.806 19.3003C149.806 19.393 149.881 19.4681 149.973 19.4681Z" fill="#101881"/>
<path d="M149.974 21.3642C150.041 21.3642 150.096 21.3098 150.096 21.2427C150.096 21.1756 150.041 21.1212 149.974 21.1212C149.907 21.1212 149.853 21.1756 149.853 21.2427C149.853 21.3098 149.907 21.3642 149.974 21.3642Z" fill="#101881"/>
<path d="M149.973 23.1323C150.042 23.1323 150.098 23.0765 150.098 23.0076C150.098 22.9388 150.042 22.8829 149.973 22.8829C149.904 22.8829 149.849 22.9388 149.849 23.0076C149.849 23.0765 149.904 23.1323 149.973 23.1323Z" fill="#101881"/>
<path d="M150.862 14.4008C150.931 14.4008 150.987 14.345 150.987 14.2762C150.987 14.2073 150.931 14.1515 150.862 14.1515C150.793 14.1515 150.737 14.2073 150.737 14.2762C150.737 14.345 150.793 14.4008 150.862 14.4008Z" fill="#101881"/>
<path d="M150.906 16.3429C150.975 16.3429 151.031 16.287 151.031 16.2182C151.031 16.1494 150.975 16.0935 150.906 16.0935C150.837 16.0935 150.781 16.1494 150.781 16.2182C150.781 16.287 150.837 16.3429 150.906 16.3429Z" fill="#101881"/>
<path d="M150.9 18.2787C150.965 18.2787 151.018 18.2257 151.018 18.1603C151.018 18.0948 150.965 18.0418 150.9 18.0418C150.834 18.0418 150.781 18.0948 150.781 18.1603C150.781 18.2257 150.834 18.2787 150.9 18.2787Z" fill="#101881"/>
<path d="M150.906 20.2269C150.975 20.2269 151.031 20.1711 151.031 20.1023C151.031 20.0334 150.975 19.9776 150.906 19.9776C150.837 19.9776 150.781 20.0334 150.781 20.1023C150.781 20.1711 150.837 20.2269 150.906 20.2269Z" fill="#101881"/>
<path d="M150.906 22.1689C150.975 22.1689 151.031 22.1131 151.031 22.0443C151.031 21.9754 150.975 21.9196 150.906 21.9196C150.837 21.9196 150.781 21.9754 150.781 22.0443C150.781 22.1131 150.837 22.1689 150.906 22.1689Z" fill="#101881"/>
<path d="M150.906 23.937C150.975 23.937 151.031 23.8812 151.031 23.8123C151.031 23.7435 150.975 23.6877 150.906 23.6877C150.837 23.6877 150.781 23.7435 150.781 23.8123C150.781 23.8812 150.837 23.937 150.906 23.937Z" fill="#101881"/>
<path d="M141.306 26.3846C141.521 26.3846 141.695 26.2107 141.695 25.9962C141.695 25.7817 141.521 25.6078 141.306 25.6078C141.092 25.6078 140.918 25.7817 140.918 25.9962C140.918 26.2107 141.092 26.3846 141.306 26.3846Z" fill="#101881"/>
<path d="M139.365 26.3846C139.579 26.3846 139.753 26.2107 139.753 25.9962C139.753 25.7817 139.579 25.6078 139.365 25.6078C139.15 25.6078 138.977 25.7817 138.977 25.9962C138.977 26.2107 139.15 26.3846 139.365 26.3846Z" fill="#101881"/>
<path d="M137.423 26.3846C137.637 26.3846 137.811 26.2107 137.811 25.9962C137.811 25.7817 137.637 25.6078 137.423 25.6078C137.208 25.6078 137.034 25.7817 137.034 25.9962C137.034 26.2107 137.208 26.3846 137.423 26.3846Z" fill="#101881"/>
<path d="M135.48 26.3846C135.695 26.3846 135.869 26.2107 135.869 25.9962C135.869 25.7817 135.695 25.6078 135.48 25.6078C135.266 25.6078 135.092 25.7817 135.092 25.9962C135.092 26.2107 135.266 26.3846 135.48 26.3846Z" fill="#101881"/>
<path d="M133.538 26.3846C133.752 26.3846 133.926 26.2107 133.926 25.9962C133.926 25.7817 133.752 25.6078 133.538 25.6078C133.323 25.6078 133.149 25.7817 133.149 25.9962C133.149 26.2107 133.323 26.3846 133.538 26.3846Z" fill="#101881"/>
<path d="M131.596 26.3847C131.811 26.3847 131.985 26.2108 131.985 25.9963C131.985 25.7817 131.811 25.6079 131.596 25.6079C131.382 25.6079 131.208 25.7817 131.208 25.9963C131.208 26.2108 131.382 26.3847 131.596 26.3847Z" fill="#101881"/>
<path d="M140.334 27.354C140.548 27.354 140.722 27.1801 140.722 26.9656C140.722 26.7511 140.548 26.5772 140.334 26.5772C140.119 26.5772 139.945 26.7511 139.945 26.9656C139.945 27.1801 140.119 27.354 140.334 27.354Z" fill="#101881"/>
<path d="M138.395 27.354C138.61 27.354 138.784 27.1801 138.784 26.9656C138.784 26.7511 138.61 26.5772 138.395 26.5772C138.181 26.5772 138.007 26.7511 138.007 26.9656C138.007 27.1801 138.181 27.354 138.395 27.354Z" fill="#101881"/>
<path d="M136.45 27.354C136.664 27.354 136.838 27.1801 136.838 26.9656C136.838 26.7511 136.664 26.5772 136.45 26.5772C136.235 26.5772 136.062 26.7511 136.062 26.9656C136.062 27.1801 136.235 27.354 136.45 27.354Z" fill="#101881"/>
<path d="M134.511 27.354C134.726 27.354 134.9 27.1801 134.9 26.9656C134.9 26.7511 134.726 26.5772 134.511 26.5772C134.297 26.5772 134.123 26.7511 134.123 26.9656C134.123 27.1801 134.297 27.354 134.511 27.354Z" fill="#101881"/>
<path d="M132.566 27.3541C132.781 27.3541 132.955 27.1802 132.955 26.9657C132.955 26.7511 132.781 26.5773 132.566 26.5773C132.352 26.5773 132.178 26.7511 132.178 26.9657C132.178 27.1802 132.352 27.3541 132.566 27.3541Z" fill="#101881"/>
<path d="M141.306 28.2395C141.496 28.2395 141.651 28.0851 141.651 27.8946C141.651 27.7042 141.496 27.5497 141.306 27.5497C141.115 27.5497 140.961 27.7042 140.961 27.8946C140.961 28.0851 141.115 28.2395 141.306 28.2395Z" fill="#101881"/>
<path d="M139.364 28.2395C139.555 28.2395 139.709 28.0851 139.709 27.8946C139.709 27.7042 139.555 27.5497 139.364 27.5497C139.174 27.5497 139.02 27.7042 139.02 27.8946C139.02 28.0851 139.174 28.2395 139.364 28.2395Z" fill="#101881"/>
<path d="M137.422 28.2395C137.613 28.2395 137.767 28.0851 137.767 27.8946C137.767 27.7042 137.613 27.5497 137.422 27.5497C137.232 27.5497 137.077 27.7042 137.077 27.8946C137.077 28.0851 137.232 28.2395 137.422 28.2395Z" fill="#101881"/>
<path d="M135.48 28.2271C135.667 28.2271 135.819 28.0755 135.819 27.8884C135.819 27.7014 135.667 27.5497 135.48 27.5497C135.293 27.5497 135.142 27.7014 135.142 27.8884C135.142 28.0755 135.293 28.2271 135.48 28.2271Z" fill="#101881"/>
<path d="M133.537 28.2395C133.728 28.2395 133.882 28.0851 133.882 27.8946C133.882 27.7042 133.728 27.5497 133.537 27.5497C133.347 27.5497 133.192 27.7042 133.192 27.8946C133.192 28.0851 133.347 28.2395 133.537 28.2395Z" fill="#101881"/>
<path d="M131.596 28.2396C131.786 28.2396 131.941 28.0852 131.941 27.8947C131.941 27.7042 131.786 27.5498 131.596 27.5498C131.405 27.5498 131.251 27.7042 131.251 27.8947C131.251 28.0852 131.405 28.2396 131.596 28.2396Z" fill="#101881"/>
<path d="M140.335 29.1378C140.501 29.1378 140.636 29.0028 140.636 28.8364C140.636 28.6699 140.501 28.535 140.335 28.535C140.168 28.535 140.033 28.6699 140.033 28.8364C140.033 29.0028 140.168 29.1378 140.335 29.1378Z" fill="#101881"/>
<path d="M138.395 29.1378C138.562 29.1378 138.697 29.0028 138.697 28.8364C138.697 28.6699 138.562 28.535 138.395 28.535C138.229 28.535 138.094 28.6699 138.094 28.8364C138.094 29.0028 138.229 29.1378 138.395 29.1378Z" fill="#101881"/>
<path d="M136.45 29.1284C136.613 29.1284 136.746 28.9963 136.746 28.8332C136.746 28.6702 136.613 28.5381 136.45 28.5381C136.287 28.5381 136.155 28.6702 136.155 28.8332C136.155 28.9963 136.287 29.1284 136.45 29.1284Z" fill="#101881"/>
<path d="M134.511 29.1378C134.678 29.1378 134.813 29.0028 134.813 28.8364C134.813 28.6699 134.678 28.535 134.511 28.535C134.345 28.535 134.21 28.6699 134.21 28.8364C134.21 29.0028 134.345 29.1378 134.511 29.1378Z" fill="#101881"/>
<path d="M132.566 29.1377C132.733 29.1377 132.867 29.0027 132.867 28.8363C132.867 28.6698 132.733 28.5349 132.566 28.5349C132.4 28.5349 132.265 28.6698 132.265 28.8363C132.265 29.0027 132.4 29.1377 132.566 29.1377Z" fill="#101881"/>
<path d="M141.22 30.0264C141.36 30.0264 141.474 29.9123 141.474 29.7716C141.474 29.6309 141.36 29.5168 141.22 29.5168C141.079 29.5168 140.965 29.6309 140.965 29.7716C140.965 29.9123 141.079 30.0264 141.22 30.0264Z" fill="#101881"/>
<path d="M139.278 30.0698C139.419 30.0698 139.533 29.9558 139.533 29.815C139.533 29.6743 139.419 29.5603 139.278 29.5603C139.138 29.5603 139.023 29.6743 139.023 29.815C139.023 29.9558 139.138 30.0698 139.278 30.0698Z" fill="#101881"/>
<path d="M137.337 30.0605C137.476 30.0605 137.588 29.9479 137.588 29.8089C137.588 29.6699 137.476 29.5572 137.337 29.5572C137.198 29.5572 137.085 29.6699 137.085 29.8089C137.085 29.9479 137.198 30.0605 137.337 30.0605Z" fill="#101881"/>
<path d="M135.394 30.0698C135.535 30.0698 135.649 29.9558 135.649 29.815C135.649 29.6743 135.535 29.5603 135.394 29.5603C135.254 29.5603 135.14 29.6743 135.14 29.815C135.14 29.9558 135.254 30.0698 135.394 30.0698Z" fill="#101881"/>
<path d="M133.453 30.0698C133.594 30.0698 133.708 29.9558 133.708 29.815C133.708 29.6743 133.594 29.5603 133.453 29.5603C133.312 29.5603 133.198 29.6743 133.198 29.815C133.198 29.9558 133.312 30.0698 133.453 30.0698Z" fill="#101881"/>
<path d="M131.684 30.0698C131.825 30.0698 131.939 29.9558 131.939 29.815C131.939 29.6743 131.825 29.5603 131.684 29.5603C131.544 29.5603 131.43 29.6743 131.43 29.815C131.43 29.9558 131.544 30.0698 131.684 30.0698Z" fill="#101881"/>
<path d="M140.249 30.9957C140.39 30.9957 140.504 30.8816 140.504 30.7409C140.504 30.6002 140.39 30.4861 140.249 30.4861C140.108 30.4861 139.994 30.6002 139.994 30.7409C139.994 30.8816 140.108 30.9957 140.249 30.9957Z" fill="#101881"/>
<path d="M138.306 30.9864C138.445 30.9864 138.558 30.8737 138.558 30.7347C138.558 30.5957 138.445 30.483 138.306 30.483C138.167 30.483 138.055 30.5957 138.055 30.7347C138.055 30.8737 138.167 30.9864 138.306 30.9864Z" fill="#101881"/>
<path d="M136.364 30.9957C136.505 30.9957 136.619 30.8816 136.619 30.7409C136.619 30.6002 136.505 30.4861 136.364 30.4861C136.223 30.4861 136.109 30.6002 136.109 30.7409C136.109 30.8816 136.223 30.9957 136.364 30.9957Z" fill="#101881"/>
<path d="M134.422 30.9957C134.563 30.9957 134.677 30.8816 134.677 30.7409C134.677 30.6002 134.563 30.4861 134.422 30.4861C134.281 30.4861 134.167 30.6002 134.167 30.7409C134.167 30.8816 134.281 30.9957 134.422 30.9957Z" fill="#101881"/>
<path d="M132.657 30.9958C132.798 30.9958 132.912 30.8818 132.912 30.741C132.912 30.6003 132.798 30.4863 132.657 30.4863C132.516 30.4863 132.402 30.6003 132.402 30.741C132.402 30.8818 132.516 30.9958 132.657 30.9958Z" fill="#101881"/>
<path d="M141.386 31.8409C141.503 31.8409 141.597 31.7463 141.597 31.6296C141.597 31.5129 141.503 31.4183 141.386 31.4183C141.269 31.4183 141.175 31.5129 141.175 31.6296C141.175 31.7463 141.269 31.8409 141.386 31.8409Z" fill="#101881"/>
<path d="M139.445 31.875C139.557 31.875 139.647 31.7846 139.647 31.6731C139.647 31.5615 139.557 31.4711 139.445 31.4711C139.334 31.4711 139.243 31.5615 139.243 31.6731C139.243 31.7846 139.334 31.875 139.445 31.875Z" fill="#101881"/>
<path d="M137.503 31.875C137.618 31.875 137.711 31.7818 137.711 31.6669C137.711 31.5519 137.618 31.4587 137.503 31.4587C137.388 31.4587 137.295 31.5519 137.295 31.6669C137.295 31.7818 137.388 31.875 137.503 31.875Z" fill="#101881"/>
<path d="M135.561 31.8843C135.678 31.8843 135.772 31.7897 135.772 31.673C135.772 31.5564 135.678 31.4618 135.561 31.4618C135.444 31.4618 135.35 31.5564 135.35 31.673C135.35 31.7897 135.444 31.8843 135.561 31.8843Z" fill="#101881"/>
<path d="M133.62 31.8843C133.736 31.8843 133.831 31.7897 133.831 31.673C133.831 31.5564 133.736 31.4618 133.62 31.4618C133.503 31.4618 133.408 31.5564 133.408 31.673C133.408 31.7897 133.503 31.8843 133.62 31.8843Z" fill="#101881"/>
<path d="M131.851 31.8843C131.968 31.8843 132.062 31.7897 132.062 31.673C132.062 31.5564 131.968 31.4618 131.851 31.4618C131.734 31.4618 131.64 31.5564 131.64 31.673C131.64 31.7897 131.734 31.8843 131.851 31.8843Z" fill="#101881"/>
<path d="M140.247 32.7732C140.34 32.7732 140.415 32.6981 140.415 32.6054C140.415 32.5128 140.34 32.4377 140.247 32.4377C140.154 32.4377 140.079 32.5128 140.079 32.6054C140.079 32.6981 140.154 32.7732 140.247 32.7732Z" fill="#101881"/>
<path d="M138.304 32.7608C138.393 32.7608 138.466 32.6885 138.466 32.5992C138.466 32.51 138.393 32.4377 138.304 32.4377C138.215 32.4377 138.143 32.51 138.143 32.5992C138.143 32.6885 138.215 32.7608 138.304 32.7608Z" fill="#101881"/>
<path d="M136.362 32.7732C136.455 32.7732 136.53 32.6981 136.53 32.6054C136.53 32.5128 136.455 32.4377 136.362 32.4377C136.269 32.4377 136.194 32.5128 136.194 32.6054C136.194 32.6981 136.269 32.7732 136.362 32.7732Z" fill="#101881"/>
<path d="M134.421 32.7273C134.488 32.7273 134.543 32.6729 134.543 32.6057C134.543 32.5386 134.488 32.4842 134.421 32.4842C134.354 32.4842 134.3 32.5386 134.3 32.6057C134.3 32.6729 134.354 32.7273 134.421 32.7273Z" fill="#101881"/>
<path d="M132.656 32.7303C132.725 32.7303 132.781 32.6745 132.781 32.6057C132.781 32.5368 132.725 32.481 132.656 32.481C132.587 32.481 132.531 32.5368 132.531 32.6057C132.531 32.6745 132.587 32.7303 132.656 32.7303Z" fill="#101881"/>
<path d="M141.387 33.6189C141.456 33.6189 141.512 33.5631 141.512 33.4942C141.512 33.4254 141.456 33.3696 141.387 33.3696C141.319 33.3696 141.263 33.4254 141.263 33.4942C141.263 33.5631 141.319 33.6189 141.387 33.6189Z" fill="#101881"/>
<path d="M139.446 33.6624C139.515 33.6624 139.571 33.6066 139.571 33.5378C139.571 33.4689 139.515 33.4131 139.446 33.4131C139.377 33.4131 139.321 33.4689 139.321 33.5378C139.321 33.6066 139.377 33.6624 139.446 33.6624Z" fill="#101881"/>
<path d="M137.504 33.65C137.57 33.65 137.623 33.5969 137.623 33.5315C137.623 33.4661 137.57 33.4131 137.504 33.4131C137.439 33.4131 137.386 33.4661 137.386 33.5315C137.386 33.5969 137.439 33.65 137.504 33.65Z" fill="#101881"/>
<path d="M135.562 33.6624C135.631 33.6624 135.687 33.6066 135.687 33.5378C135.687 33.4689 135.631 33.4131 135.562 33.4131C135.493 33.4131 135.438 33.4689 135.438 33.5378C135.438 33.6066 135.493 33.6624 135.562 33.6624Z" fill="#101881"/>
<path d="M133.621 33.6624C133.69 33.6624 133.745 33.6066 133.745 33.5378C133.745 33.4689 133.69 33.4131 133.621 33.4131C133.552 33.4131 133.496 33.4689 133.496 33.5378C133.496 33.6066 133.552 33.6624 133.621 33.6624Z" fill="#101881"/>
<path d="M131.852 33.6624C131.921 33.6624 131.977 33.6066 131.977 33.5378C131.977 33.4689 131.921 33.4131 131.852 33.4131C131.783 33.4131 131.728 33.4689 131.728 33.5378C131.728 33.6066 131.783 33.6624 131.852 33.6624Z" fill="#101881"/>
<path d="M111.425 47.3182C110.238 47.3182 109.275 46.3549 109.275 45.168V27.4319C94.6272 22.9854 81.6266 25.3811 77.5809 32.1455C76.9315 33.2331 75.1915 36.6417 75.4059 41.1565C75.4432 41.9364 75.7943 47.7283 79.6535 51.4104C84.3733 55.9159 93.2134 56.18 100.835 51.3079C101.578 52.1157 102.812 53.2312 104.617 54.0018C108.604 55.7046 112.335 54.4244 113.317 54.0547V47.3213H111.428L111.425 47.3182ZM99.4869 44.3135C95.0653 47.3088 90.0596 47.3461 87.5241 44.9349C86.4801 43.9437 85.3739 42.0794 85.4516 39.8608C85.5354 37.4434 86.9803 35.84 87.3687 35.4081C89.8607 32.6396 94.6397 32.015 99.4869 33.6463V44.3135Z" fill="#101881"/>
<path d="M56.4543 46.6625L71.9905 31.2661V25.6731H41.6421V33.5437H56.7899L40.8125 48.7692V53.9489H72.6119V46.6625H56.4543Z" fill="#101881"/>
<path d="M38.4015 25.673H27.9239L19.5437 44.68L12.0459 25.673H0.782227L13.2609 55.3595C13.062 55.6268 12.4188 56.2389 12.4126 56.2451C11.6513 56.8572 10.6881 57.1586 9.70931 57.1586H4.51091L3.19033 64.3053H10.4954C10.4954 64.3581 16.1102 64.5197 20.1248 61.6641C22.8715 59.7097 24.2916 57.3016 24.941 55.9934L24.8975 55.9655L38.4015 25.6699V25.673Z" fill="#101881"/>
<path d="M30.8408 63.9479H35.5017V65.7315H32.671V66.9713H34.5509V68.6709H32.671V71.2965H30.8408V63.9479Z" fill="#009938"/>
<path d="M40.9056 63.9479H42.4779L44.9823 71.2965H43.236L42.8072 69.9946H40.539L40.1195 71.2965H38.4043L40.9087 63.9479H40.9056ZM42.3349 68.4317L41.6793 66.356L41.0144 68.4317H42.3349Z" fill="#009938"/>
<path d="M74.0404 63.9479H75.6126L78.1171 71.2965H76.3708L75.942 69.9946H73.6737L73.2543 71.2965H71.5391L74.0435 63.9479H74.0404ZM75.4697 68.4317L74.8141 66.356L74.1491 68.4317H75.4697Z" fill="#009938"/>
<path d="M100.414 63.9479H101.987L104.491 71.2965H102.745L102.316 69.9946H100.048L99.6283 71.2965H97.9131L100.418 63.9479H100.414ZM101.844 68.4317L101.188 66.356L100.523 68.4317H101.844Z" fill="#009938"/>
<path d="M49.376 63.9479H52.2191C52.6821 63.9479 53.0767 64.0194 53.3967 64.1592C53.7168 64.299 53.9778 64.4948 54.1798 64.7465C54.534 65.166 54.7111 65.7377 54.7111 66.4586V66.4803C54.7111 67.0458 54.5992 67.515 54.3755 67.8879C54.1518 68.2608 53.8504 68.5435 53.4744 68.7393L54.91 71.2996H52.9866L51.7748 69.0749H51.0446V71.2996H49.3791V63.951L49.376 63.9479ZM52.1414 67.4746C52.4273 67.4746 52.6479 67.397 52.8033 67.2385C52.9586 67.08 53.0363 66.8687 53.0363 66.6015V66.5798C53.0363 66.2846 52.9555 66.0671 52.797 65.9241C52.6355 65.7812 52.4149 65.7097 52.1352 65.7097H51.0446V67.4715H52.1445L52.1414 67.4746Z" fill="#009938"/>
<path d="M59.4652 63.9479H61.6372L63.4083 66.8221L65.1794 63.9479H67.3514V71.3711H65.3037V67.108L63.4114 70.0132H63.3679L61.4849 67.1297V71.3711H59.459V63.9479H59.4652Z" fill="#009938"/>
<path d="M85.1121 71.5389C84.6585 71.5389 84.2297 71.4395 83.8319 71.2468C83.4311 71.0511 83.0862 70.7777 82.791 70.4296C82.4958 70.0785 82.2628 69.6622 82.0919 69.1805C81.9179 68.6989 81.834 68.1769 81.834 67.6145V67.5927C81.834 67.0428 81.9179 66.527 82.0888 66.0484C82.2597 65.5699 82.4927 65.1473 82.7879 64.79C83.0862 64.4327 83.4373 64.153 83.8475 63.948C84.2576 63.746 84.702 63.6434 85.1867 63.6434C85.513 63.6434 85.8112 63.6807 86.0785 63.7584C86.3457 63.8361 86.588 63.9417 86.8087 64.0847C87.0293 64.2276 87.2281 64.3923 87.4084 64.588C87.5855 64.7838 87.747 64.9982 87.8869 65.2281L86.5601 66.4555C86.3799 66.1821 86.1779 65.9645 85.9604 65.8061C85.7429 65.6476 85.4788 65.5668 85.1712 65.5668C84.9474 65.5668 84.7424 65.6196 84.559 65.7253C84.3757 65.8309 84.2141 65.9739 84.0836 66.1541C83.9531 66.3343 83.8475 66.5487 83.7698 66.7942C83.6952 67.0396 83.6548 67.3007 83.6548 67.5741V67.5958C83.6548 67.8786 83.6921 68.1427 83.7698 68.3944C83.8444 68.643 83.95 68.8605 84.0836 69.0407C84.2172 69.2209 84.3757 69.3639 84.559 69.4695C84.7424 69.5751 84.9474 69.628 85.1712 69.628C85.3358 69.628 85.485 69.6062 85.6217 69.5627C85.7584 69.5192 85.8827 69.4571 85.9946 69.3732C86.1064 69.2893 86.2121 69.193 86.3115 69.0811C86.4109 68.9692 86.5104 68.8449 86.6067 68.7082L87.9335 69.8362C87.7812 70.0816 87.6165 70.3085 87.4394 70.5197C87.2623 70.7279 87.0572 70.9113 86.8304 71.0604C86.6036 71.2127 86.3488 71.3307 86.0691 71.4177C85.7864 71.5047 85.4726 71.5482 85.1214 71.5482L85.1121 71.5389Z" fill="#009938"/>
<path d="M91.5098 63.9822H93.3368V71.5359H91.5098V63.9822Z" fill="#009938"/>
<path d="M111.641 71.5265C110.989 71.5265 110.37 71.4271 109.786 71.222C109.202 71.0201 108.683 70.7155 108.232 70.3116L109.354 68.9662C110.081 69.5472 110.87 69.8393 111.716 69.8393C111.986 69.8393 112.191 69.7958 112.334 69.7088C112.477 69.6218 112.548 69.4975 112.548 69.339V69.3173C112.548 69.2396 112.53 69.1744 112.496 69.1153C112.461 69.0563 112.396 69.0004 112.303 68.9444C112.21 68.8885 112.085 68.8357 111.927 68.7828C111.772 68.73 111.57 68.6772 111.318 68.6213C110.929 68.5312 110.569 68.4317 110.237 68.3261C109.904 68.2173 109.615 68.0806 109.37 67.9097C109.124 67.7419 108.928 67.5306 108.789 67.2758C108.646 67.0242 108.574 66.7103 108.574 66.3375V66.3157C108.574 65.977 108.639 65.6663 108.767 65.3804C108.894 65.0946 109.081 64.8491 109.329 64.644C109.575 64.4358 109.873 64.2743 110.218 64.1593C110.566 64.0474 110.957 63.9884 111.392 63.9884C112.017 63.9884 112.573 64.0692 113.061 64.2339C113.549 64.3985 113.99 64.6409 114.388 64.9609L113.378 66.3903C113.046 66.1541 112.704 65.977 112.353 65.8558C112.001 65.7347 111.663 65.6725 111.34 65.6725C111.097 65.6725 110.914 65.716 110.793 65.8061C110.672 65.8962 110.609 66.0081 110.609 66.1386V66.1603C110.609 66.2442 110.628 66.3157 110.665 66.3778C110.703 66.44 110.771 66.4959 110.864 66.5487C110.957 66.6016 111.085 66.6544 111.25 66.7041C111.411 66.7569 111.619 66.8098 111.868 66.8657C112.284 66.9558 112.66 67.0614 112.996 67.1826C113.331 67.3038 113.617 67.4498 113.853 67.6238C114.09 67.7979 114.27 68.006 114.394 68.2515C114.518 68.497 114.58 68.7891 114.58 69.1278V69.1495C114.58 69.5224 114.509 69.8548 114.366 70.1469C114.223 70.439 114.024 70.6845 113.77 70.8896C113.512 71.0946 113.204 71.25 112.844 71.3556C112.483 71.4644 112.079 71.5172 111.638 71.5172L111.641 71.5265Z" fill="#009938"/>
</svg>
